<mxfile host="Electron" agent="Mozilla/5.0 (X11; Linux x86_64) AppleWebKit/537.36 (KHTML, like Gecko) draw.io/26.1.1 Chrome/132.0.6834.210 Electron/34.3.3 Safari/537.36" scale="1" border="0" version="26.1.1">
  <diagram name="new-4" id="NZChbiztEb22L0qW02nq">
    <mxGraphModel dx="17083" dy="9149" grid="1" gridSize="10" guides="0" tooltips="1" connect="1" arrows="1" fold="1" page="1" pageScale="1" pageWidth="1169" pageHeight="827" math="0" shadow="0">
      <root>
        <mxCell id="ecw_OJBiE6QCDlSSsBEE-0" />
        <mxCell id="ecw_OJBiE6QCDlSSsBEE-1" parent="ecw_OJBiE6QCDlSSsBEE-0" />
        <mxCell id="ecw_OJBiE6QCDlSSsBEE-3" style="edgeStyle=orthogonalEdgeStyle;shape=connector;curved=0;rounded=1;orthogonalLoop=1;jettySize=auto;html=1;dashed=1;strokeColor=#FF9933;strokeWidth=2;align=center;verticalAlign=middle;fontFamily=Helvetica;fontSize=11;fontColor=default;labelBackgroundColor=default;endArrow=block;endFill=0;endSize=16;" parent="ecw_OJBiE6QCDlSSsBEE-1" source="ecw_OJBiE6QCDlSSsBEE-7" target="ecw_OJBiE6QCDlSSsBEE-377" edge="1">
          <mxGeometry relative="1" as="geometry">
            <Array as="points">
              <mxPoint x="-14800" y="-8020" />
              <mxPoint x="-14800" y="-8180" />
            </Array>
          </mxGeometry>
        </mxCell>
        <mxCell id="ecw_OJBiE6QCDlSSsBEE-7" value="&lt;&lt; abstract &gt;&gt;&#xa;Usuario" style="swimlane;fontStyle=2;align=center;verticalAlign=top;childLayout=stackLayout;horizontal=1;startSize=40;horizontalStack=0;resizeParent=1;resizeLast=0;collapsible=1;marginBottom=0;rounded=0;shadow=0;strokeWidth=1;fillColor=#fa6800;fontColor=#000000;strokeColor=#C73500;" parent="ecw_OJBiE6QCDlSSsBEE-1" vertex="1">
          <mxGeometry x="-15160" y="-8180" width="280" height="598" as="geometry">
            <mxRectangle x="130" y="380" width="160" height="26" as="alternateBounds" />
          </mxGeometry>
        </mxCell>
        <mxCell id="ecw_OJBiE6QCDlSSsBEE-8" value="# id: String" style="text;align=left;verticalAlign=top;spacingLeft=4;spacingRight=4;overflow=hidden;rotatable=0;points=[[0,0.5],[1,0.5]];portConstraint=eastwest;" parent="ecw_OJBiE6QCDlSSsBEE-7" vertex="1">
          <mxGeometry y="40" width="280" height="26" as="geometry" />
        </mxCell>
        <mxCell id="ecw_OJBiE6QCDlSSsBEE-9" value="# nombreUsuario: String" style="text;align=left;verticalAlign=top;spacingLeft=4;spacingRight=4;overflow=hidden;rotatable=0;points=[[0,0.5],[1,0.5]];portConstraint=eastwest;rounded=0;shadow=0;html=0;" parent="ecw_OJBiE6QCDlSSsBEE-7" vertex="1">
          <mxGeometry y="66" width="280" height="26" as="geometry" />
        </mxCell>
        <mxCell id="ecw_OJBiE6QCDlSSsBEE-10" value="# contrasena: String" style="text;align=left;verticalAlign=top;spacingLeft=4;spacingRight=4;overflow=hidden;rotatable=0;points=[[0,0.5],[1,0.5]];portConstraint=eastwest;rounded=0;shadow=0;html=0;" parent="ecw_OJBiE6QCDlSSsBEE-7" vertex="1">
          <mxGeometry y="92" width="280" height="26" as="geometry" />
        </mxCell>
        <mxCell id="ecw_OJBiE6QCDlSSsBEE-11" value="# nombreCompleto: String" style="text;align=left;verticalAlign=top;spacingLeft=4;spacingRight=4;overflow=hidden;rotatable=0;points=[[0,0.5],[1,0.5]];portConstraint=eastwest;rounded=0;shadow=0;html=0;" parent="ecw_OJBiE6QCDlSSsBEE-7" vertex="1">
          <mxGeometry y="118" width="280" height="26" as="geometry" />
        </mxCell>
        <mxCell id="ecw_OJBiE6QCDlSSsBEE-12" value="# email: String" style="text;align=left;verticalAlign=top;spacingLeft=4;spacingRight=4;overflow=hidden;rotatable=0;points=[[0,0.5],[1,0.5]];portConstraint=eastwest;rounded=0;shadow=0;html=0;" parent="ecw_OJBiE6QCDlSSsBEE-7" vertex="1">
          <mxGeometry y="144" width="280" height="26" as="geometry" />
        </mxCell>
        <mxCell id="ecw_OJBiE6QCDlSSsBEE-13" value="# rol: String" style="text;align=left;verticalAlign=top;spacingLeft=4;spacingRight=4;overflow=hidden;rotatable=0;points=[[0,0.5],[1,0.5]];portConstraint=eastwest;rounded=0;shadow=0;html=0;" parent="ecw_OJBiE6QCDlSSsBEE-7" vertex="1">
          <mxGeometry y="170" width="280" height="26" as="geometry" />
        </mxCell>
        <mxCell id="ecw_OJBiE6QCDlSSsBEE-15" value="" style="line;html=1;strokeWidth=1;align=left;verticalAlign=middle;spacingTop=-1;spacingLeft=3;spacingRight=3;rotatable=0;labelPosition=right;points=[];portConstraint=eastwest;" parent="ecw_OJBiE6QCDlSSsBEE-7" vertex="1">
          <mxGeometry y="196" width="280" height="8" as="geometry" />
        </mxCell>
        <mxCell id="ecw_OJBiE6QCDlSSsBEE-16" value="+ Usuario(id: int, nombreUsuario: String, &#xa;contrasena: String, nombreCompleto: String, &#xa;email: String, rol: String)" style="text;align=left;verticalAlign=top;spacingLeft=4;spacingRight=4;overflow=hidden;rotatable=0;points=[[0,0.5],[1,0.5]];portConstraint=eastwest;fontStyle=0" parent="ecw_OJBiE6QCDlSSsBEE-7" vertex="1">
          <mxGeometry y="204" width="280" height="50" as="geometry" />
        </mxCell>
        <mxCell id="ecw_OJBiE6QCDlSSsBEE-17" value="+ getId(): int" style="text;align=left;verticalAlign=top;spacingLeft=4;spacingRight=4;overflow=hidden;rotatable=0;points=[[0,0.5],[1,0.5]];portConstraint=eastwest;fontStyle=0" parent="ecw_OJBiE6QCDlSSsBEE-7" vertex="1">
          <mxGeometry y="254" width="280" height="26" as="geometry" />
        </mxCell>
        <mxCell id="ecw_OJBiE6QCDlSSsBEE-22" value="+ setId(id: int): void" style="text;align=left;verticalAlign=top;spacingLeft=4;spacingRight=4;overflow=hidden;rotatable=0;points=[[0,0.5],[1,0.5]];portConstraint=eastwest;fontStyle=0" parent="ecw_OJBiE6QCDlSSsBEE-7" vertex="1">
          <mxGeometry y="280" width="280" height="26" as="geometry" />
        </mxCell>
        <mxCell id="ecw_OJBiE6QCDlSSsBEE-18" value="+ getNombreUsuario(): String" style="text;align=left;verticalAlign=top;spacingLeft=4;spacingRight=4;overflow=hidden;rotatable=0;points=[[0,0.5],[1,0.5]];portConstraint=eastwest;rounded=0;shadow=0;html=0;fontStyle=0" parent="ecw_OJBiE6QCDlSSsBEE-7" vertex="1">
          <mxGeometry y="306" width="280" height="26" as="geometry" />
        </mxCell>
        <mxCell id="ecw_OJBiE6QCDlSSsBEE-23" value="+ setNombreUsuario(nombreUsuario: String): void" style="text;align=left;verticalAlign=top;spacingLeft=4;spacingRight=4;overflow=hidden;rotatable=0;points=[[0,0.5],[1,0.5]];portConstraint=eastwest;fontStyle=0" parent="ecw_OJBiE6QCDlSSsBEE-7" vertex="1">
          <mxGeometry y="332" width="280" height="26" as="geometry" />
        </mxCell>
        <mxCell id="ecw_OJBiE6QCDlSSsBEE-19" value="+ getContrasena(): String" style="text;align=left;verticalAlign=top;spacingLeft=4;spacingRight=4;overflow=hidden;rotatable=0;points=[[0,0.5],[1,0.5]];portConstraint=eastwest;rounded=0;shadow=0;html=0;" parent="ecw_OJBiE6QCDlSSsBEE-7" vertex="1">
          <mxGeometry y="358" width="280" height="26" as="geometry" />
        </mxCell>
        <mxCell id="ecw_OJBiE6QCDlSSsBEE-24" value="+ setContrasena(contrasena: String): void" style="text;align=left;verticalAlign=top;spacingLeft=4;spacingRight=4;overflow=hidden;rotatable=0;points=[[0,0.5],[1,0.5]];portConstraint=eastwest;fontStyle=0" parent="ecw_OJBiE6QCDlSSsBEE-7" vertex="1">
          <mxGeometry y="384" width="280" height="26" as="geometry" />
        </mxCell>
        <mxCell id="ecw_OJBiE6QCDlSSsBEE-20" value="+ getNombreCompleto(): String" style="text;align=left;verticalAlign=top;spacingLeft=4;spacingRight=4;overflow=hidden;rotatable=0;points=[[0,0.5],[1,0.5]];portConstraint=eastwest;rounded=0;shadow=0;html=0;" parent="ecw_OJBiE6QCDlSSsBEE-7" vertex="1">
          <mxGeometry y="410" width="280" height="26" as="geometry" />
        </mxCell>
        <mxCell id="ecw_OJBiE6QCDlSSsBEE-25" value="+ setNombreCompleto(nombreCompleto: String): &#xa;void" style="text;align=left;verticalAlign=top;spacingLeft=4;spacingRight=4;overflow=hidden;rotatable=0;points=[[0,0.5],[1,0.5]];portConstraint=eastwest;fontStyle=0" parent="ecw_OJBiE6QCDlSSsBEE-7" vertex="1">
          <mxGeometry y="436" width="280" height="32" as="geometry" />
        </mxCell>
        <mxCell id="ecw_OJBiE6QCDlSSsBEE-21" value="+ getRol(): String" style="text;align=left;verticalAlign=top;spacingLeft=4;spacingRight=4;overflow=hidden;rotatable=0;points=[[0,0.5],[1,0.5]];portConstraint=eastwest;rounded=0;shadow=0;html=0;" parent="ecw_OJBiE6QCDlSSsBEE-7" vertex="1">
          <mxGeometry y="468" width="280" height="26" as="geometry" />
        </mxCell>
        <mxCell id="ecw_OJBiE6QCDlSSsBEE-26" value="+ setRol(rol: String): void" style="text;align=left;verticalAlign=top;spacingLeft=4;spacingRight=4;overflow=hidden;rotatable=0;points=[[0,0.5],[1,0.5]];portConstraint=eastwest;fontStyle=0" parent="ecw_OJBiE6QCDlSSsBEE-7" vertex="1">
          <mxGeometry y="494" width="280" height="26" as="geometry" />
        </mxCell>
        <mxCell id="ih4sQrugVe3iXe96H1Av-0" value="# mostrarInformacion() : void" style="text;align=left;verticalAlign=top;spacingLeft=4;spacingRight=4;overflow=hidden;rotatable=0;points=[[0,0.5],[1,0.5]];portConstraint=eastwest;fontStyle=2" parent="ecw_OJBiE6QCDlSSsBEE-7" vertex="1">
          <mxGeometry y="520" width="280" height="26" as="geometry" />
        </mxCell>
        <mxCell id="ecw_OJBiE6QCDlSSsBEE-28" style="edgeStyle=orthogonalEdgeStyle;shape=connector;curved=0;rounded=1;orthogonalLoop=1;jettySize=auto;html=1;strokeColor=#FF9933;strokeWidth=2;align=center;verticalAlign=middle;fontFamily=Helvetica;fontSize=11;fontColor=default;labelBackgroundColor=default;endArrow=block;endFill=0;endSize=16;" parent="ecw_OJBiE6QCDlSSsBEE-1" source="ecw_OJBiE6QCDlSSsBEE-29" target="ecw_OJBiE6QCDlSSsBEE-7" edge="1">
          <mxGeometry relative="1" as="geometry">
            <Array as="points">
              <mxPoint x="-14630" y="-7840" />
            </Array>
          </mxGeometry>
        </mxCell>
        <mxCell id="ecw_OJBiE6QCDlSSsBEE-29" value="Administrador" style="swimlane;fontStyle=0;align=center;verticalAlign=top;childLayout=stackLayout;horizontal=1;startSize=30;horizontalStack=0;resizeParent=1;resizeLast=0;collapsible=1;marginBottom=0;rounded=0;shadow=0;strokeWidth=1;" parent="ecw_OJBiE6QCDlSSsBEE-1" vertex="1">
          <mxGeometry x="-14720" y="-8090" width="280" height="230" as="geometry">
            <mxRectangle x="130" y="380" width="160" height="26" as="alternateBounds" />
          </mxGeometry>
        </mxCell>
        <mxCell id="ecw_OJBiE6QCDlSSsBEE-31" value="" style="line;html=1;strokeWidth=1;align=left;verticalAlign=middle;spacingTop=-1;spacingLeft=3;spacingRight=3;rotatable=0;labelPosition=right;points=[];portConstraint=eastwest;" parent="ecw_OJBiE6QCDlSSsBEE-29" vertex="1">
          <mxGeometry y="30" width="280" height="8" as="geometry" />
        </mxCell>
        <mxCell id="ecw_OJBiE6QCDlSSsBEE-32" value="+ Administrador(id: int, nombreUsuario: String, &#xa;contrasena: String, nombreCompleto: String)" style="text;align=left;verticalAlign=top;spacingLeft=4;spacingRight=4;overflow=hidden;rotatable=0;points=[[0,0.5],[1,0.5]];portConstraint=eastwest;" parent="ecw_OJBiE6QCDlSSsBEE-29" vertex="1">
          <mxGeometry y="38" width="280" height="36" as="geometry" />
        </mxCell>
        <mxCell id="se7aEWiKqazrtZZNGl2T-0" value="+ gestionarUsuarios(): void" style="text;align=left;verticalAlign=top;spacingLeft=4;spacingRight=4;overflow=hidden;rotatable=0;points=[[0,0.5],[1,0.5]];portConstraint=eastwest;rounded=0;shadow=0;html=0;" parent="ecw_OJBiE6QCDlSSsBEE-29" vertex="1">
          <mxGeometry y="74" width="280" height="26" as="geometry" />
        </mxCell>
        <mxCell id="tnHd-xGfJZXZhbbgQxCl-20" value="+ generarReportes(): void" style="text;align=left;verticalAlign=top;spacingLeft=4;spacingRight=4;overflow=hidden;rotatable=0;points=[[0,0.5],[1,0.5]];portConstraint=eastwest;rounded=0;shadow=0;html=0;" parent="ecw_OJBiE6QCDlSSsBEE-29" vertex="1">
          <mxGeometry y="100" width="280" height="26" as="geometry" />
        </mxCell>
        <mxCell id="se7aEWiKqazrtZZNGl2T-2" value="+ mostrarInformacion(): void" style="text;align=left;verticalAlign=top;spacingLeft=4;spacingRight=4;overflow=hidden;rotatable=0;points=[[0,0.5],[1,0.5]];portConstraint=eastwest;rounded=0;shadow=0;html=0;" parent="ecw_OJBiE6QCDlSSsBEE-29" vertex="1">
          <mxGeometry y="126" width="280" height="26" as="geometry" />
        </mxCell>
        <mxCell id="ecw_OJBiE6QCDlSSsBEE-35" style="edgeStyle=orthogonalEdgeStyle;shape=connector;curved=0;rounded=1;orthogonalLoop=1;jettySize=auto;html=1;strokeColor=#FF9933;strokeWidth=2;align=center;verticalAlign=middle;fontFamily=Helvetica;fontSize=11;fontColor=default;labelBackgroundColor=default;endArrow=block;endFill=0;endSize=16;" parent="ecw_OJBiE6QCDlSSsBEE-1" source="ecw_OJBiE6QCDlSSsBEE-36" target="ecw_OJBiE6QCDlSSsBEE-7" edge="1">
          <mxGeometry relative="1" as="geometry">
            <Array as="points">
              <mxPoint x="-14630" y="-7840" />
            </Array>
          </mxGeometry>
        </mxCell>
        <mxCell id="ecw_OJBiE6QCDlSSsBEE-36" value="Bibliotecario" style="swimlane;fontStyle=0;align=center;verticalAlign=top;childLayout=stackLayout;horizontal=1;startSize=30;horizontalStack=0;resizeParent=1;resizeLast=0;collapsible=1;marginBottom=0;rounded=0;shadow=0;strokeWidth=1;" parent="ecw_OJBiE6QCDlSSsBEE-1" vertex="1">
          <mxGeometry x="-14720" y="-7800" width="280" height="256" as="geometry">
            <mxRectangle x="130" y="380" width="160" height="26" as="alternateBounds" />
          </mxGeometry>
        </mxCell>
        <mxCell id="ecw_OJBiE6QCDlSSsBEE-38" value="" style="line;html=1;strokeWidth=1;align=left;verticalAlign=middle;spacingTop=-1;spacingLeft=3;spacingRight=3;rotatable=0;labelPosition=right;points=[];portConstraint=eastwest;" parent="ecw_OJBiE6QCDlSSsBEE-36" vertex="1">
          <mxGeometry y="30" width="280" height="8" as="geometry" />
        </mxCell>
        <mxCell id="ecw_OJBiE6QCDlSSsBEE-39" value="+ Operador(id: int, nombreUsuario: String, &#xa;contrasena: String, nombreCompleto: String)" style="text;align=left;verticalAlign=top;spacingLeft=4;spacingRight=4;overflow=hidden;rotatable=0;points=[[0,0.5],[1,0.5]];portConstraint=eastwest;" parent="ecw_OJBiE6QCDlSSsBEE-36" vertex="1">
          <mxGeometry y="38" width="280" height="36" as="geometry" />
        </mxCell>
        <mxCell id="ecw_OJBiE6QCDlSSsBEE-41" value="+ autenticar(contrasena: String): boolean" style="text;align=left;verticalAlign=top;spacingLeft=4;spacingRight=4;overflow=hidden;rotatable=0;points=[[0,0.5],[1,0.5]];portConstraint=eastwest;rounded=0;shadow=0;html=0;" parent="ecw_OJBiE6QCDlSSsBEE-36" vertex="1">
          <mxGeometry y="74" width="280" height="26" as="geometry" />
        </mxCell>
        <mxCell id="se7aEWiKqazrtZZNGl2T-3" value="+ registrarPrestamo(): void" style="text;align=left;verticalAlign=top;spacingLeft=4;spacingRight=4;overflow=hidden;rotatable=0;points=[[0,0.5],[1,0.5]];portConstraint=eastwest;rounded=0;shadow=0;html=0;" parent="ecw_OJBiE6QCDlSSsBEE-36" vertex="1">
          <mxGeometry y="100" width="280" height="26" as="geometry" />
        </mxCell>
        <mxCell id="se7aEWiKqazrtZZNGl2T-4" value="+ registrarDevolucion(): void" style="text;align=left;verticalAlign=top;spacingLeft=4;spacingRight=4;overflow=hidden;rotatable=0;points=[[0,0.5],[1,0.5]];portConstraint=eastwest;rounded=0;shadow=0;html=0;" parent="ecw_OJBiE6QCDlSSsBEE-36" vertex="1">
          <mxGeometry y="126" width="280" height="26" as="geometry" />
        </mxCell>
        <mxCell id="se7aEWiKqazrtZZNGl2T-5" value="+ aplicarSancion(): void" style="text;align=left;verticalAlign=top;spacingLeft=4;spacingRight=4;overflow=hidden;rotatable=0;points=[[0,0.5],[1,0.5]];portConstraint=eastwest;rounded=0;shadow=0;html=0;" parent="ecw_OJBiE6QCDlSSsBEE-36" vertex="1">
          <mxGeometry y="152" width="280" height="26" as="geometry" />
        </mxCell>
        <mxCell id="se7aEWiKqazrtZZNGl2T-6" value="+ mostrarInformacion(): void" style="text;align=left;verticalAlign=top;spacingLeft=4;spacingRight=4;overflow=hidden;rotatable=0;points=[[0,0.5],[1,0.5]];portConstraint=eastwest;rounded=0;shadow=0;html=0;" parent="ecw_OJBiE6QCDlSSsBEE-36" vertex="1">
          <mxGeometry y="178" width="280" height="26" as="geometry" />
        </mxCell>
        <mxCell id="ecw_OJBiE6QCDlSSsBEE-42" style="edgeStyle=orthogonalEdgeStyle;shape=connector;curved=0;rounded=1;orthogonalLoop=1;jettySize=auto;html=1;strokeColor=#FF9933;strokeWidth=2;align=center;verticalAlign=middle;fontFamily=Helvetica;fontSize=11;fontColor=default;labelBackgroundColor=default;endArrow=block;endFill=0;endSize=16;" parent="ecw_OJBiE6QCDlSSsBEE-1" source="ecw_OJBiE6QCDlSSsBEE-43" target="ecw_OJBiE6QCDlSSsBEE-7" edge="1">
          <mxGeometry relative="1" as="geometry">
            <Array as="points">
              <mxPoint x="-14240" y="-7840" />
            </Array>
          </mxGeometry>
        </mxCell>
        <mxCell id="ecw_OJBiE6QCDlSSsBEE-43" value="Profesor" style="swimlane;fontStyle=0;align=center;verticalAlign=top;childLayout=stackLayout;horizontal=1;startSize=30;horizontalStack=0;resizeParent=1;resizeLast=0;collapsible=1;marginBottom=0;rounded=0;shadow=0;strokeWidth=1;" parent="ecw_OJBiE6QCDlSSsBEE-1" vertex="1">
          <mxGeometry x="-14360" y="-7800" width="280" height="244" as="geometry">
            <mxRectangle x="130" y="380" width="160" height="26" as="alternateBounds" />
          </mxGeometry>
        </mxCell>
        <mxCell id="ecw_OJBiE6QCDlSSsBEE-44" value="- departamento: String" style="text;align=left;verticalAlign=top;spacingLeft=4;spacingRight=4;overflow=hidden;rotatable=0;points=[[0,0.5],[1,0.5]];portConstraint=eastwest;rounded=0;shadow=0;html=0;" parent="ecw_OJBiE6QCDlSSsBEE-43" vertex="1">
          <mxGeometry y="30" width="280" height="26" as="geometry" />
        </mxCell>
        <mxCell id="ecw_OJBiE6QCDlSSsBEE-46" value="" style="line;html=1;strokeWidth=1;align=left;verticalAlign=middle;spacingTop=-1;spacingLeft=3;spacingRight=3;rotatable=0;labelPosition=right;points=[];portConstraint=eastwest;" parent="ecw_OJBiE6QCDlSSsBEE-43" vertex="1">
          <mxGeometry y="56" width="280" height="8" as="geometry" />
        </mxCell>
        <mxCell id="ecw_OJBiE6QCDlSSsBEE-47" value="+ Profesor(id: int, nombreUsuario: String, &#xa;contrasena: String, nombreCompleto: String, &#xa;departamento: String)" style="text;align=left;verticalAlign=top;spacingLeft=4;spacingRight=4;overflow=hidden;rotatable=0;points=[[0,0.5],[1,0.5]];portConstraint=eastwest;" parent="ecw_OJBiE6QCDlSSsBEE-43" vertex="1">
          <mxGeometry y="64" width="280" height="50" as="geometry" />
        </mxCell>
        <mxCell id="ecw_OJBiE6QCDlSSsBEE-48" value="+ getDepartamento(): String" style="text;align=left;verticalAlign=top;spacingLeft=4;spacingRight=4;overflow=hidden;rotatable=0;points=[[0,0.5],[1,0.5]];portConstraint=eastwest;rounded=0;shadow=0;html=0;" parent="ecw_OJBiE6QCDlSSsBEE-43" vertex="1">
          <mxGeometry y="114" width="280" height="26" as="geometry" />
        </mxCell>
        <mxCell id="ecw_OJBiE6QCDlSSsBEE-49" value="+ setDepartamento(departamento: String): void" style="text;align=left;verticalAlign=top;spacingLeft=4;spacingRight=4;overflow=hidden;rotatable=0;points=[[0,0.5],[1,0.5]];portConstraint=eastwest;rounded=0;shadow=0;html=0;" parent="ecw_OJBiE6QCDlSSsBEE-43" vertex="1">
          <mxGeometry y="140" width="280" height="26" as="geometry" />
        </mxCell>
        <mxCell id="tnHd-xGfJZXZhbbgQxCl-24" value="+ mostrarInformacion(): void" style="text;align=left;verticalAlign=top;spacingLeft=4;spacingRight=4;overflow=hidden;rotatable=0;points=[[0,0.5],[1,0.5]];portConstraint=eastwest;rounded=0;shadow=0;html=0;" parent="ecw_OJBiE6QCDlSSsBEE-43" vertex="1">
          <mxGeometry y="166" width="280" height="26" as="geometry" />
        </mxCell>
        <mxCell id="ecw_OJBiE6QCDlSSsBEE-52" style="edgeStyle=orthogonalEdgeStyle;shape=connector;curved=0;rounded=1;orthogonalLoop=1;jettySize=auto;html=1;strokeColor=#FF9933;strokeWidth=2;align=center;verticalAlign=middle;fontFamily=Helvetica;fontSize=11;fontColor=default;labelBackgroundColor=default;endArrow=block;endFill=0;endSize=16;" parent="ecw_OJBiE6QCDlSSsBEE-1" source="ecw_OJBiE6QCDlSSsBEE-53" target="ecw_OJBiE6QCDlSSsBEE-7" edge="1">
          <mxGeometry relative="1" as="geometry">
            <Array as="points">
              <mxPoint x="-14240" y="-7840" />
            </Array>
          </mxGeometry>
        </mxCell>
        <mxCell id="ecw_OJBiE6QCDlSSsBEE-53" value="Alumno" style="swimlane;fontStyle=0;align=center;verticalAlign=top;childLayout=stackLayout;horizontal=1;startSize=30;horizontalStack=0;resizeParent=1;resizeLast=0;collapsible=1;marginBottom=0;rounded=0;shadow=0;strokeWidth=1;" parent="ecw_OJBiE6QCDlSSsBEE-1" vertex="1">
          <mxGeometry x="-14400" y="-8160" width="280" height="296" as="geometry">
            <mxRectangle x="130" y="380" width="160" height="26" as="alternateBounds" />
          </mxGeometry>
        </mxCell>
        <mxCell id="ecw_OJBiE6QCDlSSsBEE-54" value="- carrera: String" style="text;align=left;verticalAlign=top;spacingLeft=4;spacingRight=4;overflow=hidden;rotatable=0;points=[[0,0.5],[1,0.5]];portConstraint=eastwest;rounded=0;shadow=0;html=0;" parent="ecw_OJBiE6QCDlSSsBEE-53" vertex="1">
          <mxGeometry y="30" width="280" height="26" as="geometry" />
        </mxCell>
        <mxCell id="ecw_OJBiE6QCDlSSsBEE-55" value="- codigoUniversitario: String" style="text;align=left;verticalAlign=top;spacingLeft=4;spacingRight=4;overflow=hidden;rotatable=0;points=[[0,0.5],[1,0.5]];portConstraint=eastwest;rounded=0;shadow=0;html=0;" parent="ecw_OJBiE6QCDlSSsBEE-53" vertex="1">
          <mxGeometry y="56" width="280" height="26" as="geometry" />
        </mxCell>
        <mxCell id="ecw_OJBiE6QCDlSSsBEE-56" value="" style="line;html=1;strokeWidth=1;align=left;verticalAlign=middle;spacingTop=-1;spacingLeft=3;spacingRight=3;rotatable=0;labelPosition=right;points=[];portConstraint=eastwest;" parent="ecw_OJBiE6QCDlSSsBEE-53" vertex="1">
          <mxGeometry y="82" width="280" height="8" as="geometry" />
        </mxCell>
        <mxCell id="ecw_OJBiE6QCDlSSsBEE-57" value="+ Alumno(id: int, nombreUsuario: String, &#xa;contrasena: String, &#xa;nombreCompleto: String, carrera: String)" style="text;align=left;verticalAlign=top;spacingLeft=4;spacingRight=4;overflow=hidden;rotatable=0;points=[[0,0.5],[1,0.5]];portConstraint=eastwest;" parent="ecw_OJBiE6QCDlSSsBEE-53" vertex="1">
          <mxGeometry y="90" width="280" height="50" as="geometry" />
        </mxCell>
        <mxCell id="ecw_OJBiE6QCDlSSsBEE-58" value="+ getCarrera(): String" style="text;align=left;verticalAlign=top;spacingLeft=4;spacingRight=4;overflow=hidden;rotatable=0;points=[[0,0.5],[1,0.5]];portConstraint=eastwest;rounded=0;shadow=0;html=0;" parent="ecw_OJBiE6QCDlSSsBEE-53" vertex="1">
          <mxGeometry y="140" width="280" height="26" as="geometry" />
        </mxCell>
        <mxCell id="ecw_OJBiE6QCDlSSsBEE-59" value="+ setCarrera(carrera: String): void" style="text;align=left;verticalAlign=top;spacingLeft=4;spacingRight=4;overflow=hidden;rotatable=0;points=[[0,0.5],[1,0.5]];portConstraint=eastwest;rounded=0;shadow=0;html=0;" parent="ecw_OJBiE6QCDlSSsBEE-53" vertex="1">
          <mxGeometry y="166" width="280" height="26" as="geometry" />
        </mxCell>
        <mxCell id="tnHd-xGfJZXZhbbgQxCl-22" value="+ getCodigoUniversitario(): String" style="text;align=left;verticalAlign=top;spacingLeft=4;spacingRight=4;overflow=hidden;rotatable=0;points=[[0,0.5],[1,0.5]];portConstraint=eastwest;rounded=0;shadow=0;html=0;" parent="ecw_OJBiE6QCDlSSsBEE-53" vertex="1">
          <mxGeometry y="192" width="280" height="26" as="geometry" />
        </mxCell>
        <mxCell id="tnHd-xGfJZXZhbbgQxCl-21" value="+ setCodigoUniversitario(carrera: String): void" style="text;align=left;verticalAlign=top;spacingLeft=4;spacingRight=4;overflow=hidden;rotatable=0;points=[[0,0.5],[1,0.5]];portConstraint=eastwest;rounded=0;shadow=0;html=0;" parent="ecw_OJBiE6QCDlSSsBEE-53" vertex="1">
          <mxGeometry y="218" width="280" height="26" as="geometry" />
        </mxCell>
        <mxCell id="tnHd-xGfJZXZhbbgQxCl-23" value="+ mostrarInformacion(): void" style="text;align=left;verticalAlign=top;spacingLeft=4;spacingRight=4;overflow=hidden;rotatable=0;points=[[0,0.5],[1,0.5]];portConstraint=eastwest;rounded=0;shadow=0;html=0;" parent="ecw_OJBiE6QCDlSSsBEE-53" vertex="1">
          <mxGeometry y="244" width="280" height="26" as="geometry" />
        </mxCell>
        <mxCell id="ecw_OJBiE6QCDlSSsBEE-79" value="&lt;&lt; abstract &gt;&gt;&#xa;Material" style="swimlane;fontStyle=2;align=center;verticalAlign=top;childLayout=stackLayout;horizontal=1;startSize=40;horizontalStack=0;resizeParent=1;resizeLast=0;collapsible=1;marginBottom=0;rounded=0;shadow=0;strokeWidth=1;fillColor=#fa6800;fontColor=#000000;strokeColor=#C73500;" parent="ecw_OJBiE6QCDlSSsBEE-1" vertex="1">
          <mxGeometry x="-15160" y="-7390" width="280" height="746" as="geometry">
            <mxRectangle x="720" y="827" width="160" height="26" as="alternateBounds" />
          </mxGeometry>
        </mxCell>
        <mxCell id="ecw_OJBiE6QCDlSSsBEE-80" value="# id: int" style="text;align=left;verticalAlign=top;spacingLeft=4;spacingRight=4;overflow=hidden;rotatable=0;points=[[0,0.5],[1,0.5]];portConstraint=eastwest;" parent="ecw_OJBiE6QCDlSSsBEE-79" vertex="1">
          <mxGeometry y="40" width="280" height="26" as="geometry" />
        </mxCell>
        <mxCell id="ecw_OJBiE6QCDlSSsBEE-81" value="# titulo: String" style="text;align=left;verticalAlign=top;spacingLeft=4;spacingRight=4;overflow=hidden;rotatable=0;points=[[0,0.5],[1,0.5]];portConstraint=eastwest;rounded=0;shadow=0;html=0;" parent="ecw_OJBiE6QCDlSSsBEE-79" vertex="1">
          <mxGeometry y="66" width="280" height="26" as="geometry" />
        </mxCell>
        <mxCell id="ecw_OJBiE6QCDlSSsBEE-82" value="# autor: String" style="text;align=left;verticalAlign=top;spacingLeft=4;spacingRight=4;overflow=hidden;rotatable=0;points=[[0,0.5],[1,0.5]];portConstraint=eastwest;rounded=0;shadow=0;html=0;" parent="ecw_OJBiE6QCDlSSsBEE-79" vertex="1">
          <mxGeometry y="92" width="280" height="26" as="geometry" />
        </mxCell>
        <mxCell id="ecw_OJBiE6QCDlSSsBEE-83" value="# anioPublicacion: int" style="text;align=left;verticalAlign=top;spacingLeft=4;spacingRight=4;overflow=hidden;rotatable=0;points=[[0,0.5],[1,0.5]];portConstraint=eastwest;rounded=0;shadow=0;html=0;" parent="ecw_OJBiE6QCDlSSsBEE-79" vertex="1">
          <mxGeometry y="118" width="280" height="26" as="geometry" />
        </mxCell>
        <mxCell id="ecw_OJBiE6QCDlSSsBEE-84" value="# descripcion: String" style="text;align=left;verticalAlign=top;spacingLeft=4;spacingRight=4;overflow=hidden;rotatable=0;points=[[0,0.5],[1,0.5]];portConstraint=eastwest;rounded=0;shadow=0;html=0;" parent="ecw_OJBiE6QCDlSSsBEE-79" vertex="1">
          <mxGeometry y="144" width="280" height="26" as="geometry" />
        </mxCell>
        <mxCell id="se7aEWiKqazrtZZNGl2T-8" value="# idioma: String" style="text;align=left;verticalAlign=top;spacingLeft=4;spacingRight=4;overflow=hidden;rotatable=0;points=[[0,0.5],[1,0.5]];portConstraint=eastwest;" parent="ecw_OJBiE6QCDlSSsBEE-79" vertex="1">
          <mxGeometry y="170" width="280" height="26" as="geometry" />
        </mxCell>
        <mxCell id="ecw_OJBiE6QCDlSSsBEE-85" value="# categoria: CategoriaMaterial" style="text;align=left;verticalAlign=top;spacingLeft=4;spacingRight=4;overflow=hidden;rotatable=0;points=[[0,0.5],[1,0.5]];portConstraint=eastwest;rounded=0;shadow=0;html=0;" parent="ecw_OJBiE6QCDlSSsBEE-79" vertex="1">
          <mxGeometry y="196" width="280" height="26" as="geometry" />
        </mxCell>
        <mxCell id="Io0mgiuXpja9gsjWtPNP-1" value="# cantidadDisponible: int" style="text;align=left;verticalAlign=top;spacingLeft=4;spacingRight=4;overflow=hidden;rotatable=0;points=[[0,0.5],[1,0.5]];portConstraint=eastwest;" vertex="1" parent="ecw_OJBiE6QCDlSSsBEE-79">
          <mxGeometry y="222" width="280" height="26" as="geometry" />
        </mxCell>
        <mxCell id="se7aEWiKqazrtZZNGl2T-9" value="# cantidadTotal: int" style="text;align=left;verticalAlign=top;spacingLeft=4;spacingRight=4;overflow=hidden;rotatable=0;points=[[0,0.5],[1,0.5]];portConstraint=eastwest;" parent="ecw_OJBiE6QCDlSSsBEE-79" vertex="1">
          <mxGeometry y="248" width="280" height="26" as="geometry" />
        </mxCell>
        <mxCell id="ecw_OJBiE6QCDlSSsBEE-86" value="" style="line;html=1;strokeWidth=1;align=left;verticalAlign=middle;spacingTop=-1;spacingLeft=3;spacingRight=3;rotatable=0;labelPosition=right;points=[];portConstraint=eastwest;" parent="ecw_OJBiE6QCDlSSsBEE-79" vertex="1">
          <mxGeometry y="274" width="280" height="8" as="geometry" />
        </mxCell>
        <mxCell id="ecw_OJBiE6QCDlSSsBEE-87" value="+ Material(id: int, titulo: String, autor: String, &#xa;anioPublicacion: int, categoria: CategoriaMaterial, &#xa;cantidadTotal: int)" style="text;align=left;verticalAlign=top;spacingLeft=4;spacingRight=4;overflow=hidden;rotatable=0;points=[[0,0.5],[1,0.5]];portConstraint=eastwest;fontStyle=2" parent="ecw_OJBiE6QCDlSSsBEE-79" vertex="1">
          <mxGeometry y="282" width="280" height="48" as="geometry" />
        </mxCell>
        <mxCell id="ecw_OJBiE6QCDlSSsBEE-88" value="+ getId(): int" style="text;align=left;verticalAlign=top;spacingLeft=4;spacingRight=4;overflow=hidden;rotatable=0;points=[[0,0.5],[1,0.5]];portConstraint=eastwest;rounded=0;shadow=0;html=0;fontStyle=0" parent="ecw_OJBiE6QCDlSSsBEE-79" vertex="1">
          <mxGeometry y="330" width="280" height="26" as="geometry" />
        </mxCell>
        <mxCell id="ecw_OJBiE6QCDlSSsBEE-89" value="+ getTitulo(): String" style="text;align=left;verticalAlign=top;spacingLeft=4;spacingRight=4;overflow=hidden;rotatable=0;points=[[0,0.5],[1,0.5]];portConstraint=eastwest;rounded=0;shadow=0;html=0;" parent="ecw_OJBiE6QCDlSSsBEE-79" vertex="1">
          <mxGeometry y="356" width="280" height="26" as="geometry" />
        </mxCell>
        <mxCell id="ecw_OJBiE6QCDlSSsBEE-90" value="+ getAutor(): String" style="text;align=left;verticalAlign=top;spacingLeft=4;spacingRight=4;overflow=hidden;rotatable=0;points=[[0,0.5],[1,0.5]];portConstraint=eastwest;rounded=0;shadow=0;html=0;" parent="ecw_OJBiE6QCDlSSsBEE-79" vertex="1">
          <mxGeometry y="382" width="280" height="26" as="geometry" />
        </mxCell>
        <mxCell id="ecw_OJBiE6QCDlSSsBEE-91" value="+ getAnioPublicacion(): int" style="text;align=left;verticalAlign=top;spacingLeft=4;spacingRight=4;overflow=hidden;rotatable=0;points=[[0,0.5],[1,0.5]];portConstraint=eastwest;rounded=0;shadow=0;html=0;" parent="ecw_OJBiE6QCDlSSsBEE-79" vertex="1">
          <mxGeometry y="408" width="280" height="26" as="geometry" />
        </mxCell>
        <mxCell id="Io0mgiuXpja9gsjWtPNP-2" value="+ getDescripcion(): String" style="text;align=left;verticalAlign=top;spacingLeft=4;spacingRight=4;overflow=hidden;rotatable=0;points=[[0,0.5],[1,0.5]];portConstraint=eastwest;rounded=0;shadow=0;html=0;" vertex="1" parent="ecw_OJBiE6QCDlSSsBEE-79">
          <mxGeometry y="434" width="280" height="26" as="geometry" />
        </mxCell>
        <mxCell id="Io0mgiuXpja9gsjWtPNP-3" value="+ getIdioma(): String" style="text;align=left;verticalAlign=top;spacingLeft=4;spacingRight=4;overflow=hidden;rotatable=0;points=[[0,0.5],[1,0.5]];portConstraint=eastwest;rounded=0;shadow=0;html=0;" vertex="1" parent="ecw_OJBiE6QCDlSSsBEE-79">
          <mxGeometry y="460" width="280" height="26" as="geometry" />
        </mxCell>
        <mxCell id="ecw_OJBiE6QCDlSSsBEE-93" value="+ getCategoria(): Categoria" style="text;align=left;verticalAlign=top;spacingLeft=4;spacingRight=4;overflow=hidden;rotatable=0;points=[[0,0.5],[1,0.5]];portConstraint=eastwest;rounded=0;shadow=0;html=0;" parent="ecw_OJBiE6QCDlSSsBEE-79" vertex="1">
          <mxGeometry y="486" width="280" height="26" as="geometry" />
        </mxCell>
        <mxCell id="ecw_OJBiE6QCDlSSsBEE-94" value="+ setId(id: int): void" style="text;align=left;verticalAlign=top;spacingLeft=4;spacingRight=4;overflow=hidden;rotatable=0;points=[[0,0.5],[1,0.5]];portConstraint=eastwest;rounded=0;shadow=0;html=0;" parent="ecw_OJBiE6QCDlSSsBEE-79" vertex="1">
          <mxGeometry y="512" width="280" height="26" as="geometry" />
        </mxCell>
        <mxCell id="ecw_OJBiE6QCDlSSsBEE-95" value="+ setTitulo(titulo: String): void" style="text;align=left;verticalAlign=top;spacingLeft=4;spacingRight=4;overflow=hidden;rotatable=0;points=[[0,0.5],[1,0.5]];portConstraint=eastwest;rounded=0;shadow=0;html=0;" parent="ecw_OJBiE6QCDlSSsBEE-79" vertex="1">
          <mxGeometry y="538" width="280" height="26" as="geometry" />
        </mxCell>
        <mxCell id="ecw_OJBiE6QCDlSSsBEE-96" value="+ setAutor(autor: String): void" style="text;align=left;verticalAlign=top;spacingLeft=4;spacingRight=4;overflow=hidden;rotatable=0;points=[[0,0.5],[1,0.5]];portConstraint=eastwest;rounded=0;shadow=0;html=0;" parent="ecw_OJBiE6QCDlSSsBEE-79" vertex="1">
          <mxGeometry y="564" width="280" height="26" as="geometry" />
        </mxCell>
        <mxCell id="ecw_OJBiE6QCDlSSsBEE-97" value="+ setAnioPublicacion(anioPublicacion: int): void" style="text;align=left;verticalAlign=top;spacingLeft=4;spacingRight=4;overflow=hidden;rotatable=0;points=[[0,0.5],[1,0.5]];portConstraint=eastwest;rounded=0;shadow=0;html=0;" parent="ecw_OJBiE6QCDlSSsBEE-79" vertex="1">
          <mxGeometry y="590" width="280" height="26" as="geometry" />
        </mxCell>
        <mxCell id="ecw_OJBiE6QCDlSSsBEE-98" value="+ setDisponible(disponible: boolean): void" style="text;align=left;verticalAlign=top;spacingLeft=4;spacingRight=4;overflow=hidden;rotatable=0;points=[[0,0.5],[1,0.5]];portConstraint=eastwest;rounded=0;shadow=0;html=0;" parent="ecw_OJBiE6QCDlSSsBEE-79" vertex="1">
          <mxGeometry y="616" width="280" height="26" as="geometry" />
        </mxCell>
        <mxCell id="ecw_OJBiE6QCDlSSsBEE-99" value="+ setCategoria(categoria: Categoria): void" style="text;align=left;verticalAlign=top;spacingLeft=4;spacingRight=4;overflow=hidden;rotatable=0;points=[[0,0.5],[1,0.5]];portConstraint=eastwest;rounded=0;shadow=0;html=0;" parent="ecw_OJBiE6QCDlSSsBEE-79" vertex="1">
          <mxGeometry y="642" width="280" height="26" as="geometry" />
        </mxCell>
        <mxCell id="ecw_OJBiE6QCDlSSsBEE-92" value="+ incrementarDisponible(cantidad:int): void" style="text;align=left;verticalAlign=top;spacingLeft=4;spacingRight=4;overflow=hidden;rotatable=0;points=[[0,0.5],[1,0.5]];portConstraint=eastwest;rounded=0;shadow=0;html=0;" parent="ecw_OJBiE6QCDlSSsBEE-79" vertex="1">
          <mxGeometry y="668" width="280" height="26" as="geometry" />
        </mxCell>
        <mxCell id="se7aEWiKqazrtZZNGl2T-10" value="+ decrementarDisponible(cantidad:int): void" style="text;align=left;verticalAlign=top;spacingLeft=4;spacingRight=4;overflow=hidden;rotatable=0;points=[[0,0.5],[1,0.5]];portConstraint=eastwest;rounded=0;shadow=0;html=0;" parent="ecw_OJBiE6QCDlSSsBEE-79" vertex="1">
          <mxGeometry y="694" width="280" height="26" as="geometry" />
        </mxCell>
        <mxCell id="ecw_OJBiE6QCDlSSsBEE-100" value="+ mostrarDetalles(): void" style="text;align=left;verticalAlign=top;spacingLeft=4;spacingRight=4;overflow=hidden;rotatable=0;points=[[0,0.5],[1,0.5]];portConstraint=eastwest;rounded=0;shadow=0;html=0;fontStyle=2" parent="ecw_OJBiE6QCDlSSsBEE-79" vertex="1">
          <mxGeometry y="720" width="280" height="26" as="geometry" />
        </mxCell>
        <mxCell id="w2-1c_2cRc1IGMD6rBRM-86" style="edgeStyle=orthogonalEdgeStyle;shape=connector;curved=0;rounded=1;orthogonalLoop=1;jettySize=auto;html=1;strokeColor=#FF9933;strokeWidth=2;align=center;verticalAlign=middle;fontFamily=Helvetica;fontSize=11;fontColor=default;labelBackgroundColor=default;endArrow=block;endFill=0;endSize=16;" parent="ecw_OJBiE6QCDlSSsBEE-1" source="ecw_OJBiE6QCDlSSsBEE-111" target="ecw_OJBiE6QCDlSSsBEE-79" edge="1">
          <mxGeometry relative="1" as="geometry">
            <Array as="points">
              <mxPoint x="-14590" y="-7032" />
            </Array>
          </mxGeometry>
        </mxCell>
        <mxCell id="ecw_OJBiE6QCDlSSsBEE-111" value="Libro" style="swimlane;fontStyle=0;align=center;verticalAlign=top;childLayout=stackLayout;horizontal=1;startSize=30;horizontalStack=0;resizeParent=1;resizeLast=0;collapsible=1;marginBottom=0;rounded=0;shadow=0;strokeWidth=1;" parent="ecw_OJBiE6QCDlSSsBEE-1" vertex="1">
          <mxGeometry x="-14820" y="-7380" width="280" height="322" as="geometry">
            <mxRectangle x="1070" y="1654" width="160" height="26" as="alternateBounds" />
          </mxGeometry>
        </mxCell>
        <mxCell id="ecw_OJBiE6QCDlSSsBEE-112" value="- isbn: String" style="text;align=left;verticalAlign=top;spacingLeft=4;spacingRight=4;overflow=hidden;rotatable=0;points=[[0,0.5],[1,0.5]];portConstraint=eastwest;rounded=0;shadow=0;html=0;" parent="ecw_OJBiE6QCDlSSsBEE-111" vertex="1">
          <mxGeometry y="30" width="280" height="26" as="geometry" />
        </mxCell>
        <mxCell id="ecw_OJBiE6QCDlSSsBEE-113" value="- editorial: String" style="text;align=left;verticalAlign=top;spacingLeft=4;spacingRight=4;overflow=hidden;rotatable=0;points=[[0,0.5],[1,0.5]];portConstraint=eastwest;rounded=0;shadow=0;html=0;" parent="ecw_OJBiE6QCDlSSsBEE-111" vertex="1">
          <mxGeometry y="56" width="280" height="26" as="geometry" />
        </mxCell>
        <mxCell id="Io0mgiuXpja9gsjWtPNP-4" value="- numeroPaginas: int" style="text;align=left;verticalAlign=top;spacingLeft=4;spacingRight=4;overflow=hidden;rotatable=0;points=[[0,0.5],[1,0.5]];portConstraint=eastwest;rounded=0;shadow=0;html=0;" vertex="1" parent="ecw_OJBiE6QCDlSSsBEE-111">
          <mxGeometry y="82" width="280" height="26" as="geometry" />
        </mxCell>
        <mxCell id="Io0mgiuXpja9gsjWtPNP-5" value="- genero: String" style="text;align=left;verticalAlign=top;spacingLeft=4;spacingRight=4;overflow=hidden;rotatable=0;points=[[0,0.5],[1,0.5]];portConstraint=eastwest;rounded=0;shadow=0;html=0;" vertex="1" parent="ecw_OJBiE6QCDlSSsBEE-111">
          <mxGeometry y="108" width="280" height="26" as="geometry" />
        </mxCell>
        <mxCell id="ecw_OJBiE6QCDlSSsBEE-114" value="" style="line;html=1;strokeWidth=1;align=left;verticalAlign=middle;spacingTop=-1;spacingLeft=3;spacingRight=3;rotatable=0;labelPosition=right;points=[];portConstraint=eastwest;" parent="ecw_OJBiE6QCDlSSsBEE-111" vertex="1">
          <mxGeometry y="134" width="280" height="8" as="geometry" />
        </mxCell>
        <mxCell id="ecw_OJBiE6QCDlSSsBEE-115" value="+ Libro(id: int, titulo: String, autor: String, &#xa;anioPublicacion: int, categoria: Categoria, &#xa;isbn: String, editorial: String)" style="text;align=left;verticalAlign=top;spacingLeft=4;spacingRight=4;overflow=hidden;rotatable=0;points=[[0,0.5],[1,0.5]];portConstraint=eastwest;" parent="ecw_OJBiE6QCDlSSsBEE-111" vertex="1">
          <mxGeometry y="142" width="280" height="50" as="geometry" />
        </mxCell>
        <mxCell id="ecw_OJBiE6QCDlSSsBEE-116" value="+ getIsbn(): String" style="text;align=left;verticalAlign=top;spacingLeft=4;spacingRight=4;overflow=hidden;rotatable=0;points=[[0,0.5],[1,0.5]];portConstraint=eastwest;rounded=0;shadow=0;html=0;" parent="ecw_OJBiE6QCDlSSsBEE-111" vertex="1">
          <mxGeometry y="192" width="280" height="26" as="geometry" />
        </mxCell>
        <mxCell id="ecw_OJBiE6QCDlSSsBEE-117" value="+ getEditorial(): String" style="text;align=left;verticalAlign=top;spacingLeft=4;spacingRight=4;overflow=hidden;rotatable=0;points=[[0,0.5],[1,0.5]];portConstraint=eastwest;rounded=0;shadow=0;html=0;" parent="ecw_OJBiE6QCDlSSsBEE-111" vertex="1">
          <mxGeometry y="218" width="280" height="26" as="geometry" />
        </mxCell>
        <mxCell id="ecw_OJBiE6QCDlSSsBEE-118" value="+ setIsbn(isbn: String): void" style="text;align=left;verticalAlign=top;spacingLeft=4;spacingRight=4;overflow=hidden;rotatable=0;points=[[0,0.5],[1,0.5]];portConstraint=eastwest;rounded=0;shadow=0;html=0;" parent="ecw_OJBiE6QCDlSSsBEE-111" vertex="1">
          <mxGeometry y="244" width="280" height="26" as="geometry" />
        </mxCell>
        <mxCell id="ecw_OJBiE6QCDlSSsBEE-119" value="+ setEditorial(editorial: String): void" style="text;align=left;verticalAlign=top;spacingLeft=4;spacingRight=4;overflow=hidden;rotatable=0;points=[[0,0.5],[1,0.5]];portConstraint=eastwest;rounded=0;shadow=0;html=0;" parent="ecw_OJBiE6QCDlSSsBEE-111" vertex="1">
          <mxGeometry y="270" width="280" height="26" as="geometry" />
        </mxCell>
        <mxCell id="ecw_OJBiE6QCDlSSsBEE-120" value="+ mostrarDetalles(): void" style="text;align=left;verticalAlign=top;spacingLeft=4;spacingRight=4;overflow=hidden;rotatable=0;points=[[0,0.5],[1,0.5]];portConstraint=eastwest;rounded=0;shadow=0;html=0;" parent="ecw_OJBiE6QCDlSSsBEE-111" vertex="1">
          <mxGeometry y="296" width="280" height="26" as="geometry" />
        </mxCell>
        <mxCell id="w2-1c_2cRc1IGMD6rBRM-90" style="edgeStyle=orthogonalEdgeStyle;shape=connector;curved=0;rounded=1;orthogonalLoop=1;jettySize=auto;html=1;strokeColor=#FF9933;strokeWidth=2;align=center;verticalAlign=middle;fontFamily=Helvetica;fontSize=11;fontColor=default;labelBackgroundColor=default;endArrow=block;endFill=0;endSize=16;" parent="ecw_OJBiE6QCDlSSsBEE-1" source="ecw_OJBiE6QCDlSSsBEE-125" target="ecw_OJBiE6QCDlSSsBEE-79" edge="1">
          <mxGeometry relative="1" as="geometry">
            <Array as="points">
              <mxPoint x="-14200" y="-7032" />
            </Array>
          </mxGeometry>
        </mxCell>
        <mxCell id="ecw_OJBiE6QCDlSSsBEE-125" value="Revista" style="swimlane;fontStyle=0;align=center;verticalAlign=top;childLayout=stackLayout;horizontal=1;startSize=30;horizontalStack=0;resizeParent=1;resizeLast=0;collapsible=1;marginBottom=0;rounded=0;shadow=0;strokeWidth=1;" parent="ecw_OJBiE6QCDlSSsBEE-1" vertex="1">
          <mxGeometry x="-14420" y="-6960" width="280" height="296" as="geometry">
            <mxRectangle x="1040" y="1870" width="160" height="26" as="alternateBounds" />
          </mxGeometry>
        </mxCell>
        <mxCell id="ecw_OJBiE6QCDlSSsBEE-127" value="- volumen: int" style="text;align=left;verticalAlign=top;spacingLeft=4;spacingRight=4;overflow=hidden;rotatable=0;points=[[0,0.5],[1,0.5]];portConstraint=eastwest;rounded=0;shadow=0;html=0;" parent="ecw_OJBiE6QCDlSSsBEE-125" vertex="1">
          <mxGeometry y="30" width="280" height="26" as="geometry" />
        </mxCell>
        <mxCell id="ecw_OJBiE6QCDlSSsBEE-126" value="- numeroEdicion: int" style="text;align=left;verticalAlign=top;spacingLeft=4;spacingRight=4;overflow=hidden;rotatable=0;points=[[0,0.5],[1,0.5]];portConstraint=eastwest;rounded=0;shadow=0;html=0;" parent="ecw_OJBiE6QCDlSSsBEE-125" vertex="1">
          <mxGeometry y="56" width="280" height="26" as="geometry" />
        </mxCell>
        <mxCell id="Io0mgiuXpja9gsjWtPNP-8" value="- fechaPublicacion: String" style="text;align=left;verticalAlign=top;spacingLeft=4;spacingRight=4;overflow=hidden;rotatable=0;points=[[0,0.5],[1,0.5]];portConstraint=eastwest;rounded=0;shadow=0;html=0;" vertex="1" parent="ecw_OJBiE6QCDlSSsBEE-125">
          <mxGeometry y="82" width="280" height="26" as="geometry" />
        </mxCell>
        <mxCell id="ecw_OJBiE6QCDlSSsBEE-128" value="" style="line;html=1;strokeWidth=1;align=left;verticalAlign=middle;spacingTop=-1;spacingLeft=3;spacingRight=3;rotatable=0;labelPosition=right;points=[];portConstraint=eastwest;" parent="ecw_OJBiE6QCDlSSsBEE-125" vertex="1">
          <mxGeometry y="108" width="280" height="8" as="geometry" />
        </mxCell>
        <mxCell id="ecw_OJBiE6QCDlSSsBEE-129" value="+ Revista(id: int, titulo: String, autor: String, &#xa;anioPublicacion: int, categoria: Categoria, &#xa;numero: int, volumen: int)" style="text;align=left;verticalAlign=top;spacingLeft=4;spacingRight=4;overflow=hidden;rotatable=0;points=[[0,0.5],[1,0.5]];portConstraint=eastwest;" parent="ecw_OJBiE6QCDlSSsBEE-125" vertex="1">
          <mxGeometry y="116" width="280" height="50" as="geometry" />
        </mxCell>
        <mxCell id="ecw_OJBiE6QCDlSSsBEE-130" value="+ getNumero(): int" style="text;align=left;verticalAlign=top;spacingLeft=4;spacingRight=4;overflow=hidden;rotatable=0;points=[[0,0.5],[1,0.5]];portConstraint=eastwest;rounded=0;shadow=0;html=0;" parent="ecw_OJBiE6QCDlSSsBEE-125" vertex="1">
          <mxGeometry y="166" width="280" height="26" as="geometry" />
        </mxCell>
        <mxCell id="ecw_OJBiE6QCDlSSsBEE-131" value="+ getVolumen(): int" style="text;align=left;verticalAlign=top;spacingLeft=4;spacingRight=4;overflow=hidden;rotatable=0;points=[[0,0.5],[1,0.5]];portConstraint=eastwest;rounded=0;shadow=0;html=0;" parent="ecw_OJBiE6QCDlSSsBEE-125" vertex="1">
          <mxGeometry y="192" width="280" height="26" as="geometry" />
        </mxCell>
        <mxCell id="ecw_OJBiE6QCDlSSsBEE-132" value="+ setNumero(numero: int): void" style="text;align=left;verticalAlign=top;spacingLeft=4;spacingRight=4;overflow=hidden;rotatable=0;points=[[0,0.5],[1,0.5]];portConstraint=eastwest;rounded=0;shadow=0;html=0;" parent="ecw_OJBiE6QCDlSSsBEE-125" vertex="1">
          <mxGeometry y="218" width="280" height="26" as="geometry" />
        </mxCell>
        <mxCell id="ecw_OJBiE6QCDlSSsBEE-133" value="+ setVolumen(volumen: int): void" style="text;align=left;verticalAlign=top;spacingLeft=4;spacingRight=4;overflow=hidden;rotatable=0;points=[[0,0.5],[1,0.5]];portConstraint=eastwest;rounded=0;shadow=0;html=0;" parent="ecw_OJBiE6QCDlSSsBEE-125" vertex="1">
          <mxGeometry y="244" width="280" height="26" as="geometry" />
        </mxCell>
        <mxCell id="ecw_OJBiE6QCDlSSsBEE-134" value="+ mostrarDetalles(): void" style="text;align=left;verticalAlign=top;spacingLeft=4;spacingRight=4;overflow=hidden;rotatable=0;points=[[0,0.5],[1,0.5]];portConstraint=eastwest;rounded=0;shadow=0;html=0;" parent="ecw_OJBiE6QCDlSSsBEE-125" vertex="1">
          <mxGeometry y="270" width="280" height="26" as="geometry" />
        </mxCell>
        <mxCell id="w2-1c_2cRc1IGMD6rBRM-87" style="edgeStyle=orthogonalEdgeStyle;shape=connector;curved=0;rounded=1;orthogonalLoop=1;jettySize=auto;html=1;strokeColor=#FF9933;strokeWidth=2;align=center;verticalAlign=middle;fontFamily=Helvetica;fontSize=11;fontColor=default;labelBackgroundColor=default;endArrow=block;endFill=0;endSize=16;" parent="ecw_OJBiE6QCDlSSsBEE-1" source="ecw_OJBiE6QCDlSSsBEE-139" target="ecw_OJBiE6QCDlSSsBEE-79" edge="1">
          <mxGeometry relative="1" as="geometry">
            <Array as="points">
              <mxPoint x="-14200" y="-7032" />
            </Array>
          </mxGeometry>
        </mxCell>
        <mxCell id="ecw_OJBiE6QCDlSSsBEE-139" value="Tesis" style="swimlane;fontStyle=0;align=center;verticalAlign=top;childLayout=stackLayout;horizontal=1;startSize=30;horizontalStack=0;resizeParent=1;resizeLast=0;collapsible=1;marginBottom=0;rounded=0;shadow=0;strokeWidth=1;" parent="ecw_OJBiE6QCDlSSsBEE-1" vertex="1">
          <mxGeometry x="-14420" y="-7360" width="280" height="282" as="geometry">
            <mxRectangle x="1070" y="1300" width="160" height="26" as="alternateBounds" />
          </mxGeometry>
        </mxCell>
        <mxCell id="ecw_OJBiE6QCDlSSsBEE-140" value="- gradoAcademico: String" style="text;align=left;verticalAlign=top;spacingLeft=4;spacingRight=4;overflow=hidden;rotatable=0;points=[[0,0.5],[1,0.5]];portConstraint=eastwest;rounded=0;shadow=0;html=0;" parent="ecw_OJBiE6QCDlSSsBEE-139" vertex="1">
          <mxGeometry y="30" width="280" height="26" as="geometry" />
        </mxCell>
        <mxCell id="ecw_OJBiE6QCDlSSsBEE-141" value="- universidad: String" style="text;align=left;verticalAlign=top;spacingLeft=4;spacingRight=4;overflow=hidden;rotatable=0;points=[[0,0.5],[1,0.5]];portConstraint=eastwest;rounded=0;shadow=0;html=0;" parent="ecw_OJBiE6QCDlSSsBEE-139" vertex="1">
          <mxGeometry y="56" width="280" height="26" as="geometry" />
        </mxCell>
        <mxCell id="ecw_OJBiE6QCDlSSsBEE-142" value="" style="line;html=1;strokeWidth=1;align=left;verticalAlign=middle;spacingTop=-1;spacingLeft=3;spacingRight=3;rotatable=0;labelPosition=right;points=[];portConstraint=eastwest;" parent="ecw_OJBiE6QCDlSSsBEE-139" vertex="1">
          <mxGeometry y="82" width="280" height="8" as="geometry" />
        </mxCell>
        <mxCell id="ecw_OJBiE6QCDlSSsBEE-143" value="+ Tesis(id: int, titulo: String, autor: String, &#xa;anioPublicacion: int, categoria: Categoria, &#xa;gradoAcademico: String, universidad: String)" style="text;align=left;verticalAlign=top;spacingLeft=4;spacingRight=4;overflow=hidden;rotatable=0;points=[[0,0.5],[1,0.5]];portConstraint=eastwest;" parent="ecw_OJBiE6QCDlSSsBEE-139" vertex="1">
          <mxGeometry y="90" width="280" height="50" as="geometry" />
        </mxCell>
        <mxCell id="ecw_OJBiE6QCDlSSsBEE-144" value="+ getGradoAcademico(): String" style="text;align=left;verticalAlign=top;spacingLeft=4;spacingRight=4;overflow=hidden;rotatable=0;points=[[0,0.5],[1,0.5]];portConstraint=eastwest;rounded=0;shadow=0;html=0;" parent="ecw_OJBiE6QCDlSSsBEE-139" vertex="1">
          <mxGeometry y="140" width="280" height="26" as="geometry" />
        </mxCell>
        <mxCell id="ecw_OJBiE6QCDlSSsBEE-145" value="+ getUniversidad(): String" style="text;align=left;verticalAlign=top;spacingLeft=4;spacingRight=4;overflow=hidden;rotatable=0;points=[[0,0.5],[1,0.5]];portConstraint=eastwest;rounded=0;shadow=0;html=0;" parent="ecw_OJBiE6QCDlSSsBEE-139" vertex="1">
          <mxGeometry y="166" width="280" height="26" as="geometry" />
        </mxCell>
        <mxCell id="ecw_OJBiE6QCDlSSsBEE-146" value="+ setGradoAcademico(gradoAcademico: String): &#xa;void" style="text;align=left;verticalAlign=top;spacingLeft=4;spacingRight=4;overflow=hidden;rotatable=0;points=[[0,0.5],[1,0.5]];portConstraint=eastwest;rounded=0;shadow=0;html=0;" parent="ecw_OJBiE6QCDlSSsBEE-139" vertex="1">
          <mxGeometry y="192" width="280" height="38" as="geometry" />
        </mxCell>
        <mxCell id="ecw_OJBiE6QCDlSSsBEE-147" value="+ setUniversidad(universidad: String): void" style="text;align=left;verticalAlign=top;spacingLeft=4;spacingRight=4;overflow=hidden;rotatable=0;points=[[0,0.5],[1,0.5]];portConstraint=eastwest;rounded=0;shadow=0;html=0;" parent="ecw_OJBiE6QCDlSSsBEE-139" vertex="1">
          <mxGeometry y="230" width="280" height="26" as="geometry" />
        </mxCell>
        <mxCell id="ecw_OJBiE6QCDlSSsBEE-148" value="+ mostrarDetalles(): void" style="text;align=left;verticalAlign=top;spacingLeft=4;spacingRight=4;overflow=hidden;rotatable=0;points=[[0,0.5],[1,0.5]];portConstraint=eastwest;rounded=0;shadow=0;html=0;" parent="ecw_OJBiE6QCDlSSsBEE-139" vertex="1">
          <mxGeometry y="256" width="280" height="26" as="geometry" />
        </mxCell>
        <mxCell id="w2-1c_2cRc1IGMD6rBRM-93" style="edgeStyle=orthogonalEdgeStyle;shape=connector;curved=0;rounded=1;orthogonalLoop=1;jettySize=auto;html=1;strokeColor=#FF9933;strokeWidth=2;align=center;verticalAlign=middle;fontFamily=Helvetica;fontSize=11;fontColor=default;labelBackgroundColor=default;endArrow=block;endFill=0;endSize=16;" parent="ecw_OJBiE6QCDlSSsBEE-1" source="ecw_OJBiE6QCDlSSsBEE-168" target="se7aEWiKqazrtZZNGl2T-44" edge="1">
          <mxGeometry relative="1" as="geometry">
            <Array as="points">
              <mxPoint x="-14590" y="-6206" />
            </Array>
          </mxGeometry>
        </mxCell>
        <mxCell id="ecw_OJBiE6QCDlSSsBEE-168" value="PC" style="swimlane;fontStyle=0;align=center;verticalAlign=top;childLayout=stackLayout;horizontal=1;startSize=30;horizontalStack=0;resizeParent=1;resizeLast=0;collapsible=1;marginBottom=0;rounded=0;shadow=0;strokeWidth=1;" parent="ecw_OJBiE6QCDlSSsBEE-1" vertex="1">
          <mxGeometry x="-14820" y="-6170" width="280" height="338" as="geometry">
            <mxRectangle x="-10" y="2170" width="160" height="26" as="alternateBounds" />
          </mxGeometry>
        </mxCell>
        <mxCell id="tnHd-xGfJZXZhbbgQxCl-25" value="- sistemaOperativo: String" style="text;align=left;verticalAlign=top;spacingLeft=4;spacingRight=4;overflow=hidden;rotatable=0;points=[[0,0.5],[1,0.5]];portConstraint=eastwest;rounded=0;shadow=0;html=0;" parent="ecw_OJBiE6QCDlSSsBEE-168" vertex="1">
          <mxGeometry y="30" width="280" height="26" as="geometry" />
        </mxCell>
        <mxCell id="ecw_OJBiE6QCDlSSsBEE-169" value="- especificaciones: String" style="text;align=left;verticalAlign=top;spacingLeft=4;spacingRight=4;overflow=hidden;rotatable=0;points=[[0,0.5],[1,0.5]];portConstraint=eastwest;rounded=0;shadow=0;html=0;" parent="ecw_OJBiE6QCDlSSsBEE-168" vertex="1">
          <mxGeometry y="56" width="280" height="26" as="geometry" />
        </mxCell>
        <mxCell id="ecw_OJBiE6QCDlSSsBEE-171" value="" style="line;html=1;strokeWidth=1;align=left;verticalAlign=middle;spacingTop=-1;spacingLeft=3;spacingRight=3;rotatable=0;labelPosition=right;points=[];portConstraint=eastwest;" parent="ecw_OJBiE6QCDlSSsBEE-168" vertex="1">
          <mxGeometry y="82" width="280" height="8" as="geometry" />
        </mxCell>
        <mxCell id="ecw_OJBiE6QCDlSSsBEE-172" value="+ PC(int id, String codigo, String ubicacion,   &#xa; TipoRecurso tipo, String sistemaOperativo, &#xa;String especificaciones)" style="text;align=left;verticalAlign=top;spacingLeft=4;spacingRight=4;overflow=hidden;rotatable=0;points=[[0,0.5],[1,0.5]];portConstraint=eastwest;" parent="ecw_OJBiE6QCDlSSsBEE-168" vertex="1">
          <mxGeometry y="90" width="280" height="50" as="geometry" />
        </mxCell>
        <mxCell id="ecw_OJBiE6QCDlSSsBEE-173" value="+ getSistemaOperativo(): String" style="text;align=left;verticalAlign=top;spacingLeft=4;spacingRight=4;overflow=hidden;rotatable=0;points=[[0,0.5],[1,0.5]];portConstraint=eastwest;rounded=0;shadow=0;html=0;" parent="ecw_OJBiE6QCDlSSsBEE-168" vertex="1">
          <mxGeometry y="140" width="280" height="26" as="geometry" />
        </mxCell>
        <mxCell id="ecw_OJBiE6QCDlSSsBEE-174" value="+ getEspecificaciones(): int" style="text;align=left;verticalAlign=top;spacingLeft=4;spacingRight=4;overflow=hidden;rotatable=0;points=[[0,0.5],[1,0.5]];portConstraint=eastwest;rounded=0;shadow=0;html=0;" parent="ecw_OJBiE6QCDlSSsBEE-168" vertex="1">
          <mxGeometry y="166" width="280" height="26" as="geometry" />
        </mxCell>
        <mxCell id="ecw_OJBiE6QCDlSSsBEE-175" value="+ setsISistemaOperativo(): void" style="text;align=left;verticalAlign=top;spacingLeft=4;spacingRight=4;overflow=hidden;rotatable=0;points=[[0,0.5],[1,0.5]];portConstraint=eastwest;rounded=0;shadow=0;html=0;" parent="ecw_OJBiE6QCDlSSsBEE-168" vertex="1">
          <mxGeometry y="192" width="280" height="26" as="geometry" />
        </mxCell>
        <mxCell id="ecw_OJBiE6QCDlSSsBEE-176" value="+ setEspecificaciones(): void" style="text;align=left;verticalAlign=top;spacingLeft=4;spacingRight=4;overflow=hidden;rotatable=0;points=[[0,0.5],[1,0.5]];portConstraint=eastwest;rounded=0;shadow=0;html=0;" parent="ecw_OJBiE6QCDlSSsBEE-168" vertex="1">
          <mxGeometry y="218" width="280" height="26" as="geometry" />
        </mxCell>
        <mxCell id="se7aEWiKqazrtZZNGl2T-70" value="+ mostrarDetalles(): void" style="text;align=left;verticalAlign=top;spacingLeft=4;spacingRight=4;overflow=hidden;rotatable=0;points=[[0,0.5],[1,0.5]];portConstraint=eastwest;rounded=0;shadow=0;html=0;" parent="ecw_OJBiE6QCDlSSsBEE-168" vertex="1">
          <mxGeometry y="244" width="280" height="26" as="geometry" />
        </mxCell>
        <mxCell id="w2-1c_2cRc1IGMD6rBRM-92" style="edgeStyle=orthogonalEdgeStyle;shape=connector;curved=0;rounded=1;orthogonalLoop=1;jettySize=auto;html=1;strokeColor=#FF9933;strokeWidth=2;align=center;verticalAlign=middle;fontFamily=Helvetica;fontSize=11;fontColor=default;labelBackgroundColor=default;endArrow=block;endFill=0;endSize=16;" parent="ecw_OJBiE6QCDlSSsBEE-1" source="ecw_OJBiE6QCDlSSsBEE-182" target="se7aEWiKqazrtZZNGl2T-44" edge="1">
          <mxGeometry relative="1" as="geometry">
            <Array as="points">
              <mxPoint x="-14480" y="-6206" />
              <mxPoint x="-14480" y="-6206" />
            </Array>
          </mxGeometry>
        </mxCell>
        <mxCell id="ecw_OJBiE6QCDlSSsBEE-182" value="Tableta" style="swimlane;fontStyle=0;align=center;verticalAlign=top;childLayout=stackLayout;horizontal=1;startSize=30;horizontalStack=0;resizeParent=1;resizeLast=0;collapsible=1;marginBottom=0;rounded=0;shadow=0;strokeWidth=1;" parent="ecw_OJBiE6QCDlSSsBEE-1" vertex="1">
          <mxGeometry x="-14420" y="-6520" width="280" height="368" as="geometry">
            <mxRectangle x="380" y="2170" width="160" height="26" as="alternateBounds" />
          </mxGeometry>
        </mxCell>
        <mxCell id="ecw_OJBiE6QCDlSSsBEE-183" value="- marca: String" style="text;align=left;verticalAlign=top;spacingLeft=4;spacingRight=4;overflow=hidden;rotatable=0;points=[[0,0.5],[1,0.5]];portConstraint=eastwest;rounded=0;shadow=0;html=0;" parent="ecw_OJBiE6QCDlSSsBEE-182" vertex="1">
          <mxGeometry y="30" width="280" height="26" as="geometry" />
        </mxCell>
        <mxCell id="se7aEWiKqazrtZZNGl2T-71" value="- modelo: String" style="text;align=left;verticalAlign=top;spacingLeft=4;spacingRight=4;overflow=hidden;rotatable=0;points=[[0,0.5],[1,0.5]];portConstraint=eastwest;rounded=0;shadow=0;html=0;" parent="ecw_OJBiE6QCDlSSsBEE-182" vertex="1">
          <mxGeometry y="56" width="280" height="26" as="geometry" />
        </mxCell>
        <mxCell id="ecw_OJBiE6QCDlSSsBEE-185" value="" style="line;html=1;strokeWidth=1;align=left;verticalAlign=middle;spacingTop=-1;spacingLeft=3;spacingRight=3;rotatable=0;labelPosition=right;points=[];portConstraint=eastwest;" parent="ecw_OJBiE6QCDlSSsBEE-182" vertex="1">
          <mxGeometry y="82" width="280" height="8" as="geometry" />
        </mxCell>
        <mxCell id="ecw_OJBiE6QCDlSSsBEE-186" value="+ Tableta(id: int, marca: String, codigo: String, &#xa;ubicacion: String, modelo: String, )" style="text;align=left;verticalAlign=top;spacingLeft=4;spacingRight=4;overflow=hidden;rotatable=0;points=[[0,0.5],[1,0.5]];portConstraint=eastwest;rounded=0;shadow=0;html=0;" parent="ecw_OJBiE6QCDlSSsBEE-182" vertex="1">
          <mxGeometry y="90" width="280" height="38" as="geometry" />
        </mxCell>
        <mxCell id="ecw_OJBiE6QCDlSSsBEE-187" value="+ getMarca(): String" style="text;align=left;verticalAlign=top;spacingLeft=4;spacingRight=4;overflow=hidden;rotatable=0;points=[[0,0.5],[1,0.5]];portConstraint=eastwest;" parent="ecw_OJBiE6QCDlSSsBEE-182" vertex="1">
          <mxGeometry y="128" width="280" height="26" as="geometry" />
        </mxCell>
        <mxCell id="se7aEWiKqazrtZZNGl2T-73" value="+ getModelo(): String" style="text;align=left;verticalAlign=top;spacingLeft=4;spacingRight=4;overflow=hidden;rotatable=0;points=[[0,0.5],[1,0.5]];portConstraint=eastwest;" parent="ecw_OJBiE6QCDlSSsBEE-182" vertex="1">
          <mxGeometry y="154" width="280" height="26" as="geometry" />
        </mxCell>
        <mxCell id="ecw_OJBiE6QCDlSSsBEE-188" value="+ getTamanoPantallaPulgadas(): int" style="text;align=left;verticalAlign=top;spacingLeft=4;spacingRight=4;overflow=hidden;rotatable=0;points=[[0,0.5],[1,0.5]];portConstraint=eastwest;rounded=0;shadow=0;html=0;" parent="ecw_OJBiE6QCDlSSsBEE-182" vertex="1">
          <mxGeometry y="180" width="280" height="26" as="geometry" />
        </mxCell>
        <mxCell id="ecw_OJBiE6QCDlSSsBEE-189" value="+ setMarca(marca: String): void" style="text;align=left;verticalAlign=top;spacingLeft=4;spacingRight=4;overflow=hidden;rotatable=0;points=[[0,0.5],[1,0.5]];portConstraint=eastwest;rounded=0;shadow=0;html=0;" parent="ecw_OJBiE6QCDlSSsBEE-182" vertex="1">
          <mxGeometry y="206" width="280" height="22" as="geometry" />
        </mxCell>
        <mxCell id="se7aEWiKqazrtZZNGl2T-74" value="+ setModelo(modelo: String): void" style="text;align=left;verticalAlign=top;spacingLeft=4;spacingRight=4;overflow=hidden;rotatable=0;points=[[0,0.5],[1,0.5]];portConstraint=eastwest;rounded=0;shadow=0;html=0;" parent="ecw_OJBiE6QCDlSSsBEE-182" vertex="1">
          <mxGeometry y="228" width="280" height="22" as="geometry" />
        </mxCell>
        <mxCell id="ecw_OJBiE6QCDlSSsBEE-190" value="+ setTamanoPantallaPulgadas(&#xa;tamanoPantallaPulgadas: int): void" style="text;align=left;verticalAlign=top;spacingLeft=4;spacingRight=4;overflow=hidden;rotatable=0;points=[[0,0.5],[1,0.5]];portConstraint=eastwest;rounded=0;shadow=0;html=0;" parent="ecw_OJBiE6QCDlSSsBEE-182" vertex="1">
          <mxGeometry y="250" width="280" height="40" as="geometry" />
        </mxCell>
        <mxCell id="ecw_OJBiE6QCDlSSsBEE-192" value="+ mostrarDetalles(): void" style="text;align=left;verticalAlign=top;spacingLeft=4;spacingRight=4;overflow=hidden;rotatable=0;points=[[0,0.5],[1,0.5]];portConstraint=eastwest;rounded=0;shadow=0;html=0;" parent="ecw_OJBiE6QCDlSSsBEE-182" vertex="1">
          <mxGeometry y="290" width="280" height="26" as="geometry" />
        </mxCell>
        <mxCell id="w2-1c_2cRc1IGMD6rBRM-91" style="edgeStyle=orthogonalEdgeStyle;shape=connector;curved=0;rounded=1;orthogonalLoop=1;jettySize=auto;html=1;strokeColor=#FF9933;strokeWidth=2;align=center;verticalAlign=middle;fontFamily=Helvetica;fontSize=11;fontColor=default;labelBackgroundColor=default;endArrow=block;endFill=0;endSize=16;" parent="ecw_OJBiE6QCDlSSsBEE-1" source="ecw_OJBiE6QCDlSSsBEE-196" target="se7aEWiKqazrtZZNGl2T-44" edge="1">
          <mxGeometry relative="1" as="geometry">
            <Array as="points">
              <mxPoint x="-14590" y="-6206" />
            </Array>
          </mxGeometry>
        </mxCell>
        <mxCell id="ecw_OJBiE6QCDlSSsBEE-196" value="SalaEstudio" style="swimlane;fontStyle=0;align=center;verticalAlign=top;childLayout=stackLayout;horizontal=1;startSize=30;horizontalStack=0;resizeParent=1;resizeLast=0;collapsible=1;marginBottom=0;rounded=0;shadow=0;strokeWidth=1;" parent="ecw_OJBiE6QCDlSSsBEE-1" vertex="1">
          <mxGeometry x="-14820" y="-6520" width="280" height="272" as="geometry">
            <mxRectangle x="-480" y="1800" width="160" height="26" as="alternateBounds" />
          </mxGeometry>
        </mxCell>
        <mxCell id="ecw_OJBiE6QCDlSSsBEE-197" value="- capacidadMaxima: int" style="text;align=left;verticalAlign=top;spacingLeft=4;spacingRight=4;overflow=hidden;rotatable=0;points=[[0,0.5],[1,0.5]];portConstraint=eastwest;rounded=0;shadow=0;html=0;" parent="ecw_OJBiE6QCDlSSsBEE-196" vertex="1">
          <mxGeometry y="30" width="280" height="26" as="geometry" />
        </mxCell>
        <mxCell id="ecw_OJBiE6QCDlSSsBEE-198" value="- capacidadActual: int" style="text;align=left;verticalAlign=top;spacingLeft=4;spacingRight=4;overflow=hidden;rotatable=0;points=[[0,0.5],[1,0.5]];portConstraint=eastwest;rounded=0;shadow=0;html=0;" parent="ecw_OJBiE6QCDlSSsBEE-196" vertex="1">
          <mxGeometry y="56" width="280" height="26" as="geometry" />
        </mxCell>
        <mxCell id="ecw_OJBiE6QCDlSSsBEE-199" value="" style="line;html=1;strokeWidth=1;align=left;verticalAlign=middle;spacingTop=-1;spacingLeft=3;spacingRight=3;rotatable=0;labelPosition=right;points=[];portConstraint=eastwest;" parent="ecw_OJBiE6QCDlSSsBEE-196" vertex="1">
          <mxGeometry y="82" width="280" height="8" as="geometry" />
        </mxCell>
        <mxCell id="ecw_OJBiE6QCDlSSsBEE-200" value="+ SalaEstudio(id: int, ubicacion: String, &#xa;capacidadMaxima: int, capacidadActual: int)" style="text;align=left;verticalAlign=top;spacingLeft=4;spacingRight=4;overflow=hidden;rotatable=0;points=[[0,0.5],[1,0.5]];portConstraint=eastwest;" parent="ecw_OJBiE6QCDlSSsBEE-196" vertex="1">
          <mxGeometry y="90" width="280" height="40" as="geometry" />
        </mxCell>
        <mxCell id="ecw_OJBiE6QCDlSSsBEE-201" value="+ getCapacidadMaxima(): int" style="text;align=left;verticalAlign=top;spacingLeft=4;spacingRight=4;overflow=hidden;rotatable=0;points=[[0,0.5],[1,0.5]];portConstraint=eastwest;rounded=0;shadow=0;html=0;" parent="ecw_OJBiE6QCDlSSsBEE-196" vertex="1">
          <mxGeometry y="130" width="280" height="26" as="geometry" />
        </mxCell>
        <mxCell id="ecw_OJBiE6QCDlSSsBEE-202" value="+ getNumeroSala(): int" style="text;align=left;verticalAlign=top;spacingLeft=4;spacingRight=4;overflow=hidden;rotatable=0;points=[[0,0.5],[1,0.5]];portConstraint=eastwest;rounded=0;shadow=0;html=0;" parent="ecw_OJBiE6QCDlSSsBEE-196" vertex="1">
          <mxGeometry y="156" width="280" height="26" as="geometry" />
        </mxCell>
        <mxCell id="ecw_OJBiE6QCDlSSsBEE-203" value="+ setCapacidadMaxima(capacidadMaxima: int): &#xa;void" style="text;align=left;verticalAlign=top;spacingLeft=4;spacingRight=4;overflow=hidden;rotatable=0;points=[[0,0.5],[1,0.5]];portConstraint=eastwest;rounded=0;shadow=0;html=0;" parent="ecw_OJBiE6QCDlSSsBEE-196" vertex="1">
          <mxGeometry y="182" width="280" height="38" as="geometry" />
        </mxCell>
        <mxCell id="ecw_OJBiE6QCDlSSsBEE-204" value="+ setCapacidadActual(numeroSala: String): void" style="text;align=left;verticalAlign=top;spacingLeft=4;spacingRight=4;overflow=hidden;rotatable=0;points=[[0,0.5],[1,0.5]];portConstraint=eastwest;rounded=0;shadow=0;html=0;" parent="ecw_OJBiE6QCDlSSsBEE-196" vertex="1">
          <mxGeometry y="220" width="280" height="26" as="geometry" />
        </mxCell>
        <mxCell id="ecw_OJBiE6QCDlSSsBEE-208" value="+ mostrarDetalles(): void" style="text;align=left;verticalAlign=top;spacingLeft=4;spacingRight=4;overflow=hidden;rotatable=0;points=[[0,0.5],[1,0.5]];portConstraint=eastwest;rounded=0;shadow=0;html=0;" parent="ecw_OJBiE6QCDlSSsBEE-196" vertex="1">
          <mxGeometry y="246" width="280" height="26" as="geometry" />
        </mxCell>
        <mxCell id="ecw_OJBiE6QCDlSSsBEE-209" value="&lt;&lt; abstract &gt;&gt;&#xa;PrestamoBase" style="swimlane;fontStyle=2;align=center;verticalAlign=top;childLayout=stackLayout;horizontal=1;startSize=39;horizontalStack=0;resizeParent=1;resizeLast=0;collapsible=1;marginBottom=0;rounded=0;shadow=0;strokeWidth=1;fillColor=#fa6800;fontColor=#000000;strokeColor=#C73500;" parent="ecw_OJBiE6QCDlSSsBEE-1" vertex="1">
          <mxGeometry x="-13640" y="-7360" width="280" height="643" as="geometry">
            <mxRectangle x="130" y="380" width="160" height="26" as="alternateBounds" />
          </mxGeometry>
        </mxCell>
        <mxCell id="ecw_OJBiE6QCDlSSsBEE-210" value="- id: int" style="text;align=left;verticalAlign=top;spacingLeft=4;spacingRight=4;overflow=hidden;rotatable=0;points=[[0,0.5],[1,0.5]];portConstraint=eastwest;rounded=0;shadow=0;html=0;" parent="ecw_OJBiE6QCDlSSsBEE-209" vertex="1">
          <mxGeometry y="39" width="280" height="26" as="geometry" />
        </mxCell>
        <mxCell id="ecw_OJBiE6QCDlSSsBEE-211" value="- usuario: Usuario" style="text;align=left;verticalAlign=top;spacingLeft=4;spacingRight=4;overflow=hidden;rotatable=0;points=[[0,0.5],[1,0.5]];portConstraint=eastwest;rounded=0;shadow=0;html=0;" parent="ecw_OJBiE6QCDlSSsBEE-209" vertex="1">
          <mxGeometry y="65" width="280" height="26" as="geometry" />
        </mxCell>
        <mxCell id="ecw_OJBiE6QCDlSSsBEE-213" value="- fechaPrestamo: LocalDate" style="text;align=left;verticalAlign=top;spacingLeft=4;spacingRight=4;overflow=hidden;rotatable=0;points=[[0,0.5],[1,0.5]];portConstraint=eastwest;rounded=0;shadow=0;html=0;" parent="ecw_OJBiE6QCDlSSsBEE-209" vertex="1">
          <mxGeometry y="91" width="280" height="26" as="geometry" />
        </mxCell>
        <mxCell id="ecw_OJBiE6QCDlSSsBEE-214" value="- fechaDevolucionPrevista: LocalDate" style="text;align=left;verticalAlign=top;spacingLeft=4;spacingRight=4;overflow=hidden;rotatable=0;points=[[0,0.5],[1,0.5]];portConstraint=eastwest;rounded=0;shadow=0;html=0;" parent="ecw_OJBiE6QCDlSSsBEE-209" vertex="1">
          <mxGeometry y="117" width="280" height="26" as="geometry" />
        </mxCell>
        <mxCell id="ecw_OJBiE6QCDlSSsBEE-215" value="- fechaDevolucionReal: LocalDate" style="text;align=left;verticalAlign=top;spacingLeft=4;spacingRight=4;overflow=hidden;rotatable=0;points=[[0,0.5],[1,0.5]];portConstraint=eastwest;rounded=0;shadow=0;html=0;" parent="ecw_OJBiE6QCDlSSsBEE-209" vertex="1">
          <mxGeometry y="143" width="280" height="26" as="geometry" />
        </mxCell>
        <mxCell id="ecw_OJBiE6QCDlSSsBEE-217" value="- extendido: boolean" style="text;align=left;verticalAlign=top;spacingLeft=4;spacingRight=4;overflow=hidden;rotatable=0;points=[[0,0.5],[1,0.5]];portConstraint=eastwest;rounded=0;shadow=0;html=0;" parent="ecw_OJBiE6QCDlSSsBEE-209" vertex="1">
          <mxGeometry y="169" width="280" height="26" as="geometry" />
        </mxCell>
        <mxCell id="ecw_OJBiE6QCDlSSsBEE-219" value="" style="line;html=1;strokeWidth=1;align=left;verticalAlign=middle;spacingTop=-1;spacingLeft=3;spacingRight=3;rotatable=0;labelPosition=right;points=[];portConstraint=eastwest;" parent="ecw_OJBiE6QCDlSSsBEE-209" vertex="1">
          <mxGeometry y="195" width="280" height="8" as="geometry" />
        </mxCell>
        <mxCell id="ecw_OJBiE6QCDlSSsBEE-220" value="+ Prestamo(id: int, usuario: Usuario, &#xa;fechaPrestamo: LocalDate, &#xa;fechaDevolucionPrevista: LocalDate)" style="text;align=left;verticalAlign=top;spacingLeft=4;spacingRight=4;overflow=hidden;rotatable=0;points=[[0,0.5],[1,0.5]];portConstraint=eastwest;" parent="ecw_OJBiE6QCDlSSsBEE-209" vertex="1">
          <mxGeometry y="203" width="280" height="48" as="geometry" />
        </mxCell>
        <mxCell id="ecw_OJBiE6QCDlSSsBEE-221" value="+ getId(): int" style="text;align=left;verticalAlign=top;spacingLeft=4;spacingRight=4;overflow=hidden;rotatable=0;points=[[0,0.5],[1,0.5]];portConstraint=eastwest;rounded=0;shadow=0;html=0;" parent="ecw_OJBiE6QCDlSSsBEE-209" vertex="1">
          <mxGeometry y="251" width="280" height="26" as="geometry" />
        </mxCell>
        <mxCell id="ecw_OJBiE6QCDlSSsBEE-222" value="+ getUsuario(): Usuario" style="text;align=left;verticalAlign=top;spacingLeft=4;spacingRight=4;overflow=hidden;rotatable=0;points=[[0,0.5],[1,0.5]];portConstraint=eastwest;rounded=0;shadow=0;html=0;" parent="ecw_OJBiE6QCDlSSsBEE-209" vertex="1">
          <mxGeometry y="277" width="280" height="26" as="geometry" />
        </mxCell>
        <mxCell id="ecw_OJBiE6QCDlSSsBEE-224" value="+ getFechaPrestamo(): LocalDate" style="text;align=left;verticalAlign=top;spacingLeft=4;spacingRight=4;overflow=hidden;rotatable=0;points=[[0,0.5],[1,0.5]];portConstraint=eastwest;rounded=0;shadow=0;html=0;" parent="ecw_OJBiE6QCDlSSsBEE-209" vertex="1">
          <mxGeometry y="303" width="280" height="26" as="geometry" />
        </mxCell>
        <mxCell id="ecw_OJBiE6QCDlSSsBEE-225" value="+ getFechaDevolucionPrevista(): LocalDate" style="text;align=left;verticalAlign=top;spacingLeft=4;spacingRight=4;overflow=hidden;rotatable=0;points=[[0,0.5],[1,0.5]];portConstraint=eastwest;rounded=0;shadow=0;html=0;" parent="ecw_OJBiE6QCDlSSsBEE-209" vertex="1">
          <mxGeometry y="329" width="280" height="26" as="geometry" />
        </mxCell>
        <mxCell id="ecw_OJBiE6QCDlSSsBEE-226" value="+ getFechaDevolucionReal(): LocalDate" style="text;align=left;verticalAlign=top;spacingLeft=4;spacingRight=4;overflow=hidden;rotatable=0;points=[[0,0.5],[1,0.5]];portConstraint=eastwest;rounded=0;shadow=0;html=0;" parent="ecw_OJBiE6QCDlSSsBEE-209" vertex="1">
          <mxGeometry y="355" width="280" height="26" as="geometry" />
        </mxCell>
        <mxCell id="ecw_OJBiE6QCDlSSsBEE-228" value="+ isExtendido(): boolean" style="text;align=left;verticalAlign=top;spacingLeft=4;spacingRight=4;overflow=hidden;rotatable=0;points=[[0,0.5],[1,0.5]];portConstraint=eastwest;rounded=0;shadow=0;html=0;" parent="ecw_OJBiE6QCDlSSsBEE-209" vertex="1">
          <mxGeometry y="381" width="280" height="26" as="geometry" />
        </mxCell>
        <mxCell id="ecw_OJBiE6QCDlSSsBEE-230" value="+ setId(id: int): void" style="text;align=left;verticalAlign=top;spacingLeft=4;spacingRight=4;overflow=hidden;rotatable=0;points=[[0,0.5],[1,0.5]];portConstraint=eastwest;rounded=0;shadow=0;html=0;" parent="ecw_OJBiE6QCDlSSsBEE-209" vertex="1">
          <mxGeometry y="407" width="280" height="26" as="geometry" />
        </mxCell>
        <mxCell id="ecw_OJBiE6QCDlSSsBEE-231" value="+ setUsuario(usuario: Usuario): void" style="text;align=left;verticalAlign=top;spacingLeft=4;spacingRight=4;overflow=hidden;rotatable=0;points=[[0,0.5],[1,0.5]];portConstraint=eastwest;rounded=0;shadow=0;html=0;" parent="ecw_OJBiE6QCDlSSsBEE-209" vertex="1">
          <mxGeometry y="433" width="280" height="26" as="geometry" />
        </mxCell>
        <mxCell id="ecw_OJBiE6QCDlSSsBEE-233" value="+ setFechaPrestamo(fechaPrestamo: LocalDate): &#xa;void" style="text;align=left;verticalAlign=top;spacingLeft=4;spacingRight=4;overflow=hidden;rotatable=0;points=[[0,0.5],[1,0.5]];portConstraint=eastwest;rounded=0;shadow=0;html=0;" parent="ecw_OJBiE6QCDlSSsBEE-209" vertex="1">
          <mxGeometry y="459" width="280" height="38" as="geometry" />
        </mxCell>
        <mxCell id="ecw_OJBiE6QCDlSSsBEE-240" value="+ estaVencido(): boolean" style="text;align=left;verticalAlign=top;spacingLeft=4;spacingRight=4;overflow=hidden;rotatable=0;points=[[0,0.5],[1,0.5]];portConstraint=eastwest;rounded=0;shadow=0;html=0;fontStyle=2" parent="ecw_OJBiE6QCDlSSsBEE-209" vertex="1">
          <mxGeometry y="497" width="280" height="26" as="geometry" />
        </mxCell>
        <mxCell id="w2-1c_2cRc1IGMD6rBRM-114" style="edgeStyle=orthogonalEdgeStyle;shape=connector;curved=0;rounded=1;orthogonalLoop=1;jettySize=auto;html=1;strokeColor=#33FF33;strokeWidth=2;align=center;verticalAlign=middle;fontFamily=Helvetica;fontSize=11;fontColor=default;labelBackgroundColor=default;endArrow=open;endFill=0;endSize=16;dashed=1;" parent="ecw_OJBiE6QCDlSSsBEE-1" source="ecw_OJBiE6QCDlSSsBEE-241" target="ecw_OJBiE6QCDlSSsBEE-276" edge="1">
          <mxGeometry relative="1" as="geometry">
            <Array as="points">
              <mxPoint x="-13080" y="-8220" />
              <mxPoint x="-13820" y="-8220" />
            </Array>
          </mxGeometry>
        </mxCell>
        <mxCell id="ecw_OJBiE6QCDlSSsBEE-241" value="ServicioAutenticacion" style="swimlane;fontStyle=0;align=center;verticalAlign=top;childLayout=stackLayout;horizontal=1;startSize=30;horizontalStack=0;resizeParent=1;resizeLast=0;collapsible=1;marginBottom=0;rounded=0;shadow=0;strokeWidth=1;" parent="ecw_OJBiE6QCDlSSsBEE-1" vertex="1">
          <mxGeometry x="-13240" y="-7880" width="280" height="142" as="geometry">
            <mxRectangle x="130" y="380" width="160" height="26" as="alternateBounds" />
          </mxGeometry>
        </mxCell>
        <mxCell id="ecw_OJBiE6QCDlSSsBEE-242" value="- dbManager: BaseDatos" style="text;align=left;verticalAlign=top;spacingLeft=4;spacingRight=4;overflow=hidden;rotatable=0;points=[[0,0.5],[1,0.5]];portConstraint=eastwest;rounded=0;shadow=0;html=0;" parent="ecw_OJBiE6QCDlSSsBEE-241" vertex="1">
          <mxGeometry y="30" width="280" height="26" as="geometry" />
        </mxCell>
        <mxCell id="ecw_OJBiE6QCDlSSsBEE-248" value="" style="line;html=1;strokeWidth=1;align=left;verticalAlign=middle;spacingTop=-1;spacingLeft=3;spacingRight=3;rotatable=0;labelPosition=right;points=[];portConstraint=eastwest;" parent="ecw_OJBiE6QCDlSSsBEE-241" vertex="1">
          <mxGeometry y="56" width="280" height="8" as="geometry" />
        </mxCell>
        <mxCell id="ecw_OJBiE6QCDlSSsBEE-249" value="+ ServicioAutenticacion(dbManager: BaseDatos)" style="text;align=left;verticalAlign=top;spacingLeft=4;spacingRight=4;overflow=hidden;rotatable=0;points=[[0,0.5],[1,0.5]];portConstraint=eastwest;" parent="ecw_OJBiE6QCDlSSsBEE-241" vertex="1">
          <mxGeometry y="64" width="280" height="26" as="geometry" />
        </mxCell>
        <mxCell id="ecw_OJBiE6QCDlSSsBEE-250" value="+ login(idUsuario: String, contrasena: String): Usuario" style="text;align=left;verticalAlign=top;spacingLeft=4;spacingRight=4;overflow=hidden;rotatable=0;points=[[0,0.5],[1,0.5]];portConstraint=eastwest;rounded=0;shadow=0;html=0;" parent="ecw_OJBiE6QCDlSSsBEE-241" vertex="1">
          <mxGeometry y="90" width="280" height="26" as="geometry" />
        </mxCell>
        <mxCell id="ecw_OJBiE6QCDlSSsBEE-251" value="+ logout(): boolean" style="text;align=left;verticalAlign=top;spacingLeft=4;spacingRight=4;overflow=hidden;rotatable=0;points=[[0,0.5],[1,0.5]];portConstraint=eastwest;rounded=0;shadow=0;html=0;" parent="ecw_OJBiE6QCDlSSsBEE-241" vertex="1">
          <mxGeometry y="116" width="280" height="26" as="geometry" />
        </mxCell>
        <mxCell id="w2-1c_2cRc1IGMD6rBRM-125" style="edgeStyle=orthogonalEdgeStyle;shape=connector;curved=0;rounded=1;orthogonalLoop=1;jettySize=auto;html=1;dashed=1;strokeColor=#33FF33;strokeWidth=2;align=center;verticalAlign=middle;fontFamily=Helvetica;fontSize=11;fontColor=default;labelBackgroundColor=default;endArrow=open;endFill=0;endSize=16;" parent="ecw_OJBiE6QCDlSSsBEE-1" source="ecw_OJBiE6QCDlSSsBEE-263" target="ecw_OJBiE6QCDlSSsBEE-241" edge="1">
          <mxGeometry relative="1" as="geometry">
            <Array as="points">
              <mxPoint x="-13280" y="-6680" />
              <mxPoint x="-13280" y="-7809" />
            </Array>
          </mxGeometry>
        </mxCell>
        <mxCell id="w2-1c_2cRc1IGMD6rBRM-126" style="edgeStyle=orthogonalEdgeStyle;shape=connector;curved=0;rounded=1;orthogonalLoop=1;jettySize=auto;html=1;dashed=1;strokeColor=#33FF33;strokeWidth=2;align=center;verticalAlign=middle;fontFamily=Helvetica;fontSize=11;fontColor=default;labelBackgroundColor=default;endArrow=open;endFill=0;endSize=16;" parent="ecw_OJBiE6QCDlSSsBEE-1" source="ecw_OJBiE6QCDlSSsBEE-263" target="w2-1c_2cRc1IGMD6rBRM-36" edge="1">
          <mxGeometry relative="1" as="geometry">
            <Array as="points">
              <mxPoint x="-13280" y="-6680" />
              <mxPoint x="-13280" y="-7260" />
            </Array>
          </mxGeometry>
        </mxCell>
        <mxCell id="w2-1c_2cRc1IGMD6rBRM-127" style="edgeStyle=orthogonalEdgeStyle;shape=connector;curved=0;rounded=1;orthogonalLoop=1;jettySize=auto;html=1;dashed=1;strokeColor=#33FF33;strokeWidth=2;align=center;verticalAlign=middle;fontFamily=Helvetica;fontSize=11;fontColor=default;labelBackgroundColor=default;endArrow=open;endFill=0;endSize=16;" parent="ecw_OJBiE6QCDlSSsBEE-1" source="ecw_OJBiE6QCDlSSsBEE-263" target="w2-1c_2cRc1IGMD6rBRM-46" edge="1">
          <mxGeometry relative="1" as="geometry">
            <Array as="points">
              <mxPoint x="-13280" y="-6680" />
              <mxPoint x="-13280" y="-6950" />
            </Array>
          </mxGeometry>
        </mxCell>
        <mxCell id="w2-1c_2cRc1IGMD6rBRM-128" style="edgeStyle=orthogonalEdgeStyle;shape=connector;curved=0;rounded=1;orthogonalLoop=1;jettySize=auto;html=1;dashed=1;strokeColor=#33FF33;strokeWidth=2;align=center;verticalAlign=middle;fontFamily=Helvetica;fontSize=11;fontColor=default;labelBackgroundColor=default;endArrow=open;endFill=0;endSize=16;" parent="ecw_OJBiE6QCDlSSsBEE-1" source="ecw_OJBiE6QCDlSSsBEE-263" target="w2-1c_2cRc1IGMD6rBRM-66" edge="1">
          <mxGeometry relative="1" as="geometry">
            <Array as="points">
              <mxPoint x="-13240" y="-6630" />
              <mxPoint x="-13240" y="-7680" />
            </Array>
          </mxGeometry>
        </mxCell>
        <mxCell id="w2-1c_2cRc1IGMD6rBRM-129" style="edgeStyle=orthogonalEdgeStyle;shape=connector;curved=0;rounded=1;orthogonalLoop=1;jettySize=auto;html=1;dashed=1;strokeColor=#33FF33;strokeWidth=2;align=center;verticalAlign=middle;fontFamily=Helvetica;fontSize=11;fontColor=default;labelBackgroundColor=default;endArrow=open;endFill=0;endSize=16;" parent="ecw_OJBiE6QCDlSSsBEE-1" source="ecw_OJBiE6QCDlSSsBEE-263" target="w2-1c_2cRc1IGMD6rBRM-56" edge="1">
          <mxGeometry relative="1" as="geometry">
            <Array as="points">
              <mxPoint x="-13260" y="-6613" />
              <mxPoint x="-13260" y="-7580" />
              <mxPoint x="-13820" y="-7580" />
            </Array>
          </mxGeometry>
        </mxCell>
        <mxCell id="w2-1c_2cRc1IGMD6rBRM-130" style="edgeStyle=orthogonalEdgeStyle;shape=connector;curved=0;rounded=1;orthogonalLoop=1;jettySize=auto;html=1;dashed=1;strokeColor=#33FF33;strokeWidth=2;align=center;verticalAlign=middle;fontFamily=Helvetica;fontSize=11;fontColor=default;labelBackgroundColor=default;endArrow=open;endFill=0;endSize=16;" parent="ecw_OJBiE6QCDlSSsBEE-1" source="ecw_OJBiE6QCDlSSsBEE-263" target="ecw_OJBiE6QCDlSSsBEE-7" edge="1">
          <mxGeometry relative="1" as="geometry">
            <Array as="points">
              <mxPoint x="-13300" y="-6600" />
              <mxPoint x="-13300" y="-7520" />
              <mxPoint x="-14830" y="-7520" />
              <mxPoint x="-14830" y="-7710" />
            </Array>
          </mxGeometry>
        </mxCell>
        <mxCell id="w2-1c_2cRc1IGMD6rBRM-131" style="edgeStyle=orthogonalEdgeStyle;shape=connector;curved=0;rounded=1;orthogonalLoop=1;jettySize=auto;html=1;dashed=1;strokeColor=#33FF33;strokeWidth=2;align=center;verticalAlign=middle;fontFamily=Helvetica;fontSize=11;fontColor=default;labelBackgroundColor=default;endArrow=open;endFill=0;endSize=16;" parent="ecw_OJBiE6QCDlSSsBEE-1" source="ecw_OJBiE6QCDlSSsBEE-263" target="ecw_OJBiE6QCDlSSsBEE-79" edge="1">
          <mxGeometry relative="1" as="geometry">
            <Array as="points">
              <mxPoint x="-14990" y="-6580" />
            </Array>
          </mxGeometry>
        </mxCell>
        <mxCell id="w2-1c_2cRc1IGMD6rBRM-132" style="edgeStyle=orthogonalEdgeStyle;shape=connector;curved=0;rounded=1;orthogonalLoop=1;jettySize=auto;html=1;dashed=1;strokeColor=#33FF33;strokeWidth=2;align=center;verticalAlign=middle;fontFamily=Helvetica;fontSize=11;fontColor=default;labelBackgroundColor=default;endArrow=open;endFill=0;endSize=16;" parent="ecw_OJBiE6QCDlSSsBEE-1" source="ecw_OJBiE6QCDlSSsBEE-263" target="se7aEWiKqazrtZZNGl2T-44" edge="1">
          <mxGeometry relative="1" as="geometry">
            <Array as="points">
              <mxPoint x="-14990" y="-6580" />
            </Array>
          </mxGeometry>
        </mxCell>
        <mxCell id="w2-1c_2cRc1IGMD6rBRM-133" style="edgeStyle=orthogonalEdgeStyle;shape=connector;curved=0;rounded=1;orthogonalLoop=1;jettySize=auto;html=1;dashed=1;strokeColor=#33FF33;strokeWidth=2;align=center;verticalAlign=middle;fontFamily=Helvetica;fontSize=11;fontColor=default;labelBackgroundColor=default;endArrow=open;endFill=0;endSize=16;" parent="ecw_OJBiE6QCDlSSsBEE-1" source="ecw_OJBiE6QCDlSSsBEE-263" target="se7aEWiKqazrtZZNGl2T-11" edge="1">
          <mxGeometry relative="1" as="geometry">
            <Array as="points">
              <mxPoint x="-13920" y="-6560" />
            </Array>
          </mxGeometry>
        </mxCell>
        <mxCell id="w2-1c_2cRc1IGMD6rBRM-134" style="edgeStyle=orthogonalEdgeStyle;shape=connector;curved=0;rounded=1;orthogonalLoop=1;jettySize=auto;html=1;dashed=1;strokeColor=#33FF33;strokeWidth=2;align=center;verticalAlign=middle;fontFamily=Helvetica;fontSize=11;fontColor=default;labelBackgroundColor=default;endArrow=open;endFill=0;endSize=16;" parent="ecw_OJBiE6QCDlSSsBEE-1" source="ecw_OJBiE6QCDlSSsBEE-263" target="w2-1c_2cRc1IGMD6rBRM-0" edge="1">
          <mxGeometry relative="1" as="geometry">
            <Array as="points">
              <mxPoint x="-13920" y="-6560" />
            </Array>
          </mxGeometry>
        </mxCell>
        <mxCell id="w2-1c_2cRc1IGMD6rBRM-135" style="edgeStyle=orthogonalEdgeStyle;shape=connector;curved=0;rounded=1;orthogonalLoop=1;jettySize=auto;html=1;dashed=1;strokeColor=#33FF33;strokeWidth=2;align=center;verticalAlign=middle;fontFamily=Helvetica;fontSize=11;fontColor=default;labelBackgroundColor=default;endArrow=open;endFill=0;endSize=16;" parent="ecw_OJBiE6QCDlSSsBEE-1" source="ecw_OJBiE6QCDlSSsBEE-263" target="ecw_OJBiE6QCDlSSsBEE-394" edge="1">
          <mxGeometry relative="1" as="geometry">
            <Array as="points">
              <mxPoint x="-13520" y="-6560" />
            </Array>
          </mxGeometry>
        </mxCell>
        <mxCell id="ecw_OJBiE6QCDlSSsBEE-263" value="Main" style="swimlane;fontStyle=0;align=center;verticalAlign=top;childLayout=stackLayout;horizontal=1;startSize=30;horizontalStack=0;resizeParent=1;resizeLast=0;collapsible=1;marginBottom=0;rounded=0;shadow=0;strokeWidth=1;fillColor=#60a917;fontColor=#ffffff;strokeColor=#2D7600;" parent="ecw_OJBiE6QCDlSSsBEE-1" vertex="1">
          <mxGeometry x="-13210" y="-6760" width="290" height="930" as="geometry">
            <mxRectangle x="130" y="380" width="160" height="26" as="alternateBounds" />
          </mxGeometry>
        </mxCell>
        <mxCell id="ecw_OJBiE6QCDlSSsBEE-264" value="- scanner : Scanner" style="text;align=left;verticalAlign=top;spacingLeft=4;spacingRight=4;overflow=hidden;rotatable=0;points=[[0,0.5],[1,0.5]];portConstraint=eastwest;rounded=0;shadow=0;html=0;" parent="ecw_OJBiE6QCDlSSsBEE-263" vertex="1">
          <mxGeometry y="30" width="290" height="26" as="geometry" />
        </mxCell>
        <mxCell id="ecw_OJBiE6QCDlSSsBEE-265" value="- autenticacionService : AutenticacionService" style="text;align=left;verticalAlign=top;spacingLeft=4;spacingRight=4;overflow=hidden;rotatable=0;points=[[0,0.5],[1,0.5]];portConstraint=eastwest;rounded=0;shadow=0;html=0;" parent="ecw_OJBiE6QCDlSSsBEE-263" vertex="1">
          <mxGeometry y="56" width="290" height="26" as="geometry" />
        </mxCell>
        <mxCell id="ecw_OJBiE6QCDlSSsBEE-266" value="- usuarioActual : Usuario" style="text;align=left;verticalAlign=top;spacingLeft=4;spacingRight=4;overflow=hidden;rotatable=0;points=[[0,0.5],[1,0.5]];portConstraint=eastwest;rounded=0;shadow=0;html=0;" parent="ecw_OJBiE6QCDlSSsBEE-263" vertex="1">
          <mxGeometry y="82" width="290" height="26" as="geometry" />
        </mxCell>
        <mxCell id="4TeJW4sNxocOQ5sQqhk--0" value="- ejecutando : boolean" style="text;align=left;verticalAlign=top;spacingLeft=4;spacingRight=4;overflow=hidden;rotatable=0;points=[[0,0.5],[1,0.5]];portConstraint=eastwest;rounded=0;shadow=0;html=0;" parent="ecw_OJBiE6QCDlSSsBEE-263" vertex="1">
          <mxGeometry y="108" width="290" height="26" as="geometry" />
        </mxCell>
        <mxCell id="ecw_OJBiE6QCDlSSsBEE-267" value="" style="line;html=1;strokeWidth=1;align=left;verticalAlign=middle;spacingTop=-1;spacingLeft=3;spacingRight=3;rotatable=0;labelPosition=right;points=[];portConstraint=eastwest;" parent="ecw_OJBiE6QCDlSSsBEE-263" vertex="1">
          <mxGeometry y="134" width="290" height="8" as="geometry" />
        </mxCell>
        <mxCell id="ecw_OJBiE6QCDlSSsBEE-268" value="+ main(String[] args) : void" style="text;align=left;verticalAlign=top;spacingLeft=4;spacingRight=4;overflow=hidden;rotatable=0;points=[[0,0.5],[1,0.5]];portConstraint=eastwest;" parent="ecw_OJBiE6QCDlSSsBEE-263" vertex="1">
          <mxGeometry y="142" width="290" height="26" as="geometry" />
        </mxCell>
        <mxCell id="ecw_OJBiE6QCDlSSsBEE-269" value="+ comenzar() : void" style="text;align=left;verticalAlign=top;spacingLeft=4;spacingRight=4;overflow=hidden;rotatable=0;points=[[0,0.5],[1,0.5]];portConstraint=eastwest;rounded=0;shadow=0;html=0;" parent="ecw_OJBiE6QCDlSSsBEE-263" vertex="1">
          <mxGeometry y="168" width="290" height="26" as="geometry" />
        </mxCell>
        <mxCell id="ecw_OJBiE6QCDlSSsBEE-270" value="- mostrarMenuPrincipal() : void" style="text;align=left;verticalAlign=top;spacingLeft=4;spacingRight=4;overflow=hidden;rotatable=0;points=[[0,0.5],[1,0.5]];portConstraint=eastwest;rounded=0;shadow=0;html=0;" parent="ecw_OJBiE6QCDlSSsBEE-263" vertex="1">
          <mxGeometry y="194" width="290" height="26" as="geometry" />
        </mxCell>
        <mxCell id="tnHd-xGfJZXZhbbgQxCl-0" value="- Iniciar sesion() : void" style="text;align=left;verticalAlign=top;spacingLeft=4;spacingRight=4;overflow=hidden;rotatable=0;points=[[0,0.5],[1,0.5]];portConstraint=eastwest;rounded=0;shadow=0;html=0;" parent="ecw_OJBiE6QCDlSSsBEE-263" vertex="1">
          <mxGeometry y="220" width="290" height="26" as="geometry" />
        </mxCell>
        <mxCell id="4TeJW4sNxocOQ5sQqhk--4" value="- mostrarMenuPorRol() : void" style="text;align=left;verticalAlign=top;spacingLeft=4;spacingRight=4;overflow=hidden;rotatable=0;points=[[0,0.5],[1,0.5]];portConstraint=eastwest;rounded=0;shadow=0;html=0;" parent="ecw_OJBiE6QCDlSSsBEE-263" vertex="1">
          <mxGeometry y="246" width="290" height="26" as="geometry" />
        </mxCell>
        <mxCell id="4TeJW4sNxocOQ5sQqhk--1" value="- cambiarContraseña() : void" style="text;align=left;verticalAlign=top;spacingLeft=4;spacingRight=4;overflow=hidden;rotatable=0;points=[[0,0.5],[1,0.5]];portConstraint=eastwest;rounded=0;shadow=0;html=0;" parent="ecw_OJBiE6QCDlSSsBEE-263" vertex="1">
          <mxGeometry y="272" width="290" height="26" as="geometry" />
        </mxCell>
        <mxCell id="4TeJW4sNxocOQ5sQqhk--3" value="-verMisDatosUsuario() : void" style="text;align=left;verticalAlign=top;spacingLeft=4;spacingRight=4;overflow=hidden;rotatable=0;points=[[0,0.5],[1,0.5]];portConstraint=eastwest;rounded=0;shadow=0;html=0;" parent="ecw_OJBiE6QCDlSSsBEE-263" vertex="1">
          <mxGeometry y="298" width="290" height="26" as="geometry" />
        </mxCell>
        <mxCell id="4TeJW4sNxocOQ5sQqhk--2" value="- menuGestionMateriales() : void" style="text;align=left;verticalAlign=top;spacingLeft=4;spacingRight=4;overflow=hidden;rotatable=0;points=[[0,0.5],[1,0.5]];portConstraint=eastwest;rounded=0;shadow=0;html=0;" parent="ecw_OJBiE6QCDlSSsBEE-263" vertex="1">
          <mxGeometry y="324" width="290" height="26" as="geometry" />
        </mxCell>
        <mxCell id="4TeJW4sNxocOQ5sQqhk--5" value="- añadir material() : void" style="text;align=left;verticalAlign=top;spacingLeft=4;spacingRight=4;overflow=hidden;rotatable=0;points=[[0,0.5],[1,0.5]];portConstraint=eastwest;rounded=0;shadow=0;html=0;" parent="ecw_OJBiE6QCDlSSsBEE-263" vertex="1">
          <mxGeometry y="350" width="290" height="26" as="geometry" />
        </mxCell>
        <mxCell id="4TeJW4sNxocOQ5sQqhk--6" value="- Ver todos los materiales() : void" style="text;align=left;verticalAlign=top;spacingLeft=4;spacingRight=4;overflow=hidden;rotatable=0;points=[[0,0.5],[1,0.5]];portConstraint=eastwest;rounded=0;shadow=0;html=0;" parent="ecw_OJBiE6QCDlSSsBEE-263" vertex="1">
          <mxGeometry y="376" width="290" height="26" as="geometry" />
        </mxCell>
        <mxCell id="4TeJW4sNxocOQ5sQqhk--7" value="- buscarMaterial() : void" style="text;align=left;verticalAlign=top;spacingLeft=4;spacingRight=4;overflow=hidden;rotatable=0;points=[[0,0.5],[1,0.5]];portConstraint=eastwest;rounded=0;shadow=0;html=0;" parent="ecw_OJBiE6QCDlSSsBEE-263" vertex="1">
          <mxGeometry y="402" width="290" height="26" as="geometry" />
        </mxCell>
        <mxCell id="tnHd-xGfJZXZhbbgQxCl-2" value="- actualizarMaterial() : void" style="text;align=left;verticalAlign=top;spacingLeft=4;spacingRight=4;overflow=hidden;rotatable=0;points=[[0,0.5],[1,0.5]];portConstraint=eastwest;rounded=0;shadow=0;html=0;" parent="ecw_OJBiE6QCDlSSsBEE-263" vertex="1">
          <mxGeometry y="428" width="290" height="26" as="geometry" />
        </mxCell>
        <mxCell id="tnHd-xGfJZXZhbbgQxCl-3" value="- eliminarMaterial() : void" style="text;align=left;verticalAlign=top;spacingLeft=4;spacingRight=4;overflow=hidden;rotatable=0;points=[[0,0.5],[1,0.5]];portConstraint=eastwest;rounded=0;shadow=0;html=0;" parent="ecw_OJBiE6QCDlSSsBEE-263" vertex="1">
          <mxGeometry y="454" width="290" height="26" as="geometry" />
        </mxCell>
        <mxCell id="4TeJW4sNxocOQ5sQqhk--8" value="- MenuGestionRecursos() : void" style="text;align=left;verticalAlign=top;spacingLeft=4;spacingRight=4;overflow=hidden;rotatable=0;points=[[0,0.5],[1,0.5]];portConstraint=eastwest;rounded=0;shadow=0;html=0;" parent="ecw_OJBiE6QCDlSSsBEE-263" vertex="1">
          <mxGeometry y="480" width="290" height="26" as="geometry" />
        </mxCell>
        <mxCell id="tnHd-xGfJZXZhbbgQxCl-4" value="- añadirRecurso() : void" style="text;align=left;verticalAlign=top;spacingLeft=4;spacingRight=4;overflow=hidden;rotatable=0;points=[[0,0.5],[1,0.5]];portConstraint=eastwest;rounded=0;shadow=0;html=0;" parent="ecw_OJBiE6QCDlSSsBEE-263" vertex="1">
          <mxGeometry y="506" width="290" height="26" as="geometry" />
        </mxCell>
        <mxCell id="tnHd-xGfJZXZhbbgQxCl-5" value="- Ver todos los recursos() : void" style="text;align=left;verticalAlign=top;spacingLeft=4;spacingRight=4;overflow=hidden;rotatable=0;points=[[0,0.5],[1,0.5]];portConstraint=eastwest;rounded=0;shadow=0;html=0;" parent="ecw_OJBiE6QCDlSSsBEE-263" vertex="1">
          <mxGeometry y="532" width="290" height="26" as="geometry" />
        </mxCell>
        <mxCell id="tnHd-xGfJZXZhbbgQxCl-6" value="- actualizaRecurso() : void" style="text;align=left;verticalAlign=top;spacingLeft=4;spacingRight=4;overflow=hidden;rotatable=0;points=[[0,0.5],[1,0.5]];portConstraint=eastwest;rounded=0;shadow=0;html=0;" parent="ecw_OJBiE6QCDlSSsBEE-263" vertex="1">
          <mxGeometry y="558" width="290" height="26" as="geometry" />
        </mxCell>
        <mxCell id="tnHd-xGfJZXZhbbgQxCl-7" value="- eliminarRecurso() : void" style="text;align=left;verticalAlign=top;spacingLeft=4;spacingRight=4;overflow=hidden;rotatable=0;points=[[0,0.5],[1,0.5]];portConstraint=eastwest;rounded=0;shadow=0;html=0;" parent="ecw_OJBiE6QCDlSSsBEE-263" vertex="1">
          <mxGeometry y="584" width="290" height="26" as="geometry" />
        </mxCell>
        <mxCell id="tnHd-xGfJZXZhbbgQxCl-8" value="- MenuGestionPrestamosReservas() : void" style="text;align=left;verticalAlign=top;spacingLeft=4;spacingRight=4;overflow=hidden;rotatable=0;points=[[0,0.5],[1,0.5]];portConstraint=eastwest;rounded=0;shadow=0;html=0;" parent="ecw_OJBiE6QCDlSSsBEE-263" vertex="1">
          <mxGeometry y="610" width="290" height="26" as="geometry" />
        </mxCell>
        <mxCell id="tnHd-xGfJZXZhbbgQxCl-9" value="- RealizarPrestamoMaterial() : void" style="text;align=left;verticalAlign=top;spacingLeft=4;spacingRight=4;overflow=hidden;rotatable=0;points=[[0,0.5],[1,0.5]];portConstraint=eastwest;rounded=0;shadow=0;html=0;" parent="ecw_OJBiE6QCDlSSsBEE-263" vertex="1">
          <mxGeometry y="636" width="290" height="26" as="geometry" />
        </mxCell>
        <mxCell id="tnHd-xGfJZXZhbbgQxCl-10" value="- RegistrarDevolucionMaterial() : void" style="text;align=left;verticalAlign=top;spacingLeft=4;spacingRight=4;overflow=hidden;rotatable=0;points=[[0,0.5],[1,0.5]];portConstraint=eastwest;rounded=0;shadow=0;html=0;" parent="ecw_OJBiE6QCDlSSsBEE-263" vertex="1">
          <mxGeometry y="662" width="290" height="26" as="geometry" />
        </mxCell>
        <mxCell id="tnHd-xGfJZXZhbbgQxCl-11" value="- EstensorPrestamoMaterial() : void" style="text;align=left;verticalAlign=top;spacingLeft=4;spacingRight=4;overflow=hidden;rotatable=0;points=[[0,0.5],[1,0.5]];portConstraint=eastwest;rounded=0;shadow=0;html=0;" parent="ecw_OJBiE6QCDlSSsBEE-263" vertex="1">
          <mxGeometry y="688" width="290" height="26" as="geometry" />
        </mxCell>
        <mxCell id="tnHd-xGfJZXZhbbgQxCl-12" value="- VerTodosLosPrestamosMateriales() : void" style="text;align=left;verticalAlign=top;spacingLeft=4;spacingRight=4;overflow=hidden;rotatable=0;points=[[0,0.5],[1,0.5]];portConstraint=eastwest;rounded=0;shadow=0;html=0;" parent="ecw_OJBiE6QCDlSSsBEE-263" vertex="1">
          <mxGeometry y="714" width="290" height="26" as="geometry" />
        </mxCell>
        <mxCell id="tnHd-xGfJZXZhbbgQxCl-13" value="- VerTodosLasReservasRecursos() : void" style="text;align=left;verticalAlign=top;spacingLeft=4;spacingRight=4;overflow=hidden;rotatable=0;points=[[0,0.5],[1,0.5]];portConstraint=eastwest;rounded=0;shadow=0;html=0;" parent="ecw_OJBiE6QCDlSSsBEE-263" vertex="1">
          <mxGeometry y="740" width="290" height="26" as="geometry" />
        </mxCell>
        <mxCell id="tnHd-xGfJZXZhbbgQxCl-14" value="- MenuGestionSanciones() : void" style="text;align=left;verticalAlign=top;spacingLeft=4;spacingRight=4;overflow=hidden;rotatable=0;points=[[0,0.5],[1,0.5]];portConstraint=eastwest;rounded=0;shadow=0;html=0;" parent="ecw_OJBiE6QCDlSSsBEE-263" vertex="1">
          <mxGeometry y="766" width="290" height="26" as="geometry" />
        </mxCell>
        <mxCell id="tnHd-xGfJZXZhbbgQxCl-15" value="- VerSancionesPorUsuario() : void" style="text;align=left;verticalAlign=top;spacingLeft=4;spacingRight=4;overflow=hidden;rotatable=0;points=[[0,0.5],[1,0.5]];portConstraint=eastwest;rounded=0;shadow=0;html=0;" parent="ecw_OJBiE6QCDlSSsBEE-263" vertex="1">
          <mxGeometry y="792" width="290" height="26" as="geometry" />
        </mxCell>
        <mxCell id="tnHd-xGfJZXZhbbgQxCl-16" value="- LevantarSancion() : void" style="text;align=left;verticalAlign=top;spacingLeft=4;spacingRight=4;overflow=hidden;rotatable=0;points=[[0,0.5],[1,0.5]];portConstraint=eastwest;rounded=0;shadow=0;html=0;" parent="ecw_OJBiE6QCDlSSsBEE-263" vertex="1">
          <mxGeometry y="818" width="290" height="26" as="geometry" />
        </mxCell>
        <mxCell id="tnHd-xGfJZXZhbbgQxCl-17" value="- leerEntero() : int" style="text;align=left;verticalAlign=top;spacingLeft=4;spacingRight=4;overflow=hidden;rotatable=0;points=[[0,0.5],[1,0.5]];portConstraint=eastwest;rounded=0;shadow=0;html=0;" parent="ecw_OJBiE6QCDlSSsBEE-263" vertex="1">
          <mxGeometry y="844" width="290" height="26" as="geometry" />
        </mxCell>
        <mxCell id="tnHd-xGfJZXZhbbgQxCl-18" value="- leerFechaHora() : LocalDateTime" style="text;align=left;verticalAlign=top;spacingLeft=4;spacingRight=4;overflow=hidden;rotatable=0;points=[[0,0.5],[1,0.5]];portConstraint=eastwest;rounded=0;shadow=0;html=0;" parent="ecw_OJBiE6QCDlSSsBEE-263" vertex="1">
          <mxGeometry y="870" width="290" height="26" as="geometry" />
        </mxCell>
        <mxCell id="tnHd-xGfJZXZhbbgQxCl-19" value="- SeleccionarCategoriaMaterrial() : CategoriaMaterial" style="text;align=left;verticalAlign=top;spacingLeft=4;spacingRight=4;overflow=hidden;rotatable=0;points=[[0,0.5],[1,0.5]];portConstraint=eastwest;rounded=0;shadow=0;html=0;" parent="ecw_OJBiE6QCDlSSsBEE-263" vertex="1">
          <mxGeometry y="896" width="290" height="26" as="geometry" />
        </mxCell>
        <mxCell id="ecw_OJBiE6QCDlSSsBEE-276" value="BaseDatos" style="swimlane;fontStyle=0;align=center;verticalAlign=top;childLayout=stackLayout;horizontal=1;startSize=30;horizontalStack=0;resizeParent=1;resizeLast=0;collapsible=1;marginBottom=0;rounded=0;shadow=0;strokeWidth=1;" parent="ecw_OJBiE6QCDlSSsBEE-1" vertex="1">
          <mxGeometry x="-13960" y="-8150" width="280" height="200" as="geometry">
            <mxRectangle x="130" y="380" width="160" height="26" as="alternateBounds" />
          </mxGeometry>
        </mxCell>
        <mxCell id="ecw_OJBiE6QCDlSSsBEE-277" value="- BD_URL: String" style="text;align=left;verticalAlign=top;spacingLeft=4;spacingRight=4;overflow=hidden;rotatable=0;points=[[0,0.5],[1,0.5]];portConstraint=eastwest;rounded=0;shadow=0;html=0;" parent="ecw_OJBiE6QCDlSSsBEE-276" vertex="1">
          <mxGeometry y="30" width="280" height="26" as="geometry" />
        </mxCell>
        <mxCell id="ecw_OJBiE6QCDlSSsBEE-279" value="" style="line;html=1;strokeWidth=1;align=left;verticalAlign=middle;spacingTop=-1;spacingLeft=3;spacingRight=3;rotatable=0;labelPosition=right;points=[];portConstraint=eastwest;" parent="ecw_OJBiE6QCDlSSsBEE-276" vertex="1">
          <mxGeometry y="56" width="280" height="8" as="geometry" />
        </mxCell>
        <mxCell id="ecw_OJBiE6QCDlSSsBEE-280" value="+ BaseDatos(url: String)" style="text;align=left;verticalAlign=top;spacingLeft=4;spacingRight=4;overflow=hidden;rotatable=0;points=[[0,0.5],[1,0.5]];portConstraint=eastwest;" parent="ecw_OJBiE6QCDlSSsBEE-276" vertex="1">
          <mxGeometry y="64" width="280" height="26" as="geometry" />
        </mxCell>
        <mxCell id="ecw_OJBiE6QCDlSSsBEE-281" value="+ getConnection(): Connection" style="text;align=left;verticalAlign=top;spacingLeft=4;spacingRight=4;overflow=hidden;rotatable=0;points=[[0,0.5],[1,0.5]];portConstraint=eastwest;rounded=0;shadow=0;html=0;" parent="ecw_OJBiE6QCDlSSsBEE-276" vertex="1">
          <mxGeometry y="90" width="280" height="26" as="geometry" />
        </mxCell>
        <mxCell id="ecw_OJBiE6QCDlSSsBEE-282" value="+ closeConnection(conn: Connection): void" style="text;align=left;verticalAlign=top;spacingLeft=4;spacingRight=4;overflow=hidden;rotatable=0;points=[[0,0.5],[1,0.5]];portConstraint=eastwest;rounded=0;shadow=0;html=0;" parent="ecw_OJBiE6QCDlSSsBEE-276" vertex="1">
          <mxGeometry y="116" width="280" height="26" as="geometry" />
        </mxCell>
        <mxCell id="ecw_OJBiE6QCDlSSsBEE-283" value="+ getNextId(tableName: String): int" style="text;align=left;verticalAlign=top;spacingLeft=4;spacingRight=4;overflow=hidden;rotatable=0;points=[[0,0.5],[1,0.5]];portConstraint=eastwest;rounded=0;shadow=0;html=0;" parent="ecw_OJBiE6QCDlSSsBEE-276" vertex="1">
          <mxGeometry y="142" width="280" height="26" as="geometry" />
        </mxCell>
        <mxCell id="ecw_OJBiE6QCDlSSsBEE-377" value="&lt;&lt; interface &gt;&gt;&#xa;Informacion" style="swimlane;fontStyle=2;align=center;verticalAlign=top;childLayout=stackLayout;horizontal=1;startSize=40;horizontalStack=0;resizeParent=1;resizeLast=0;collapsible=1;marginBottom=0;rounded=0;shadow=0;strokeWidth=1;fillColor=#e3c800;strokeColor=#B09500;fontColor=#000000;" parent="ecw_OJBiE6QCDlSSsBEE-1" vertex="1">
          <mxGeometry x="-14720" y="-8220" width="280" height="80" as="geometry">
            <mxRectangle x="130" y="380" width="160" height="26" as="alternateBounds" />
          </mxGeometry>
        </mxCell>
        <mxCell id="ecw_OJBiE6QCDlSSsBEE-378" value="" style="line;html=1;strokeWidth=1;align=left;verticalAlign=middle;spacingTop=-1;spacingLeft=3;spacingRight=3;rotatable=0;labelPosition=right;points=[];portConstraint=eastwest;" parent="ecw_OJBiE6QCDlSSsBEE-377" vertex="1">
          <mxGeometry y="40" width="280" height="8" as="geometry" />
        </mxCell>
        <mxCell id="ecw_OJBiE6QCDlSSsBEE-379" value="+ mostrarInformacion(): void" style="text;align=left;verticalAlign=top;spacingLeft=4;spacingRight=4;overflow=hidden;rotatable=0;points=[[0,0.5],[1,0.5]];portConstraint=eastwest;fontStyle=0" parent="ecw_OJBiE6QCDlSSsBEE-377" vertex="1">
          <mxGeometry y="48" width="280" height="26" as="geometry" />
        </mxCell>
        <mxCell id="w2-1c_2cRc1IGMD6rBRM-108" style="edgeStyle=orthogonalEdgeStyle;shape=connector;curved=0;rounded=1;orthogonalLoop=1;jettySize=auto;html=1;strokeColor=#000000;strokeWidth=2;align=center;verticalAlign=middle;fontFamily=Helvetica;fontSize=11;fontColor=default;labelBackgroundColor=default;startFill=0;endArrow=none;endFill=0;endSize=16;" parent="ecw_OJBiE6QCDlSSsBEE-1" source="ecw_OJBiE6QCDlSSsBEE-394" target="ecw_OJBiE6QCDlSSsBEE-7" edge="1">
          <mxGeometry relative="1" as="geometry">
            <Array as="points">
              <mxPoint x="-13320" y="-6156" />
              <mxPoint x="-13320" y="-7500" />
              <mxPoint x="-14980" y="-7500" />
            </Array>
          </mxGeometry>
        </mxCell>
        <mxCell id="w2-1c_2cRc1IGMD6rBRM-109" value="0...*" style="edgeLabel;html=1;align=center;verticalAlign=middle;resizable=0;points=[];fontFamily=Helvetica;fontSize=11;fontColor=default;labelBackgroundColor=default;" parent="w2-1c_2cRc1IGMD6rBRM-108" vertex="1" connectable="0">
          <mxGeometry x="-0.9912" relative="1" as="geometry">
            <mxPoint y="-14" as="offset" />
          </mxGeometry>
        </mxCell>
        <mxCell id="w2-1c_2cRc1IGMD6rBRM-110" value="1" style="edgeLabel;html=1;align=center;verticalAlign=middle;resizable=0;points=[];fontFamily=Helvetica;fontSize=11;fontColor=default;labelBackgroundColor=default;" parent="w2-1c_2cRc1IGMD6rBRM-108" vertex="1" connectable="0">
          <mxGeometry x="0.9879" relative="1" as="geometry">
            <mxPoint x="10" as="offset" />
          </mxGeometry>
        </mxCell>
        <mxCell id="w2-1c_2cRc1IGMD6rBRM-111" style="edgeStyle=orthogonalEdgeStyle;shape=connector;curved=0;rounded=1;orthogonalLoop=1;jettySize=auto;html=1;strokeColor=#000000;strokeWidth=2;align=center;verticalAlign=middle;fontFamily=Helvetica;fontSize=11;fontColor=default;labelBackgroundColor=default;startFill=0;endArrow=none;endFill=0;endSize=16;" parent="ecw_OJBiE6QCDlSSsBEE-1" source="ecw_OJBiE6QCDlSSsBEE-394" target="se7aEWiKqazrtZZNGl2T-11" edge="1">
          <mxGeometry relative="1" as="geometry">
            <Array as="points">
              <mxPoint x="-13680" y="-6156" />
              <mxPoint x="-13680" y="-6991" />
            </Array>
          </mxGeometry>
        </mxCell>
        <mxCell id="w2-1c_2cRc1IGMD6rBRM-112" value="0..*" style="edgeLabel;html=1;align=center;verticalAlign=middle;resizable=0;points=[];fontFamily=Helvetica;fontSize=11;fontColor=default;labelBackgroundColor=default;" parent="w2-1c_2cRc1IGMD6rBRM-111" vertex="1" connectable="0">
          <mxGeometry x="-0.9661" relative="1" as="geometry">
            <mxPoint y="-14" as="offset" />
          </mxGeometry>
        </mxCell>
        <mxCell id="w2-1c_2cRc1IGMD6rBRM-113" value="1" style="edgeLabel;html=1;align=center;verticalAlign=middle;resizable=0;points=[];fontFamily=Helvetica;fontSize=11;fontColor=default;labelBackgroundColor=default;" parent="w2-1c_2cRc1IGMD6rBRM-111" vertex="1" connectable="0">
          <mxGeometry x="0.9556" y="2" relative="1" as="geometry">
            <mxPoint x="-2" y="-21" as="offset" />
          </mxGeometry>
        </mxCell>
        <mxCell id="ecw_OJBiE6QCDlSSsBEE-394" value="Sancion" style="swimlane;fontStyle=0;align=center;verticalAlign=top;childLayout=stackLayout;horizontal=1;startSize=30;horizontalStack=0;resizeParent=1;resizeLast=0;collapsible=1;marginBottom=0;rounded=0;shadow=0;strokeWidth=1;" parent="ecw_OJBiE6QCDlSSsBEE-1" vertex="1">
          <mxGeometry x="-13640" y="-6480" width="280" height="648" as="geometry">
            <mxRectangle x="130" y="380" width="160" height="26" as="alternateBounds" />
          </mxGeometry>
        </mxCell>
        <mxCell id="ecw_OJBiE6QCDlSSsBEE-395" value="- id: int" style="text;align=left;verticalAlign=top;spacingLeft=4;spacingRight=4;overflow=hidden;rotatable=0;points=[[0,0.5],[1,0.5]];portConstraint=eastwest;rounded=0;shadow=0;html=0;" parent="ecw_OJBiE6QCDlSSsBEE-394" vertex="1">
          <mxGeometry y="30" width="280" height="26" as="geometry" />
        </mxCell>
        <mxCell id="ecw_OJBiE6QCDlSSsBEE-396" value="- usuario: Usuario" style="text;align=left;verticalAlign=top;spacingLeft=4;spacingRight=4;overflow=hidden;rotatable=0;points=[[0,0.5],[1,0.5]];portConstraint=eastwest;rounded=0;shadow=0;html=0;" parent="ecw_OJBiE6QCDlSSsBEE-394" vertex="1">
          <mxGeometry y="56" width="280" height="26" as="geometry" />
        </mxCell>
        <mxCell id="ecw_OJBiE6QCDlSSsBEE-397" value="- prestamo: PrestamoMaterial" style="text;align=left;verticalAlign=top;spacingLeft=4;spacingRight=4;overflow=hidden;rotatable=0;points=[[0,0.5],[1,0.5]];portConstraint=eastwest;rounded=0;shadow=0;html=0;" parent="ecw_OJBiE6QCDlSSsBEE-394" vertex="1">
          <mxGeometry y="82" width="280" height="26" as="geometry" />
        </mxCell>
        <mxCell id="ecw_OJBiE6QCDlSSsBEE-398" value="- fechaSancion: LocalDate" style="text;align=left;verticalAlign=top;spacingLeft=4;spacingRight=4;overflow=hidden;rotatable=0;points=[[0,0.5],[1,0.5]];portConstraint=eastwest;rounded=0;shadow=0;html=0;" parent="ecw_OJBiE6QCDlSSsBEE-394" vertex="1">
          <mxGeometry y="108" width="280" height="26" as="geometry" />
        </mxCell>
        <mxCell id="se7aEWiKqazrtZZNGl2T-43" value="- finalSancion: LocalDate" style="text;align=left;verticalAlign=top;spacingLeft=4;spacingRight=4;overflow=hidden;rotatable=0;points=[[0,0.5],[1,0.5]];portConstraint=eastwest;rounded=0;shadow=0;html=0;" parent="ecw_OJBiE6QCDlSSsBEE-394" vertex="1">
          <mxGeometry y="134" width="280" height="26" as="geometry" />
        </mxCell>
        <mxCell id="ecw_OJBiE6QCDlSSsBEE-399" value="- descripcion: String" style="text;align=left;verticalAlign=top;spacingLeft=4;spacingRight=4;overflow=hidden;rotatable=0;points=[[0,0.5],[1,0.5]];portConstraint=eastwest;rounded=0;shadow=0;html=0;" parent="ecw_OJBiE6QCDlSSsBEE-394" vertex="1">
          <mxGeometry y="160" width="280" height="26" as="geometry" />
        </mxCell>
        <mxCell id="ecw_OJBiE6QCDlSSsBEE-401" value="- estaActiva: boolean" style="text;align=left;verticalAlign=top;spacingLeft=4;spacingRight=4;overflow=hidden;rotatable=0;points=[[0,0.5],[1,0.5]];portConstraint=eastwest;rounded=0;shadow=0;html=0;" parent="ecw_OJBiE6QCDlSSsBEE-394" vertex="1">
          <mxGeometry y="186" width="280" height="26" as="geometry" />
        </mxCell>
        <mxCell id="ecw_OJBiE6QCDlSSsBEE-402" value="" style="line;html=1;strokeWidth=1;align=left;verticalAlign=middle;spacingTop=-1;spacingLeft=3;spacingRight=3;rotatable=0;labelPosition=right;points=[];portConstraint=eastwest;" parent="ecw_OJBiE6QCDlSSsBEE-394" vertex="1">
          <mxGeometry y="212" width="280" height="8" as="geometry" />
        </mxCell>
        <mxCell id="ecw_OJBiE6QCDlSSsBEE-403" value="+ Sancion(id: int, usuario: Usuario, &#xa;prestamo: Prestamo, fechaSancion: LocalDate, &#xa;diasRetraso: int)" style="text;align=left;verticalAlign=top;spacingLeft=4;spacingRight=4;overflow=hidden;rotatable=0;points=[[0,0.5],[1,0.5]];portConstraint=eastwest;" parent="ecw_OJBiE6QCDlSSsBEE-394" vertex="1">
          <mxGeometry y="220" width="280" height="50" as="geometry" />
        </mxCell>
        <mxCell id="ecw_OJBiE6QCDlSSsBEE-404" value="+ getId(): int" style="text;align=left;verticalAlign=top;spacingLeft=4;spacingRight=4;overflow=hidden;rotatable=0;points=[[0,0.5],[1,0.5]];portConstraint=eastwest;rounded=0;shadow=0;html=0;" parent="ecw_OJBiE6QCDlSSsBEE-394" vertex="1">
          <mxGeometry y="270" width="280" height="26" as="geometry" />
        </mxCell>
        <mxCell id="ecw_OJBiE6QCDlSSsBEE-405" value="+ getUsuario(): Usuario" style="text;align=left;verticalAlign=top;spacingLeft=4;spacingRight=4;overflow=hidden;rotatable=0;points=[[0,0.5],[1,0.5]];portConstraint=eastwest;rounded=0;shadow=0;html=0;" parent="ecw_OJBiE6QCDlSSsBEE-394" vertex="1">
          <mxGeometry y="296" width="280" height="26" as="geometry" />
        </mxCell>
        <mxCell id="ecw_OJBiE6QCDlSSsBEE-406" value="+ getPrestamo(): PrestamoMaterial" style="text;align=left;verticalAlign=top;spacingLeft=4;spacingRight=4;overflow=hidden;rotatable=0;points=[[0,0.5],[1,0.5]];portConstraint=eastwest;rounded=0;shadow=0;html=0;" parent="ecw_OJBiE6QCDlSSsBEE-394" vertex="1">
          <mxGeometry y="322" width="280" height="26" as="geometry" />
        </mxCell>
        <mxCell id="ecw_OJBiE6QCDlSSsBEE-407" value="+ getFechaSancion(): LocalDate" style="text;align=left;verticalAlign=top;spacingLeft=4;spacingRight=4;overflow=hidden;rotatable=0;points=[[0,0.5],[1,0.5]];portConstraint=eastwest;rounded=0;shadow=0;html=0;" parent="ecw_OJBiE6QCDlSSsBEE-394" vertex="1">
          <mxGeometry y="348" width="280" height="26" as="geometry" />
        </mxCell>
        <mxCell id="ecw_OJBiE6QCDlSSsBEE-408" value="+ getFinalSancion(): LocalDate" style="text;align=left;verticalAlign=top;spacingLeft=4;spacingRight=4;overflow=hidden;rotatable=0;points=[[0,0.5],[1,0.5]];portConstraint=eastwest;rounded=0;shadow=0;html=0;" parent="ecw_OJBiE6QCDlSSsBEE-394" vertex="1">
          <mxGeometry y="374" width="280" height="26" as="geometry" />
        </mxCell>
        <mxCell id="ecw_OJBiE6QCDlSSsBEE-409" value="+ getDescripcion(): String" style="text;align=left;verticalAlign=top;spacingLeft=4;spacingRight=4;overflow=hidden;rotatable=0;points=[[0,0.5],[1,0.5]];portConstraint=eastwest;rounded=0;shadow=0;html=0;" parent="ecw_OJBiE6QCDlSSsBEE-394" vertex="1">
          <mxGeometry y="400" width="280" height="26" as="geometry" />
        </mxCell>
        <mxCell id="ecw_OJBiE6QCDlSSsBEE-410" value="+ isEstaActiva(): boolean" style="text;align=left;verticalAlign=top;spacingLeft=4;spacingRight=4;overflow=hidden;rotatable=0;points=[[0,0.5],[1,0.5]];portConstraint=eastwest;rounded=0;shadow=0;html=0;" parent="ecw_OJBiE6QCDlSSsBEE-394" vertex="1">
          <mxGeometry y="426" width="280" height="26" as="geometry" />
        </mxCell>
        <mxCell id="ecw_OJBiE6QCDlSSsBEE-411" value="+ setId(id: int): void" style="text;align=left;verticalAlign=top;spacingLeft=4;spacingRight=4;overflow=hidden;rotatable=0;points=[[0,0.5],[1,0.5]];portConstraint=eastwest;rounded=0;shadow=0;html=0;" parent="ecw_OJBiE6QCDlSSsBEE-394" vertex="1">
          <mxGeometry y="452" width="280" height="26" as="geometry" />
        </mxCell>
        <mxCell id="ecw_OJBiE6QCDlSSsBEE-412" value="+ setUsuario(usuario: Usuario): void" style="text;align=left;verticalAlign=top;spacingLeft=4;spacingRight=4;overflow=hidden;rotatable=0;points=[[0,0.5],[1,0.5]];portConstraint=eastwest;rounded=0;shadow=0;html=0;" parent="ecw_OJBiE6QCDlSSsBEE-394" vertex="1">
          <mxGeometry y="478" width="280" height="26" as="geometry" />
        </mxCell>
        <mxCell id="ecw_OJBiE6QCDlSSsBEE-413" value="+ setPrestamo(prestamo: Prestamo): void" style="text;align=left;verticalAlign=top;spacingLeft=4;spacingRight=4;overflow=hidden;rotatable=0;points=[[0,0.5],[1,0.5]];portConstraint=eastwest;rounded=0;shadow=0;html=0;" parent="ecw_OJBiE6QCDlSSsBEE-394" vertex="1">
          <mxGeometry y="504" width="280" height="26" as="geometry" />
        </mxCell>
        <mxCell id="ecw_OJBiE6QCDlSSsBEE-414" value="+ setFechaSancion(fechaSancion: LocalDate): &#xa;void" style="text;align=left;verticalAlign=top;spacingLeft=4;spacingRight=4;overflow=hidden;rotatable=0;points=[[0,0.5],[1,0.5]];portConstraint=eastwest;rounded=0;shadow=0;html=0;" parent="ecw_OJBiE6QCDlSSsBEE-394" vertex="1">
          <mxGeometry y="530" width="280" height="40" as="geometry" />
        </mxCell>
        <mxCell id="ecw_OJBiE6QCDlSSsBEE-415" value="+ setFinalSancion(finalSancion: LocalDate): void" style="text;align=left;verticalAlign=top;spacingLeft=4;spacingRight=4;overflow=hidden;rotatable=0;points=[[0,0.5],[1,0.5]];portConstraint=eastwest;rounded=0;shadow=0;html=0;" parent="ecw_OJBiE6QCDlSSsBEE-394" vertex="1">
          <mxGeometry y="570" width="280" height="26" as="geometry" />
        </mxCell>
        <mxCell id="ecw_OJBiE6QCDlSSsBEE-416" value="+ setDescripcion(descripcion: String): void" style="text;align=left;verticalAlign=top;spacingLeft=4;spacingRight=4;overflow=hidden;rotatable=0;points=[[0,0.5],[1,0.5]];portConstraint=eastwest;rounded=0;shadow=0;html=0;" parent="ecw_OJBiE6QCDlSSsBEE-394" vertex="1">
          <mxGeometry y="596" width="280" height="26" as="geometry" />
        </mxCell>
        <mxCell id="ecw_OJBiE6QCDlSSsBEE-417" value="+ setEstaActiva(estaActiva: boolean): void" style="text;align=left;verticalAlign=top;spacingLeft=4;spacingRight=4;overflow=hidden;rotatable=0;points=[[0,0.5],[1,0.5]];portConstraint=eastwest;rounded=0;shadow=0;html=0;" parent="ecw_OJBiE6QCDlSSsBEE-394" vertex="1">
          <mxGeometry y="622" width="280" height="26" as="geometry" />
        </mxCell>
        <mxCell id="w2-1c_2cRc1IGMD6rBRM-88" style="edgeStyle=orthogonalEdgeStyle;shape=connector;curved=0;rounded=1;orthogonalLoop=1;jettySize=auto;html=1;strokeColor=#FF9933;strokeWidth=2;align=center;verticalAlign=middle;fontFamily=Helvetica;fontSize=11;fontColor=default;labelBackgroundColor=default;endArrow=block;endFill=0;endSize=16;" parent="ecw_OJBiE6QCDlSSsBEE-1" source="ecw_OJBiE6QCDlSSsBEE-624" target="ecw_OJBiE6QCDlSSsBEE-79" edge="1">
          <mxGeometry relative="1" as="geometry">
            <Array as="points">
              <mxPoint x="-14590" y="-7032" />
            </Array>
          </mxGeometry>
        </mxCell>
        <mxCell id="ecw_OJBiE6QCDlSSsBEE-624" value="Audiovisual" style="swimlane;fontStyle=0;align=center;verticalAlign=top;childLayout=stackLayout;horizontal=1;startSize=30;horizontalStack=0;resizeParent=1;resizeLast=0;collapsible=1;marginBottom=0;rounded=0;shadow=0;strokeWidth=1;" parent="ecw_OJBiE6QCDlSSsBEE-1" vertex="1">
          <mxGeometry x="-14820" y="-6960" width="280" height="322" as="geometry">
            <mxRectangle x="1120" y="1730" width="160" height="26" as="alternateBounds" />
          </mxGeometry>
        </mxCell>
        <mxCell id="ecw_OJBiE6QCDlSSsBEE-625" value="- genero: String" style="text;align=left;verticalAlign=top;spacingLeft=4;spacingRight=4;overflow=hidden;rotatable=0;points=[[0,0.5],[1,0.5]];portConstraint=eastwest;rounded=0;shadow=0;html=0;" parent="ecw_OJBiE6QCDlSSsBEE-624" vertex="1">
          <mxGeometry y="30" width="280" height="26" as="geometry" />
        </mxCell>
        <mxCell id="Io0mgiuXpja9gsjWtPNP-7" value="- productora: String" style="text;align=left;verticalAlign=top;spacingLeft=4;spacingRight=4;overflow=hidden;rotatable=0;points=[[0,0.5],[1,0.5]];portConstraint=eastwest;rounded=0;shadow=0;html=0;" vertex="1" parent="ecw_OJBiE6QCDlSSsBEE-624">
          <mxGeometry y="56" width="280" height="26" as="geometry" />
        </mxCell>
        <mxCell id="ecw_OJBiE6QCDlSSsBEE-626" value="- formato: String" style="text;align=left;verticalAlign=top;spacingLeft=4;spacingRight=4;overflow=hidden;rotatable=0;points=[[0,0.5],[1,0.5]];portConstraint=eastwest;rounded=0;shadow=0;html=0;" parent="ecw_OJBiE6QCDlSSsBEE-624" vertex="1">
          <mxGeometry y="82" width="280" height="26" as="geometry" />
        </mxCell>
        <mxCell id="Io0mgiuXpja9gsjWtPNP-6" value="- duracion: int" style="text;align=left;verticalAlign=top;spacingLeft=4;spacingRight=4;overflow=hidden;rotatable=0;points=[[0,0.5],[1,0.5]];portConstraint=eastwest;rounded=0;shadow=0;html=0;" vertex="1" parent="ecw_OJBiE6QCDlSSsBEE-624">
          <mxGeometry y="108" width="280" height="26" as="geometry" />
        </mxCell>
        <mxCell id="ecw_OJBiE6QCDlSSsBEE-627" value="" style="line;html=1;strokeWidth=1;align=left;verticalAlign=middle;spacingTop=-1;spacingLeft=3;spacingRight=3;rotatable=0;labelPosition=right;points=[];portConstraint=eastwest;" parent="ecw_OJBiE6QCDlSSsBEE-624" vertex="1">
          <mxGeometry y="134" width="280" height="8" as="geometry" />
        </mxCell>
        <mxCell id="ecw_OJBiE6QCDlSSsBEE-628" value="+ Audiovisual(id: int, titulo: String, autor: String, &#xa;anioPublicacion: int, categoria: Categoria, &#xa;duracionMinutos: int, formato: String)" style="text;align=left;verticalAlign=top;spacingLeft=4;spacingRight=4;overflow=hidden;rotatable=0;points=[[0,0.5],[1,0.5]];portConstraint=eastwest;" parent="ecw_OJBiE6QCDlSSsBEE-624" vertex="1">
          <mxGeometry y="142" width="280" height="50" as="geometry" />
        </mxCell>
        <mxCell id="ecw_OJBiE6QCDlSSsBEE-629" value="+ getDuracion(): int" style="text;align=left;verticalAlign=top;spacingLeft=4;spacingRight=4;overflow=hidden;rotatable=0;points=[[0,0.5],[1,0.5]];portConstraint=eastwest;rounded=0;shadow=0;html=0;" parent="ecw_OJBiE6QCDlSSsBEE-624" vertex="1">
          <mxGeometry y="192" width="280" height="26" as="geometry" />
        </mxCell>
        <mxCell id="ecw_OJBiE6QCDlSSsBEE-630" value="+ getFormato(): String" style="text;align=left;verticalAlign=top;spacingLeft=4;spacingRight=4;overflow=hidden;rotatable=0;points=[[0,0.5],[1,0.5]];portConstraint=eastwest;rounded=0;shadow=0;html=0;" parent="ecw_OJBiE6QCDlSSsBEE-624" vertex="1">
          <mxGeometry y="218" width="280" height="26" as="geometry" />
        </mxCell>
        <mxCell id="ecw_OJBiE6QCDlSSsBEE-631" value="+ setDuracion(duracion: int): void" style="text;align=left;verticalAlign=top;spacingLeft=4;spacingRight=4;overflow=hidden;rotatable=0;points=[[0,0.5],[1,0.5]];portConstraint=eastwest;rounded=0;shadow=0;html=0;" parent="ecw_OJBiE6QCDlSSsBEE-624" vertex="1">
          <mxGeometry y="244" width="280" height="26" as="geometry" />
        </mxCell>
        <mxCell id="ecw_OJBiE6QCDlSSsBEE-632" value="+ setFormato(formato: String): void" style="text;align=left;verticalAlign=top;spacingLeft=4;spacingRight=4;overflow=hidden;rotatable=0;points=[[0,0.5],[1,0.5]];portConstraint=eastwest;rounded=0;shadow=0;html=0;" parent="ecw_OJBiE6QCDlSSsBEE-624" vertex="1">
          <mxGeometry y="270" width="280" height="26" as="geometry" />
        </mxCell>
        <mxCell id="ecw_OJBiE6QCDlSSsBEE-633" value="+ mostrarDetalles(): void" style="text;align=left;verticalAlign=top;spacingLeft=4;spacingRight=4;overflow=hidden;rotatable=0;points=[[0,0.5],[1,0.5]];portConstraint=eastwest;rounded=0;shadow=0;html=0;" parent="ecw_OJBiE6QCDlSSsBEE-624" vertex="1">
          <mxGeometry y="296" width="280" height="26" as="geometry" />
        </mxCell>
        <mxCell id="w2-1c_2cRc1IGMD6rBRM-94" style="edgeStyle=orthogonalEdgeStyle;shape=connector;curved=0;rounded=1;orthogonalLoop=1;jettySize=auto;html=1;strokeColor=#FF9933;strokeWidth=2;align=center;verticalAlign=middle;fontFamily=Helvetica;fontSize=11;fontColor=default;labelBackgroundColor=default;endArrow=block;endFill=0;endSize=16;" parent="ecw_OJBiE6QCDlSSsBEE-1" source="se7aEWiKqazrtZZNGl2T-11" target="ecw_OJBiE6QCDlSSsBEE-209" edge="1">
          <mxGeometry relative="1" as="geometry">
            <Array as="points">
              <mxPoint x="-13820" y="-6540" />
              <mxPoint x="-13480" y="-6540" />
            </Array>
          </mxGeometry>
        </mxCell>
        <mxCell id="w2-1c_2cRc1IGMD6rBRM-96" style="edgeStyle=orthogonalEdgeStyle;shape=connector;curved=0;rounded=1;orthogonalLoop=1;jettySize=auto;html=1;strokeColor=#000000;strokeWidth=2;align=center;verticalAlign=middle;fontFamily=Helvetica;fontSize=11;fontColor=default;labelBackgroundColor=default;endArrow=none;endFill=0;endSize=16;startFill=0;" parent="ecw_OJBiE6QCDlSSsBEE-1" source="se7aEWiKqazrtZZNGl2T-11" target="ecw_OJBiE6QCDlSSsBEE-7" edge="1">
          <mxGeometry relative="1" as="geometry">
            <Array as="points">
              <mxPoint x="-13680" y="-7480" />
              <mxPoint x="-15030" y="-7480" />
            </Array>
          </mxGeometry>
        </mxCell>
        <mxCell id="w2-1c_2cRc1IGMD6rBRM-97" value="0...*" style="edgeLabel;html=1;align=center;verticalAlign=middle;resizable=0;points=[];fontFamily=Helvetica;fontSize=11;fontColor=default;labelBackgroundColor=default;" parent="w2-1c_2cRc1IGMD6rBRM-96" vertex="1" connectable="0">
          <mxGeometry x="-0.9289" y="1" relative="1" as="geometry">
            <mxPoint x="21" y="23" as="offset" />
          </mxGeometry>
        </mxCell>
        <mxCell id="w2-1c_2cRc1IGMD6rBRM-98" value="1" style="edgeLabel;html=1;align=center;verticalAlign=middle;resizable=0;points=[];fontFamily=Helvetica;fontSize=11;fontColor=default;labelBackgroundColor=default;" parent="w2-1c_2cRc1IGMD6rBRM-96" vertex="1" connectable="0">
          <mxGeometry x="0.9619" relative="1" as="geometry">
            <mxPoint x="10" as="offset" />
          </mxGeometry>
        </mxCell>
        <mxCell id="w2-1c_2cRc1IGMD6rBRM-99" style="edgeStyle=orthogonalEdgeStyle;shape=connector;curved=0;rounded=1;orthogonalLoop=1;jettySize=auto;html=1;strokeColor=#000000;strokeWidth=2;align=center;verticalAlign=middle;fontFamily=Helvetica;fontSize=11;fontColor=default;labelBackgroundColor=default;startFill=0;endArrow=none;endFill=0;endSize=16;" parent="ecw_OJBiE6QCDlSSsBEE-1" source="se7aEWiKqazrtZZNGl2T-11" target="ecw_OJBiE6QCDlSSsBEE-79" edge="1">
          <mxGeometry relative="1" as="geometry">
            <Array as="points">
              <mxPoint x="-13790" y="-7410" />
              <mxPoint x="-14990" y="-7410" />
            </Array>
          </mxGeometry>
        </mxCell>
        <mxCell id="w2-1c_2cRc1IGMD6rBRM-100" value="0...*" style="edgeLabel;html=1;align=center;verticalAlign=middle;resizable=0;points=[];fontFamily=Helvetica;fontSize=11;fontColor=default;labelBackgroundColor=default;" parent="w2-1c_2cRc1IGMD6rBRM-99" vertex="1" connectable="0">
          <mxGeometry x="-0.9785" relative="1" as="geometry">
            <mxPoint x="20" as="offset" />
          </mxGeometry>
        </mxCell>
        <mxCell id="w2-1c_2cRc1IGMD6rBRM-101" value="1" style="edgeLabel;html=1;align=center;verticalAlign=middle;resizable=0;points=[];fontFamily=Helvetica;fontSize=11;fontColor=default;labelBackgroundColor=default;" parent="w2-1c_2cRc1IGMD6rBRM-99" vertex="1" connectable="0">
          <mxGeometry x="0.9721" y="-1" relative="1" as="geometry">
            <mxPoint x="11" y="8" as="offset" />
          </mxGeometry>
        </mxCell>
        <mxCell id="se7aEWiKqazrtZZNGl2T-11" value="PrestamoMaterial" style="swimlane;fontStyle=0;align=center;verticalAlign=top;childLayout=stackLayout;horizontal=1;startSize=30;horizontalStack=0;resizeParent=1;resizeLast=0;collapsible=1;marginBottom=0;rounded=0;shadow=0;strokeWidth=1;" parent="ecw_OJBiE6QCDlSSsBEE-1" vertex="1">
          <mxGeometry x="-13980" y="-7370" width="280" height="660" as="geometry">
            <mxRectangle x="130" y="380" width="160" height="26" as="alternateBounds" />
          </mxGeometry>
        </mxCell>
        <mxCell id="se7aEWiKqazrtZZNGl2T-12" value="- id: int" style="text;align=left;verticalAlign=top;spacingLeft=4;spacingRight=4;overflow=hidden;rotatable=0;points=[[0,0.5],[1,0.5]];portConstraint=eastwest;rounded=0;shadow=0;html=0;" parent="se7aEWiKqazrtZZNGl2T-11" vertex="1">
          <mxGeometry y="30" width="280" height="26" as="geometry" />
        </mxCell>
        <mxCell id="se7aEWiKqazrtZZNGl2T-13" value="- usuario: Usuario" style="text;align=left;verticalAlign=top;spacingLeft=4;spacingRight=4;overflow=hidden;rotatable=0;points=[[0,0.5],[1,0.5]];portConstraint=eastwest;rounded=0;shadow=0;html=0;" parent="se7aEWiKqazrtZZNGl2T-11" vertex="1">
          <mxGeometry y="56" width="280" height="26" as="geometry" />
        </mxCell>
        <mxCell id="se7aEWiKqazrtZZNGl2T-14" value="- material: Material" style="text;align=left;verticalAlign=top;spacingLeft=4;spacingRight=4;overflow=hidden;rotatable=0;points=[[0,0.5],[1,0.5]];portConstraint=eastwest;rounded=0;shadow=0;html=0;" parent="se7aEWiKqazrtZZNGl2T-11" vertex="1">
          <mxGeometry y="82" width="280" height="26" as="geometry" />
        </mxCell>
        <mxCell id="se7aEWiKqazrtZZNGl2T-15" value="- fechaPrestamo: LocalDate" style="text;align=left;verticalAlign=top;spacingLeft=4;spacingRight=4;overflow=hidden;rotatable=0;points=[[0,0.5],[1,0.5]];portConstraint=eastwest;rounded=0;shadow=0;html=0;" parent="se7aEWiKqazrtZZNGl2T-11" vertex="1">
          <mxGeometry y="108" width="280" height="26" as="geometry" />
        </mxCell>
        <mxCell id="se7aEWiKqazrtZZNGl2T-16" value="- fechaDevolucionPrevista: LocalDate" style="text;align=left;verticalAlign=top;spacingLeft=4;spacingRight=4;overflow=hidden;rotatable=0;points=[[0,0.5],[1,0.5]];portConstraint=eastwest;rounded=0;shadow=0;html=0;" parent="se7aEWiKqazrtZZNGl2T-11" vertex="1">
          <mxGeometry y="134" width="280" height="26" as="geometry" />
        </mxCell>
        <mxCell id="se7aEWiKqazrtZZNGl2T-17" value="- fechaDevolucionReal: LocalDate" style="text;align=left;verticalAlign=top;spacingLeft=4;spacingRight=4;overflow=hidden;rotatable=0;points=[[0,0.5],[1,0.5]];portConstraint=eastwest;rounded=0;shadow=0;html=0;" parent="se7aEWiKqazrtZZNGl2T-11" vertex="1">
          <mxGeometry y="160" width="280" height="26" as="geometry" />
        </mxCell>
        <mxCell id="se7aEWiKqazrtZZNGl2T-18" value="- estaActivo: boolean" style="text;align=left;verticalAlign=top;spacingLeft=4;spacingRight=4;overflow=hidden;rotatable=0;points=[[0,0.5],[1,0.5]];portConstraint=eastwest;rounded=0;shadow=0;html=0;" parent="se7aEWiKqazrtZZNGl2T-11" vertex="1">
          <mxGeometry y="186" width="280" height="26" as="geometry" />
        </mxCell>
        <mxCell id="se7aEWiKqazrtZZNGl2T-19" value="- esReserva: boolean" style="text;align=left;verticalAlign=top;spacingLeft=4;spacingRight=4;overflow=hidden;rotatable=0;points=[[0,0.5],[1,0.5]];portConstraint=eastwest;rounded=0;shadow=0;html=0;" parent="se7aEWiKqazrtZZNGl2T-11" vertex="1">
          <mxGeometry y="212" width="280" height="26" as="geometry" />
        </mxCell>
        <mxCell id="se7aEWiKqazrtZZNGl2T-21" value="" style="line;html=1;strokeWidth=1;align=left;verticalAlign=middle;spacingTop=-1;spacingLeft=3;spacingRight=3;rotatable=0;labelPosition=right;points=[];portConstraint=eastwest;" parent="se7aEWiKqazrtZZNGl2T-11" vertex="1">
          <mxGeometry y="238" width="280" height="8" as="geometry" />
        </mxCell>
        <mxCell id="se7aEWiKqazrtZZNGl2T-22" value="+ Prestamo(id: int, usuario: Usuario, &#xa;material: Material, fechaPrestamo: LocalDate, &#xa;fechaDevolucionPrevista: LocalDate)" style="text;align=left;verticalAlign=top;spacingLeft=4;spacingRight=4;overflow=hidden;rotatable=0;points=[[0,0.5],[1,0.5]];portConstraint=eastwest;" parent="se7aEWiKqazrtZZNGl2T-11" vertex="1">
          <mxGeometry y="246" width="280" height="48" as="geometry" />
        </mxCell>
        <mxCell id="se7aEWiKqazrtZZNGl2T-23" value="+ getId(): int" style="text;align=left;verticalAlign=top;spacingLeft=4;spacingRight=4;overflow=hidden;rotatable=0;points=[[0,0.5],[1,0.5]];portConstraint=eastwest;rounded=0;shadow=0;html=0;" parent="se7aEWiKqazrtZZNGl2T-11" vertex="1">
          <mxGeometry y="294" width="280" height="26" as="geometry" />
        </mxCell>
        <mxCell id="se7aEWiKqazrtZZNGl2T-24" value="+ getUsuario(): Usuario" style="text;align=left;verticalAlign=top;spacingLeft=4;spacingRight=4;overflow=hidden;rotatable=0;points=[[0,0.5],[1,0.5]];portConstraint=eastwest;rounded=0;shadow=0;html=0;" parent="se7aEWiKqazrtZZNGl2T-11" vertex="1">
          <mxGeometry y="320" width="280" height="26" as="geometry" />
        </mxCell>
        <mxCell id="se7aEWiKqazrtZZNGl2T-25" value="+ getMaterial(): Material" style="text;align=left;verticalAlign=top;spacingLeft=4;spacingRight=4;overflow=hidden;rotatable=0;points=[[0,0.5],[1,0.5]];portConstraint=eastwest;rounded=0;shadow=0;html=0;" parent="se7aEWiKqazrtZZNGl2T-11" vertex="1">
          <mxGeometry y="346" width="280" height="26" as="geometry" />
        </mxCell>
        <mxCell id="se7aEWiKqazrtZZNGl2T-26" value="+ getFechaPrestamo(): LocalDate" style="text;align=left;verticalAlign=top;spacingLeft=4;spacingRight=4;overflow=hidden;rotatable=0;points=[[0,0.5],[1,0.5]];portConstraint=eastwest;rounded=0;shadow=0;html=0;" parent="se7aEWiKqazrtZZNGl2T-11" vertex="1">
          <mxGeometry y="372" width="280" height="26" as="geometry" />
        </mxCell>
        <mxCell id="se7aEWiKqazrtZZNGl2T-27" value="+ getFechaDevolucionPrevista(): LocalDate" style="text;align=left;verticalAlign=top;spacingLeft=4;spacingRight=4;overflow=hidden;rotatable=0;points=[[0,0.5],[1,0.5]];portConstraint=eastwest;rounded=0;shadow=0;html=0;" parent="se7aEWiKqazrtZZNGl2T-11" vertex="1">
          <mxGeometry y="398" width="280" height="26" as="geometry" />
        </mxCell>
        <mxCell id="se7aEWiKqazrtZZNGl2T-28" value="+ getFechaDevolucionReal(): LocalDate" style="text;align=left;verticalAlign=top;spacingLeft=4;spacingRight=4;overflow=hidden;rotatable=0;points=[[0,0.5],[1,0.5]];portConstraint=eastwest;rounded=0;shadow=0;html=0;" parent="se7aEWiKqazrtZZNGl2T-11" vertex="1">
          <mxGeometry y="424" width="280" height="26" as="geometry" />
        </mxCell>
        <mxCell id="se7aEWiKqazrtZZNGl2T-29" value="+ isEstaActivo(): boolean" style="text;align=left;verticalAlign=top;spacingLeft=4;spacingRight=4;overflow=hidden;rotatable=0;points=[[0,0.5],[1,0.5]];portConstraint=eastwest;rounded=0;shadow=0;html=0;" parent="se7aEWiKqazrtZZNGl2T-11" vertex="1">
          <mxGeometry y="450" width="280" height="26" as="geometry" />
        </mxCell>
        <mxCell id="se7aEWiKqazrtZZNGl2T-32" value="+ setId(id: int): void" style="text;align=left;verticalAlign=top;spacingLeft=4;spacingRight=4;overflow=hidden;rotatable=0;points=[[0,0.5],[1,0.5]];portConstraint=eastwest;rounded=0;shadow=0;html=0;" parent="se7aEWiKqazrtZZNGl2T-11" vertex="1">
          <mxGeometry y="476" width="280" height="26" as="geometry" />
        </mxCell>
        <mxCell id="se7aEWiKqazrtZZNGl2T-33" value="+ setUsuario(usuario: Usuario): void" style="text;align=left;verticalAlign=top;spacingLeft=4;spacingRight=4;overflow=hidden;rotatable=0;points=[[0,0.5],[1,0.5]];portConstraint=eastwest;rounded=0;shadow=0;html=0;" parent="se7aEWiKqazrtZZNGl2T-11" vertex="1">
          <mxGeometry y="502" width="280" height="26" as="geometry" />
        </mxCell>
        <mxCell id="se7aEWiKqazrtZZNGl2T-34" value="+ setMaterial(material: Material): void" style="text;align=left;verticalAlign=top;spacingLeft=4;spacingRight=4;overflow=hidden;rotatable=0;points=[[0,0.5],[1,0.5]];portConstraint=eastwest;rounded=0;shadow=0;html=0;" parent="se7aEWiKqazrtZZNGl2T-11" vertex="1">
          <mxGeometry y="528" width="280" height="26" as="geometry" />
        </mxCell>
        <mxCell id="se7aEWiKqazrtZZNGl2T-35" value="+ setFechaPrestamo(fechaPrestamo: LocalDate): &#xa;void" style="text;align=left;verticalAlign=top;spacingLeft=4;spacingRight=4;overflow=hidden;rotatable=0;points=[[0,0.5],[1,0.5]];portConstraint=eastwest;rounded=0;shadow=0;html=0;" parent="se7aEWiKqazrtZZNGl2T-11" vertex="1">
          <mxGeometry y="554" width="280" height="38" as="geometry" />
        </mxCell>
        <mxCell id="se7aEWiKqazrtZZNGl2T-38" value="+ setEstaActivo(estaActivo: boolean): void" style="text;align=left;verticalAlign=top;spacingLeft=4;spacingRight=4;overflow=hidden;rotatable=0;points=[[0,0.5],[1,0.5]];portConstraint=eastwest;rounded=0;shadow=0;html=0;" parent="se7aEWiKqazrtZZNGl2T-11" vertex="1">
          <mxGeometry y="592" width="280" height="26" as="geometry" />
        </mxCell>
        <mxCell id="se7aEWiKqazrtZZNGl2T-42" value="+ isVencido(): boolean" style="text;align=left;verticalAlign=top;spacingLeft=4;spacingRight=4;overflow=hidden;rotatable=0;points=[[0,0.5],[1,0.5]];portConstraint=eastwest;rounded=0;shadow=0;html=0;" parent="se7aEWiKqazrtZZNGl2T-11" vertex="1">
          <mxGeometry y="618" width="280" height="26" as="geometry" />
        </mxCell>
        <mxCell id="se7aEWiKqazrtZZNGl2T-44" value="&lt;&lt; abstract &gt;&gt;&#xa;Recurso" style="swimlane;fontStyle=2;align=center;verticalAlign=top;childLayout=stackLayout;horizontal=1;startSize=40;horizontalStack=0;resizeParent=1;resizeLast=0;collapsible=1;marginBottom=0;rounded=0;shadow=0;strokeWidth=1;fillColor=#fa6800;fontColor=#000000;strokeColor=#C73500;" parent="ecw_OJBiE6QCDlSSsBEE-1" vertex="1">
          <mxGeometry x="-15160" y="-6400" width="280" height="414" as="geometry">
            <mxRectangle x="720" y="827" width="160" height="26" as="alternateBounds" />
          </mxGeometry>
        </mxCell>
        <mxCell id="se7aEWiKqazrtZZNGl2T-45" value="# id: int" style="text;align=left;verticalAlign=top;spacingLeft=4;spacingRight=4;overflow=hidden;rotatable=0;points=[[0,0.5],[1,0.5]];portConstraint=eastwest;" parent="se7aEWiKqazrtZZNGl2T-44" vertex="1">
          <mxGeometry y="40" width="280" height="26" as="geometry" />
        </mxCell>
        <mxCell id="Io0mgiuXpja9gsjWtPNP-9" value="# codigo: String" style="text;align=left;verticalAlign=top;spacingLeft=4;spacingRight=4;overflow=hidden;rotatable=0;points=[[0,0.5],[1,0.5]];portConstraint=eastwest;" vertex="1" parent="se7aEWiKqazrtZZNGl2T-44">
          <mxGeometry y="66" width="280" height="26" as="geometry" />
        </mxCell>
        <mxCell id="se7aEWiKqazrtZZNGl2T-47" value="# ubicacion: String" style="text;align=left;verticalAlign=top;spacingLeft=4;spacingRight=4;overflow=hidden;rotatable=0;points=[[0,0.5],[1,0.5]];portConstraint=eastwest;rounded=0;shadow=0;html=0;" parent="se7aEWiKqazrtZZNGl2T-44" vertex="1">
          <mxGeometry y="92" width="280" height="26" as="geometry" />
        </mxCell>
        <mxCell id="se7aEWiKqazrtZZNGl2T-49" value="# disponible: boolean" style="text;align=left;verticalAlign=top;spacingLeft=4;spacingRight=4;overflow=hidden;rotatable=0;points=[[0,0.5],[1,0.5]];portConstraint=eastwest;rounded=0;shadow=0;html=0;" parent="se7aEWiKqazrtZZNGl2T-44" vertex="1">
          <mxGeometry y="118" width="280" height="26" as="geometry" />
        </mxCell>
        <mxCell id="se7aEWiKqazrtZZNGl2T-53" value="" style="line;html=1;strokeWidth=1;align=left;verticalAlign=middle;spacingTop=-1;spacingLeft=3;spacingRight=3;rotatable=0;labelPosition=right;points=[];portConstraint=eastwest;" parent="se7aEWiKqazrtZZNGl2T-44" vertex="1">
          <mxGeometry y="144" width="280" height="8" as="geometry" />
        </mxCell>
        <mxCell id="se7aEWiKqazrtZZNGl2T-54" value="+ Recurso(id: int, codigo: String, ubicacion: String)" style="text;align=left;verticalAlign=top;spacingLeft=4;spacingRight=4;overflow=hidden;rotatable=0;points=[[0,0.5],[1,0.5]];portConstraint=eastwest;fontStyle=0" parent="se7aEWiKqazrtZZNGl2T-44" vertex="1">
          <mxGeometry y="152" width="280" height="28" as="geometry" />
        </mxCell>
        <mxCell id="se7aEWiKqazrtZZNGl2T-55" value="+ getId(): int" style="text;align=left;verticalAlign=top;spacingLeft=4;spacingRight=4;overflow=hidden;rotatable=0;points=[[0,0.5],[1,0.5]];portConstraint=eastwest;rounded=0;shadow=0;html=0;fontStyle=0" parent="se7aEWiKqazrtZZNGl2T-44" vertex="1">
          <mxGeometry y="180" width="280" height="26" as="geometry" />
        </mxCell>
        <mxCell id="se7aEWiKqazrtZZNGl2T-56" value="+ getNombre(): String" style="text;align=left;verticalAlign=top;spacingLeft=4;spacingRight=4;overflow=hidden;rotatable=0;points=[[0,0.5],[1,0.5]];portConstraint=eastwest;rounded=0;shadow=0;html=0;" parent="se7aEWiKqazrtZZNGl2T-44" vertex="1">
          <mxGeometry y="206" width="280" height="26" as="geometry" />
        </mxCell>
        <mxCell id="se7aEWiKqazrtZZNGl2T-57" value="+ getubicacion(): String" style="text;align=left;verticalAlign=top;spacingLeft=4;spacingRight=4;overflow=hidden;rotatable=0;points=[[0,0.5],[1,0.5]];portConstraint=eastwest;rounded=0;shadow=0;html=0;" parent="se7aEWiKqazrtZZNGl2T-44" vertex="1">
          <mxGeometry y="232" width="280" height="26" as="geometry" />
        </mxCell>
        <mxCell id="se7aEWiKqazrtZZNGl2T-58" value="+ getDisponible(): boolean" style="text;align=left;verticalAlign=top;spacingLeft=4;spacingRight=4;overflow=hidden;rotatable=0;points=[[0,0.5],[1,0.5]];portConstraint=eastwest;rounded=0;shadow=0;html=0;" parent="se7aEWiKqazrtZZNGl2T-44" vertex="1">
          <mxGeometry y="258" width="280" height="26" as="geometry" />
        </mxCell>
        <mxCell id="se7aEWiKqazrtZZNGl2T-60" value="+ setId(id: int): void" style="text;align=left;verticalAlign=top;spacingLeft=4;spacingRight=4;overflow=hidden;rotatable=0;points=[[0,0.5],[1,0.5]];portConstraint=eastwest;rounded=0;shadow=0;html=0;" parent="se7aEWiKqazrtZZNGl2T-44" vertex="1">
          <mxGeometry y="284" width="280" height="26" as="geometry" />
        </mxCell>
        <mxCell id="se7aEWiKqazrtZZNGl2T-61" value="+ setNombre(nombre: String): void" style="text;align=left;verticalAlign=top;spacingLeft=4;spacingRight=4;overflow=hidden;rotatable=0;points=[[0,0.5],[1,0.5]];portConstraint=eastwest;rounded=0;shadow=0;html=0;" parent="se7aEWiKqazrtZZNGl2T-44" vertex="1">
          <mxGeometry y="310" width="280" height="26" as="geometry" />
        </mxCell>
        <mxCell id="se7aEWiKqazrtZZNGl2T-62" value="+ setUbicacion(ubicacion: String): void" style="text;align=left;verticalAlign=top;spacingLeft=4;spacingRight=4;overflow=hidden;rotatable=0;points=[[0,0.5],[1,0.5]];portConstraint=eastwest;rounded=0;shadow=0;html=0;" parent="se7aEWiKqazrtZZNGl2T-44" vertex="1">
          <mxGeometry y="336" width="280" height="26" as="geometry" />
        </mxCell>
        <mxCell id="se7aEWiKqazrtZZNGl2T-63" value="+ setDisponible(disponible: boolean): void" style="text;align=left;verticalAlign=top;spacingLeft=4;spacingRight=4;overflow=hidden;rotatable=0;points=[[0,0.5],[1,0.5]];portConstraint=eastwest;rounded=0;shadow=0;html=0;" parent="se7aEWiKqazrtZZNGl2T-44" vertex="1">
          <mxGeometry y="362" width="280" height="26" as="geometry" />
        </mxCell>
        <mxCell id="se7aEWiKqazrtZZNGl2T-68" value="+ mostrarDetalles(): void" style="text;align=left;verticalAlign=top;spacingLeft=4;spacingRight=4;overflow=hidden;rotatable=0;points=[[0,0.5],[1,0.5]];portConstraint=eastwest;rounded=0;shadow=0;html=0;fontStyle=2" parent="se7aEWiKqazrtZZNGl2T-44" vertex="1">
          <mxGeometry y="388" width="280" height="26" as="geometry" />
        </mxCell>
        <mxCell id="w2-1c_2cRc1IGMD6rBRM-102" style="edgeStyle=orthogonalEdgeStyle;shape=connector;curved=0;rounded=1;orthogonalLoop=1;jettySize=auto;html=1;strokeColor=#000000;strokeWidth=2;align=center;verticalAlign=middle;fontFamily=Helvetica;fontSize=11;fontColor=default;labelBackgroundColor=default;startFill=0;endArrow=none;endFill=0;endSize=16;" parent="ecw_OJBiE6QCDlSSsBEE-1" source="w2-1c_2cRc1IGMD6rBRM-0" target="ecw_OJBiE6QCDlSSsBEE-7" edge="1">
          <mxGeometry relative="1" as="geometry">
            <Array as="points">
              <mxPoint x="-14080" y="-6300" />
              <mxPoint x="-14080" y="-7430" />
              <mxPoint x="-15070" y="-7430" />
            </Array>
          </mxGeometry>
        </mxCell>
        <mxCell id="w2-1c_2cRc1IGMD6rBRM-103" value="0...*" style="edgeLabel;html=1;align=center;verticalAlign=middle;resizable=0;points=[];fontFamily=Helvetica;fontSize=11;fontColor=default;labelBackgroundColor=default;" parent="w2-1c_2cRc1IGMD6rBRM-102" vertex="1" connectable="0">
          <mxGeometry x="-0.9794" relative="1" as="geometry">
            <mxPoint y="-16" as="offset" />
          </mxGeometry>
        </mxCell>
        <mxCell id="w2-1c_2cRc1IGMD6rBRM-104" value="1" style="edgeLabel;html=1;align=center;verticalAlign=middle;resizable=0;points=[];fontFamily=Helvetica;fontSize=11;fontColor=default;labelBackgroundColor=default;" parent="w2-1c_2cRc1IGMD6rBRM-102" vertex="1" connectable="0">
          <mxGeometry x="0.9832" y="1" relative="1" as="geometry">
            <mxPoint x="11" as="offset" />
          </mxGeometry>
        </mxCell>
        <mxCell id="w2-1c_2cRc1IGMD6rBRM-105" style="edgeStyle=orthogonalEdgeStyle;shape=connector;curved=0;rounded=1;orthogonalLoop=1;jettySize=auto;html=1;strokeColor=#000000;strokeWidth=2;align=center;verticalAlign=middle;fontFamily=Helvetica;fontSize=11;fontColor=default;labelBackgroundColor=default;startFill=0;endArrow=none;endFill=0;endSize=16;" parent="ecw_OJBiE6QCDlSSsBEE-1" source="w2-1c_2cRc1IGMD6rBRM-0" target="se7aEWiKqazrtZZNGl2T-44" edge="1">
          <mxGeometry relative="1" as="geometry">
            <mxPoint x="-14610" y="-7160" as="targetPoint" />
            <Array as="points">
              <mxPoint x="-14100" y="-6154" />
              <mxPoint x="-14100" y="-6540" />
              <mxPoint x="-14920" y="-6540" />
            </Array>
          </mxGeometry>
        </mxCell>
        <mxCell id="w2-1c_2cRc1IGMD6rBRM-106" value="1" style="edgeLabel;html=1;align=center;verticalAlign=middle;resizable=0;points=[];fontFamily=Helvetica;fontSize=11;fontColor=default;labelBackgroundColor=default;" parent="w2-1c_2cRc1IGMD6rBRM-105" vertex="1" connectable="0">
          <mxGeometry x="0.9878" y="2" relative="1" as="geometry">
            <mxPoint x="8" y="-1" as="offset" />
          </mxGeometry>
        </mxCell>
        <mxCell id="w2-1c_2cRc1IGMD6rBRM-107" value="0...*" style="edgeLabel;html=1;align=center;verticalAlign=middle;resizable=0;points=[];fontFamily=Helvetica;fontSize=11;fontColor=default;labelBackgroundColor=default;" parent="w2-1c_2cRc1IGMD6rBRM-105" vertex="1" connectable="0">
          <mxGeometry x="-0.9844" y="1" relative="1" as="geometry">
            <mxPoint y="-17" as="offset" />
          </mxGeometry>
        </mxCell>
        <mxCell id="w2-1c_2cRc1IGMD6rBRM-0" value="ReservaRecurso" style="swimlane;fontStyle=0;align=center;verticalAlign=top;childLayout=stackLayout;horizontal=1;startSize=30;horizontalStack=0;resizeParent=1;resizeLast=0;collapsible=1;marginBottom=0;rounded=0;shadow=0;strokeWidth=1;" parent="ecw_OJBiE6QCDlSSsBEE-1" vertex="1">
          <mxGeometry x="-13980" y="-6480" width="280" height="652" as="geometry">
            <mxRectangle x="130" y="380" width="160" height="26" as="alternateBounds" />
          </mxGeometry>
        </mxCell>
        <mxCell id="w2-1c_2cRc1IGMD6rBRM-1" value="- id: int" style="text;align=left;verticalAlign=top;spacingLeft=4;spacingRight=4;overflow=hidden;rotatable=0;points=[[0,0.5],[1,0.5]];portConstraint=eastwest;rounded=0;shadow=0;html=0;" parent="w2-1c_2cRc1IGMD6rBRM-0" vertex="1">
          <mxGeometry y="30" width="280" height="26" as="geometry" />
        </mxCell>
        <mxCell id="w2-1c_2cRc1IGMD6rBRM-2" value="- usuario: Usuario" style="text;align=left;verticalAlign=top;spacingLeft=4;spacingRight=4;overflow=hidden;rotatable=0;points=[[0,0.5],[1,0.5]];portConstraint=eastwest;rounded=0;shadow=0;html=0;" parent="w2-1c_2cRc1IGMD6rBRM-0" vertex="1">
          <mxGeometry y="56" width="280" height="26" as="geometry" />
        </mxCell>
        <mxCell id="w2-1c_2cRc1IGMD6rBRM-3" value="- recurso: Recurso" style="text;align=left;verticalAlign=top;spacingLeft=4;spacingRight=4;overflow=hidden;rotatable=0;points=[[0,0.5],[1,0.5]];portConstraint=eastwest;rounded=0;shadow=0;html=0;" parent="w2-1c_2cRc1IGMD6rBRM-0" vertex="1">
          <mxGeometry y="82" width="280" height="26" as="geometry" />
        </mxCell>
        <mxCell id="w2-1c_2cRc1IGMD6rBRM-4" value="- fechaHoraInicio: LocalDateTime" style="text;align=left;verticalAlign=top;spacingLeft=4;spacingRight=4;overflow=hidden;rotatable=0;points=[[0,0.5],[1,0.5]];portConstraint=eastwest;rounded=0;shadow=0;html=0;" parent="w2-1c_2cRc1IGMD6rBRM-0" vertex="1">
          <mxGeometry y="108" width="280" height="26" as="geometry" />
        </mxCell>
        <mxCell id="w2-1c_2cRc1IGMD6rBRM-5" value="- fechaHoraFin: LocalDateTime" style="text;align=left;verticalAlign=top;spacingLeft=4;spacingRight=4;overflow=hidden;rotatable=0;points=[[0,0.5],[1,0.5]];portConstraint=eastwest;rounded=0;shadow=0;html=0;" parent="w2-1c_2cRc1IGMD6rBRM-0" vertex="1">
          <mxGeometry y="134" width="280" height="26" as="geometry" />
        </mxCell>
        <mxCell id="w2-1c_2cRc1IGMD6rBRM-6" value="- participantes: int" style="text;align=left;verticalAlign=top;spacingLeft=4;spacingRight=4;overflow=hidden;rotatable=0;points=[[0,0.5],[1,0.5]];portConstraint=eastwest;rounded=0;shadow=0;html=0;" parent="w2-1c_2cRc1IGMD6rBRM-0" vertex="1">
          <mxGeometry y="160" width="280" height="26" as="geometry" />
        </mxCell>
        <mxCell id="w2-1c_2cRc1IGMD6rBRM-7" value="- estaActivo: boolean" style="text;align=left;verticalAlign=top;spacingLeft=4;spacingRight=4;overflow=hidden;rotatable=0;points=[[0,0.5],[1,0.5]];portConstraint=eastwest;rounded=0;shadow=0;html=0;" parent="w2-1c_2cRc1IGMD6rBRM-0" vertex="1">
          <mxGeometry y="186" width="280" height="26" as="geometry" />
        </mxCell>
        <mxCell id="w2-1c_2cRc1IGMD6rBRM-10" value="" style="line;html=1;strokeWidth=1;align=left;verticalAlign=middle;spacingTop=-1;spacingLeft=3;spacingRight=3;rotatable=0;labelPosition=right;points=[];portConstraint=eastwest;" parent="w2-1c_2cRc1IGMD6rBRM-0" vertex="1">
          <mxGeometry y="212" width="280" height="8" as="geometry" />
        </mxCell>
        <mxCell id="w2-1c_2cRc1IGMD6rBRM-11" value="+ ReservaRecurso(id: int, usuario: Usuario, &#xa;recurso: Recurso, fechaHoraInicio: LocalDateTime,&#xa;fechaHoraFin:LocalDateTime, participantes: int)" style="text;align=left;verticalAlign=top;spacingLeft=4;spacingRight=4;overflow=hidden;rotatable=0;points=[[0,0.5],[1,0.5]];portConstraint=eastwest;" parent="w2-1c_2cRc1IGMD6rBRM-0" vertex="1">
          <mxGeometry y="220" width="280" height="48" as="geometry" />
        </mxCell>
        <mxCell id="w2-1c_2cRc1IGMD6rBRM-12" value="+ getId(): int" style="text;align=left;verticalAlign=top;spacingLeft=4;spacingRight=4;overflow=hidden;rotatable=0;points=[[0,0.5],[1,0.5]];portConstraint=eastwest;rounded=0;shadow=0;html=0;" parent="w2-1c_2cRc1IGMD6rBRM-0" vertex="1">
          <mxGeometry y="268" width="280" height="26" as="geometry" />
        </mxCell>
        <mxCell id="w2-1c_2cRc1IGMD6rBRM-13" value="+ getUsuario(): Usuario" style="text;align=left;verticalAlign=top;spacingLeft=4;spacingRight=4;overflow=hidden;rotatable=0;points=[[0,0.5],[1,0.5]];portConstraint=eastwest;rounded=0;shadow=0;html=0;" parent="w2-1c_2cRc1IGMD6rBRM-0" vertex="1">
          <mxGeometry y="294" width="280" height="26" as="geometry" />
        </mxCell>
        <mxCell id="w2-1c_2cRc1IGMD6rBRM-14" value="+ getRecurso(): Recurso" style="text;align=left;verticalAlign=top;spacingLeft=4;spacingRight=4;overflow=hidden;rotatable=0;points=[[0,0.5],[1,0.5]];portConstraint=eastwest;rounded=0;shadow=0;html=0;" parent="w2-1c_2cRc1IGMD6rBRM-0" vertex="1">
          <mxGeometry y="320" width="280" height="26" as="geometry" />
        </mxCell>
        <mxCell id="w2-1c_2cRc1IGMD6rBRM-15" value="+ getFechaHoraInicio(): LocalDateTime" style="text;align=left;verticalAlign=top;spacingLeft=4;spacingRight=4;overflow=hidden;rotatable=0;points=[[0,0.5],[1,0.5]];portConstraint=eastwest;rounded=0;shadow=0;html=0;" parent="w2-1c_2cRc1IGMD6rBRM-0" vertex="1">
          <mxGeometry y="346" width="280" height="26" as="geometry" />
        </mxCell>
        <mxCell id="w2-1c_2cRc1IGMD6rBRM-16" value="+ getFechaHoraFin(): LocalDateTime" style="text;align=left;verticalAlign=top;spacingLeft=4;spacingRight=4;overflow=hidden;rotatable=0;points=[[0,0.5],[1,0.5]];portConstraint=eastwest;rounded=0;shadow=0;html=0;" parent="w2-1c_2cRc1IGMD6rBRM-0" vertex="1">
          <mxGeometry y="372" width="280" height="26" as="geometry" />
        </mxCell>
        <mxCell id="w2-1c_2cRc1IGMD6rBRM-18" value="+ isEstaActivo(): boolean" style="text;align=left;verticalAlign=top;spacingLeft=4;spacingRight=4;overflow=hidden;rotatable=0;points=[[0,0.5],[1,0.5]];portConstraint=eastwest;rounded=0;shadow=0;html=0;" parent="w2-1c_2cRc1IGMD6rBRM-0" vertex="1">
          <mxGeometry y="398" width="280" height="26" as="geometry" />
        </mxCell>
        <mxCell id="w2-1c_2cRc1IGMD6rBRM-20" value="+ getSancionAplicada(): Sancion" style="text;align=left;verticalAlign=top;spacingLeft=4;spacingRight=4;overflow=hidden;rotatable=0;points=[[0,0.5],[1,0.5]];portConstraint=eastwest;rounded=0;shadow=0;html=0;" parent="w2-1c_2cRc1IGMD6rBRM-0" vertex="1">
          <mxGeometry y="424" width="280" height="26" as="geometry" />
        </mxCell>
        <mxCell id="w2-1c_2cRc1IGMD6rBRM-21" value="+ setId(id: int): void" style="text;align=left;verticalAlign=top;spacingLeft=4;spacingRight=4;overflow=hidden;rotatable=0;points=[[0,0.5],[1,0.5]];portConstraint=eastwest;rounded=0;shadow=0;html=0;" parent="w2-1c_2cRc1IGMD6rBRM-0" vertex="1">
          <mxGeometry y="450" width="280" height="26" as="geometry" />
        </mxCell>
        <mxCell id="w2-1c_2cRc1IGMD6rBRM-22" value="+ setUsuario(usuario: Usuario): void" style="text;align=left;verticalAlign=top;spacingLeft=4;spacingRight=4;overflow=hidden;rotatable=0;points=[[0,0.5],[1,0.5]];portConstraint=eastwest;rounded=0;shadow=0;html=0;" parent="w2-1c_2cRc1IGMD6rBRM-0" vertex="1">
          <mxGeometry y="476" width="280" height="26" as="geometry" />
        </mxCell>
        <mxCell id="w2-1c_2cRc1IGMD6rBRM-23" value="+ setRecurso(recurso: Recurso): void" style="text;align=left;verticalAlign=top;spacingLeft=4;spacingRight=4;overflow=hidden;rotatable=0;points=[[0,0.5],[1,0.5]];portConstraint=eastwest;rounded=0;shadow=0;html=0;" parent="w2-1c_2cRc1IGMD6rBRM-0" vertex="1">
          <mxGeometry y="502" width="280" height="26" as="geometry" />
        </mxCell>
        <mxCell id="w2-1c_2cRc1IGMD6rBRM-24" value="+ setFechaHoraInicio(&#xa;fechaHoraInicio: LocalDateTime): void" style="text;align=left;verticalAlign=top;spacingLeft=4;spacingRight=4;overflow=hidden;rotatable=0;points=[[0,0.5],[1,0.5]];portConstraint=eastwest;rounded=0;shadow=0;html=0;" parent="w2-1c_2cRc1IGMD6rBRM-0" vertex="1">
          <mxGeometry y="528" width="280" height="38" as="geometry" />
        </mxCell>
        <mxCell id="w2-1c_2cRc1IGMD6rBRM-25" value="+ setFechaHoraFin(&#xa;fechaHoraFin: LocalDateTime): void" style="text;align=left;verticalAlign=top;spacingLeft=4;spacingRight=4;overflow=hidden;rotatable=0;points=[[0,0.5],[1,0.5]];portConstraint=eastwest;rounded=0;shadow=0;html=0;" parent="w2-1c_2cRc1IGMD6rBRM-0" vertex="1">
          <mxGeometry y="566" width="280" height="34" as="geometry" />
        </mxCell>
        <mxCell id="w2-1c_2cRc1IGMD6rBRM-27" value="+ setEstaActivo(estaActivo: boolean): void" style="text;align=left;verticalAlign=top;spacingLeft=4;spacingRight=4;overflow=hidden;rotatable=0;points=[[0,0.5],[1,0.5]];portConstraint=eastwest;rounded=0;shadow=0;html=0;" parent="w2-1c_2cRc1IGMD6rBRM-0" vertex="1">
          <mxGeometry y="600" width="280" height="26" as="geometry" />
        </mxCell>
        <mxCell id="w2-1c_2cRc1IGMD6rBRM-31" value="+ estaVencida(): boolean" style="text;align=left;verticalAlign=top;spacingLeft=4;spacingRight=4;overflow=hidden;rotatable=0;points=[[0,0.5],[1,0.5]];portConstraint=eastwest;rounded=0;shadow=0;html=0;" parent="w2-1c_2cRc1IGMD6rBRM-0" vertex="1">
          <mxGeometry y="626" width="280" height="26" as="geometry" />
        </mxCell>
        <mxCell id="w2-1c_2cRc1IGMD6rBRM-118" style="edgeStyle=orthogonalEdgeStyle;shape=connector;curved=0;rounded=1;orthogonalLoop=1;jettySize=auto;html=1;dashed=1;strokeColor=#33FF33;strokeWidth=2;align=center;verticalAlign=middle;fontFamily=Helvetica;fontSize=11;fontColor=default;labelBackgroundColor=default;endArrow=open;endFill=0;endSize=16;" parent="ecw_OJBiE6QCDlSSsBEE-1" source="w2-1c_2cRc1IGMD6rBRM-36" target="ecw_OJBiE6QCDlSSsBEE-276" edge="1">
          <mxGeometry relative="1" as="geometry">
            <Array as="points">
              <mxPoint x="-13100" y="-7520" />
              <mxPoint x="-12920" y="-7520" />
              <mxPoint x="-12920" y="-8220" />
              <mxPoint x="-13820" y="-8220" />
            </Array>
          </mxGeometry>
        </mxCell>
        <mxCell id="w2-1c_2cRc1IGMD6rBRM-36" value="ServicioMaterial" style="swimlane;fontStyle=0;align=center;verticalAlign=top;childLayout=stackLayout;horizontal=1;startSize=30;horizontalStack=0;resizeParent=1;resizeLast=0;collapsible=1;marginBottom=0;rounded=0;shadow=0;strokeWidth=1;" parent="ecw_OJBiE6QCDlSSsBEE-1" vertex="1">
          <mxGeometry x="-13200" y="-7380" width="280" height="262" as="geometry">
            <mxRectangle x="130" y="380" width="160" height="26" as="alternateBounds" />
          </mxGeometry>
        </mxCell>
        <mxCell id="w2-1c_2cRc1IGMD6rBRM-37" value="- dbManager: BaseDatos" style="text;align=left;verticalAlign=top;spacingLeft=4;spacingRight=4;overflow=hidden;rotatable=0;points=[[0,0.5],[1,0.5]];portConstraint=eastwest;rounded=0;shadow=0;html=0;" parent="w2-1c_2cRc1IGMD6rBRM-36" vertex="1">
          <mxGeometry y="30" width="280" height="26" as="geometry" />
        </mxCell>
        <mxCell id="w2-1c_2cRc1IGMD6rBRM-38" value="" style="line;html=1;strokeWidth=1;align=left;verticalAlign=middle;spacingTop=-1;spacingLeft=3;spacingRight=3;rotatable=0;labelPosition=right;points=[];portConstraint=eastwest;" parent="w2-1c_2cRc1IGMD6rBRM-36" vertex="1">
          <mxGeometry y="56" width="280" height="8" as="geometry" />
        </mxCell>
        <mxCell id="w2-1c_2cRc1IGMD6rBRM-39" value="+ ServicioMaterial(dbManager: BaseDatos)" style="text;align=left;verticalAlign=top;spacingLeft=4;spacingRight=4;overflow=hidden;rotatable=0;points=[[0,0.5],[1,0.5]];portConstraint=eastwest;" parent="w2-1c_2cRc1IGMD6rBRM-36" vertex="1">
          <mxGeometry y="64" width="280" height="26" as="geometry" />
        </mxCell>
        <mxCell id="w2-1c_2cRc1IGMD6rBRM-40" value="+ agregarMaterial(material: Material): void" style="text;align=left;verticalAlign=top;spacingLeft=4;spacingRight=4;overflow=hidden;rotatable=0;points=[[0,0.5],[1,0.5]];portConstraint=eastwest;rounded=0;shadow=0;html=0;" parent="w2-1c_2cRc1IGMD6rBRM-36" vertex="1">
          <mxGeometry y="90" width="280" height="26" as="geometry" />
        </mxCell>
        <mxCell id="w2-1c_2cRc1IGMD6rBRM-41" value="+ getMaterialPorId(id: int): Material" style="text;align=left;verticalAlign=top;spacingLeft=4;spacingRight=4;overflow=hidden;rotatable=0;points=[[0,0.5],[1,0.5]];portConstraint=eastwest;rounded=0;shadow=0;html=0;" parent="w2-1c_2cRc1IGMD6rBRM-36" vertex="1">
          <mxGeometry y="116" width="280" height="26" as="geometry" />
        </mxCell>
        <mxCell id="w2-1c_2cRc1IGMD6rBRM-42" value="+ getMateriales(id: int): List&lt;Material&gt;" style="text;align=left;verticalAlign=top;spacingLeft=4;spacingRight=4;overflow=hidden;rotatable=0;points=[[0,0.5],[1,0.5]];portConstraint=eastwest;rounded=0;shadow=0;html=0;" parent="w2-1c_2cRc1IGMD6rBRM-36" vertex="1">
          <mxGeometry y="142" width="280" height="26" as="geometry" />
        </mxCell>
        <mxCell id="w2-1c_2cRc1IGMD6rBRM-43" value="+ buscarMateriales(query: String, &#xa;tipoBusqueda: String): List&lt;Material&gt;" style="text;align=left;verticalAlign=top;spacingLeft=4;spacingRight=4;overflow=hidden;rotatable=0;points=[[0,0.5],[1,0.5]];portConstraint=eastwest;rounded=0;shadow=0;html=0;" parent="w2-1c_2cRc1IGMD6rBRM-36" vertex="1">
          <mxGeometry y="168" width="280" height="42" as="geometry" />
        </mxCell>
        <mxCell id="w2-1c_2cRc1IGMD6rBRM-44" value="+ actualizarMaterial(material: Material): void" style="text;align=left;verticalAlign=top;spacingLeft=4;spacingRight=4;overflow=hidden;rotatable=0;points=[[0,0.5],[1,0.5]];portConstraint=eastwest;rounded=0;shadow=0;html=0;" parent="w2-1c_2cRc1IGMD6rBRM-36" vertex="1">
          <mxGeometry y="210" width="280" height="26" as="geometry" />
        </mxCell>
        <mxCell id="w2-1c_2cRc1IGMD6rBRM-45" value="+ borrarMaterial(material: Material): void" style="text;align=left;verticalAlign=top;spacingLeft=4;spacingRight=4;overflow=hidden;rotatable=0;points=[[0,0.5],[1,0.5]];portConstraint=eastwest;rounded=0;shadow=0;html=0;" parent="w2-1c_2cRc1IGMD6rBRM-36" vertex="1">
          <mxGeometry y="236" width="280" height="26" as="geometry" />
        </mxCell>
        <mxCell id="w2-1c_2cRc1IGMD6rBRM-121" style="edgeStyle=orthogonalEdgeStyle;shape=connector;curved=0;rounded=1;orthogonalLoop=1;jettySize=auto;html=1;dashed=1;strokeColor=#33FF33;strokeWidth=2;align=center;verticalAlign=middle;fontFamily=Helvetica;fontSize=11;fontColor=default;labelBackgroundColor=default;endArrow=open;endFill=0;endSize=16;" parent="ecw_OJBiE6QCDlSSsBEE-1" source="w2-1c_2cRc1IGMD6rBRM-46" target="ecw_OJBiE6QCDlSSsBEE-276" edge="1">
          <mxGeometry relative="1" as="geometry">
            <Array as="points">
              <mxPoint x="-13060" y="-7090" />
              <mxPoint x="-12900" y="-7090" />
              <mxPoint x="-12900" y="-8220" />
              <mxPoint x="-13820" y="-8220" />
            </Array>
          </mxGeometry>
        </mxCell>
        <mxCell id="w2-1c_2cRc1IGMD6rBRM-46" value="ServicioRecurso" style="swimlane;fontStyle=0;align=center;verticalAlign=top;childLayout=stackLayout;horizontal=1;startSize=30;horizontalStack=0;resizeParent=1;resizeLast=0;collapsible=1;marginBottom=0;rounded=0;shadow=0;strokeWidth=1;" parent="ecw_OJBiE6QCDlSSsBEE-1" vertex="1">
          <mxGeometry x="-13200" y="-7060" width="280" height="262" as="geometry">
            <mxRectangle x="130" y="380" width="160" height="26" as="alternateBounds" />
          </mxGeometry>
        </mxCell>
        <mxCell id="w2-1c_2cRc1IGMD6rBRM-47" value="- dbManager: BaseDatos" style="text;align=left;verticalAlign=top;spacingLeft=4;spacingRight=4;overflow=hidden;rotatable=0;points=[[0,0.5],[1,0.5]];portConstraint=eastwest;rounded=0;shadow=0;html=0;" parent="w2-1c_2cRc1IGMD6rBRM-46" vertex="1">
          <mxGeometry y="30" width="280" height="26" as="geometry" />
        </mxCell>
        <mxCell id="w2-1c_2cRc1IGMD6rBRM-48" value="" style="line;html=1;strokeWidth=1;align=left;verticalAlign=middle;spacingTop=-1;spacingLeft=3;spacingRight=3;rotatable=0;labelPosition=right;points=[];portConstraint=eastwest;" parent="w2-1c_2cRc1IGMD6rBRM-46" vertex="1">
          <mxGeometry y="56" width="280" height="8" as="geometry" />
        </mxCell>
        <mxCell id="w2-1c_2cRc1IGMD6rBRM-49" value="+ ServicioRecurso(dbManager: BaseDatos)" style="text;align=left;verticalAlign=top;spacingLeft=4;spacingRight=4;overflow=hidden;rotatable=0;points=[[0,0.5],[1,0.5]];portConstraint=eastwest;" parent="w2-1c_2cRc1IGMD6rBRM-46" vertex="1">
          <mxGeometry y="64" width="280" height="26" as="geometry" />
        </mxCell>
        <mxCell id="w2-1c_2cRc1IGMD6rBRM-50" value="+ agregarRecurso(recurso: Recurso): void" style="text;align=left;verticalAlign=top;spacingLeft=4;spacingRight=4;overflow=hidden;rotatable=0;points=[[0,0.5],[1,0.5]];portConstraint=eastwest;rounded=0;shadow=0;html=0;" parent="w2-1c_2cRc1IGMD6rBRM-46" vertex="1">
          <mxGeometry y="90" width="280" height="26" as="geometry" />
        </mxCell>
        <mxCell id="w2-1c_2cRc1IGMD6rBRM-51" value="+ getRecursoPorId(id: int): Recurso" style="text;align=left;verticalAlign=top;spacingLeft=4;spacingRight=4;overflow=hidden;rotatable=0;points=[[0,0.5],[1,0.5]];portConstraint=eastwest;rounded=0;shadow=0;html=0;" parent="w2-1c_2cRc1IGMD6rBRM-46" vertex="1">
          <mxGeometry y="116" width="280" height="26" as="geometry" />
        </mxCell>
        <mxCell id="w2-1c_2cRc1IGMD6rBRM-52" value="+ getRecursos(id: int): List&lt;Recurso&gt;" style="text;align=left;verticalAlign=top;spacingLeft=4;spacingRight=4;overflow=hidden;rotatable=0;points=[[0,0.5],[1,0.5]];portConstraint=eastwest;rounded=0;shadow=0;html=0;" parent="w2-1c_2cRc1IGMD6rBRM-46" vertex="1">
          <mxGeometry y="142" width="280" height="26" as="geometry" />
        </mxCell>
        <mxCell id="w2-1c_2cRc1IGMD6rBRM-53" value="+ buscarRecursos(query: String, &#xa;tipoBusqueda: String): List&lt;Recurso&gt;" style="text;align=left;verticalAlign=top;spacingLeft=4;spacingRight=4;overflow=hidden;rotatable=0;points=[[0,0.5],[1,0.5]];portConstraint=eastwest;rounded=0;shadow=0;html=0;" parent="w2-1c_2cRc1IGMD6rBRM-46" vertex="1">
          <mxGeometry y="168" width="280" height="42" as="geometry" />
        </mxCell>
        <mxCell id="w2-1c_2cRc1IGMD6rBRM-54" value="+ actualizarRecurso(recurso: Recurso): void" style="text;align=left;verticalAlign=top;spacingLeft=4;spacingRight=4;overflow=hidden;rotatable=0;points=[[0,0.5],[1,0.5]];portConstraint=eastwest;rounded=0;shadow=0;html=0;" parent="w2-1c_2cRc1IGMD6rBRM-46" vertex="1">
          <mxGeometry y="210" width="280" height="26" as="geometry" />
        </mxCell>
        <mxCell id="w2-1c_2cRc1IGMD6rBRM-55" value="+ borrarRecurso(recurso: Recurso): void" style="text;align=left;verticalAlign=top;spacingLeft=4;spacingRight=4;overflow=hidden;rotatable=0;points=[[0,0.5],[1,0.5]];portConstraint=eastwest;rounded=0;shadow=0;html=0;" parent="w2-1c_2cRc1IGMD6rBRM-46" vertex="1">
          <mxGeometry y="236" width="280" height="26" as="geometry" />
        </mxCell>
        <mxCell id="w2-1c_2cRc1IGMD6rBRM-120" style="edgeStyle=orthogonalEdgeStyle;shape=connector;curved=0;rounded=1;orthogonalLoop=1;jettySize=auto;html=1;dashed=1;strokeColor=#33FF33;strokeWidth=2;align=center;verticalAlign=middle;fontFamily=Helvetica;fontSize=11;fontColor=default;labelBackgroundColor=default;endArrow=open;endFill=0;endSize=16;" parent="ecw_OJBiE6QCDlSSsBEE-1" source="w2-1c_2cRc1IGMD6rBRM-56" target="ecw_OJBiE6QCDlSSsBEE-276" edge="1">
          <mxGeometry relative="1" as="geometry">
            <Array as="points">
              <mxPoint x="-13800" y="-7870" />
              <mxPoint x="-13800" y="-7870" />
            </Array>
          </mxGeometry>
        </mxCell>
        <mxCell id="w2-1c_2cRc1IGMD6rBRM-56" value="ServicioSancion" style="swimlane;fontStyle=0;align=center;verticalAlign=top;childLayout=stackLayout;horizontal=1;startSize=30;horizontalStack=0;resizeParent=1;resizeLast=0;collapsible=1;marginBottom=0;rounded=0;shadow=0;strokeWidth=1;" parent="ecw_OJBiE6QCDlSSsBEE-1" vertex="1">
          <mxGeometry x="-13960" y="-7820" width="280" height="206" as="geometry">
            <mxRectangle x="130" y="380" width="160" height="26" as="alternateBounds" />
          </mxGeometry>
        </mxCell>
        <mxCell id="w2-1c_2cRc1IGMD6rBRM-57" value="- dbManager: BaseDatos" style="text;align=left;verticalAlign=top;spacingLeft=4;spacingRight=4;overflow=hidden;rotatable=0;points=[[0,0.5],[1,0.5]];portConstraint=eastwest;rounded=0;shadow=0;html=0;" parent="w2-1c_2cRc1IGMD6rBRM-56" vertex="1">
          <mxGeometry y="30" width="280" height="26" as="geometry" />
        </mxCell>
        <mxCell id="w2-1c_2cRc1IGMD6rBRM-58" value="" style="line;html=1;strokeWidth=1;align=left;verticalAlign=middle;spacingTop=-1;spacingLeft=3;spacingRight=3;rotatable=0;labelPosition=right;points=[];portConstraint=eastwest;" parent="w2-1c_2cRc1IGMD6rBRM-56" vertex="1">
          <mxGeometry y="56" width="280" height="8" as="geometry" />
        </mxCell>
        <mxCell id="w2-1c_2cRc1IGMD6rBRM-59" value="+ ServicioSancion(dbManager: BaseDatos)" style="text;align=left;verticalAlign=top;spacingLeft=4;spacingRight=4;overflow=hidden;rotatable=0;points=[[0,0.5],[1,0.5]];portConstraint=eastwest;" parent="w2-1c_2cRc1IGMD6rBRM-56" vertex="1">
          <mxGeometry y="64" width="280" height="26" as="geometry" />
        </mxCell>
        <mxCell id="w2-1c_2cRc1IGMD6rBRM-60" value="+ aplicarSancion(sancion: Sancion): void" style="text;align=left;verticalAlign=top;spacingLeft=4;spacingRight=4;overflow=hidden;rotatable=0;points=[[0,0.5],[1,0.5]];portConstraint=eastwest;rounded=0;shadow=0;html=0;" parent="w2-1c_2cRc1IGMD6rBRM-56" vertex="1">
          <mxGeometry y="90" width="280" height="26" as="geometry" />
        </mxCell>
        <mxCell id="w2-1c_2cRc1IGMD6rBRM-61" value="+ getSancionesPorUsuario(usuario: Usuario): &#xa;List&lt;Sancion&gt;" style="text;align=left;verticalAlign=top;spacingLeft=4;spacingRight=4;overflow=hidden;rotatable=0;points=[[0,0.5],[1,0.5]];portConstraint=eastwest;rounded=0;shadow=0;html=0;" parent="w2-1c_2cRc1IGMD6rBRM-56" vertex="1">
          <mxGeometry y="116" width="280" height="34" as="geometry" />
        </mxCell>
        <mxCell id="w2-1c_2cRc1IGMD6rBRM-76" value="+ getSancionPorId(idSancion: int): Sancion" style="text;align=left;verticalAlign=top;spacingLeft=4;spacingRight=4;overflow=hidden;rotatable=0;points=[[0,0.5],[1,0.5]];portConstraint=eastwest;rounded=0;shadow=0;html=0;" parent="w2-1c_2cRc1IGMD6rBRM-56" vertex="1">
          <mxGeometry y="150" width="280" height="30" as="geometry" />
        </mxCell>
        <mxCell id="w2-1c_2cRc1IGMD6rBRM-62" value="+ levantarSancion(idSancion: int): void" style="text;align=left;verticalAlign=top;spacingLeft=4;spacingRight=4;overflow=hidden;rotatable=0;points=[[0,0.5],[1,0.5]];portConstraint=eastwest;rounded=0;shadow=0;html=0;" parent="w2-1c_2cRc1IGMD6rBRM-56" vertex="1">
          <mxGeometry y="180" width="280" height="26" as="geometry" />
        </mxCell>
        <mxCell id="w2-1c_2cRc1IGMD6rBRM-119" style="edgeStyle=orthogonalEdgeStyle;shape=connector;curved=0;rounded=1;orthogonalLoop=1;jettySize=auto;html=1;dashed=1;strokeColor=#33FF33;strokeWidth=2;align=center;verticalAlign=middle;fontFamily=Helvetica;fontSize=11;fontColor=default;labelBackgroundColor=default;endArrow=open;endFill=0;endSize=16;" parent="ecw_OJBiE6QCDlSSsBEE-1" source="w2-1c_2cRc1IGMD6rBRM-66" target="ecw_OJBiE6QCDlSSsBEE-276" edge="1">
          <mxGeometry relative="1" as="geometry">
            <Array as="points">
              <mxPoint x="-13460" y="-8220" />
              <mxPoint x="-13820" y="-8220" />
            </Array>
          </mxGeometry>
        </mxCell>
        <mxCell id="w2-1c_2cRc1IGMD6rBRM-122" style="edgeStyle=orthogonalEdgeStyle;shape=connector;curved=0;rounded=1;orthogonalLoop=1;jettySize=auto;html=1;dashed=1;strokeColor=#33FF33;strokeWidth=2;align=center;verticalAlign=middle;fontFamily=Helvetica;fontSize=11;fontColor=default;labelBackgroundColor=default;endArrow=open;endFill=0;endSize=16;" parent="ecw_OJBiE6QCDlSSsBEE-1" source="w2-1c_2cRc1IGMD6rBRM-66" target="w2-1c_2cRc1IGMD6rBRM-36" edge="1">
          <mxGeometry relative="1" as="geometry">
            <Array as="points">
              <mxPoint x="-12940" y="-7902" />
              <mxPoint x="-12940" y="-7560" />
              <mxPoint x="-13040" y="-7560" />
            </Array>
          </mxGeometry>
        </mxCell>
        <mxCell id="w2-1c_2cRc1IGMD6rBRM-123" style="edgeStyle=orthogonalEdgeStyle;shape=connector;curved=0;rounded=1;orthogonalLoop=1;jettySize=auto;html=1;dashed=1;strokeColor=#33FF33;strokeWidth=2;align=center;verticalAlign=middle;fontFamily=Helvetica;fontSize=11;fontColor=default;labelBackgroundColor=default;endArrow=open;endFill=0;endSize=16;" parent="ecw_OJBiE6QCDlSSsBEE-1" source="w2-1c_2cRc1IGMD6rBRM-66" target="w2-1c_2cRc1IGMD6rBRM-56" edge="1">
          <mxGeometry relative="1" as="geometry">
            <Array as="points">
              <mxPoint x="-13770" y="-7890" />
            </Array>
          </mxGeometry>
        </mxCell>
        <mxCell id="w2-1c_2cRc1IGMD6rBRM-124" style="edgeStyle=orthogonalEdgeStyle;shape=connector;curved=0;rounded=1;orthogonalLoop=1;jettySize=auto;html=1;dashed=1;strokeColor=#33FF33;strokeWidth=2;align=center;verticalAlign=middle;fontFamily=Helvetica;fontSize=11;fontColor=default;labelBackgroundColor=default;endArrow=open;endFill=0;endSize=16;" parent="ecw_OJBiE6QCDlSSsBEE-1" source="w2-1c_2cRc1IGMD6rBRM-66" target="w2-1c_2cRc1IGMD6rBRM-46" edge="1">
          <mxGeometry relative="1" as="geometry">
            <Array as="points">
              <mxPoint x="-13460" y="-7540" />
              <mxPoint x="-12880" y="-7540" />
              <mxPoint x="-12880" y="-6929" />
            </Array>
          </mxGeometry>
        </mxCell>
        <mxCell id="w2-1c_2cRc1IGMD6rBRM-66" value="ServicioPrestamo" style="swimlane;fontStyle=0;align=center;verticalAlign=top;childLayout=stackLayout;horizontal=1;startSize=30;horizontalStack=0;resizeParent=1;resizeLast=0;collapsible=1;marginBottom=0;rounded=0;shadow=0;strokeWidth=1;" parent="ecw_OJBiE6QCDlSSsBEE-1" vertex="1">
          <mxGeometry x="-13600" y="-8190" width="280" height="576" as="geometry">
            <mxRectangle x="130" y="380" width="160" height="26" as="alternateBounds" />
          </mxGeometry>
        </mxCell>
        <mxCell id="w2-1c_2cRc1IGMD6rBRM-67" value="- dbManager: BaseDatos" style="text;align=left;verticalAlign=top;spacingLeft=4;spacingRight=4;overflow=hidden;rotatable=0;points=[[0,0.5],[1,0.5]];portConstraint=eastwest;rounded=0;shadow=0;html=0;" parent="w2-1c_2cRc1IGMD6rBRM-66" vertex="1">
          <mxGeometry y="30" width="280" height="26" as="geometry" />
        </mxCell>
        <mxCell id="w2-1c_2cRc1IGMD6rBRM-77" value="- servicioMaterial: ServicioMaterial" style="text;align=left;verticalAlign=top;spacingLeft=4;spacingRight=4;overflow=hidden;rotatable=0;points=[[0,0.5],[1,0.5]];portConstraint=eastwest;rounded=0;shadow=0;html=0;" parent="w2-1c_2cRc1IGMD6rBRM-66" vertex="1">
          <mxGeometry y="56" width="280" height="26" as="geometry" />
        </mxCell>
        <mxCell id="w2-1c_2cRc1IGMD6rBRM-78" value="- servicioRecurso: ServicioRecurso" style="text;align=left;verticalAlign=top;spacingLeft=4;spacingRight=4;overflow=hidden;rotatable=0;points=[[0,0.5],[1,0.5]];portConstraint=eastwest;rounded=0;shadow=0;html=0;" parent="w2-1c_2cRc1IGMD6rBRM-66" vertex="1">
          <mxGeometry y="82" width="280" height="26" as="geometry" />
        </mxCell>
        <mxCell id="w2-1c_2cRc1IGMD6rBRM-79" value="- servicioSancion: ServicioSancion" style="text;align=left;verticalAlign=top;spacingLeft=4;spacingRight=4;overflow=hidden;rotatable=0;points=[[0,0.5],[1,0.5]];portConstraint=eastwest;rounded=0;shadow=0;html=0;" parent="w2-1c_2cRc1IGMD6rBRM-66" vertex="1">
          <mxGeometry y="108" width="280" height="26" as="geometry" />
        </mxCell>
        <mxCell id="w2-1c_2cRc1IGMD6rBRM-68" value="" style="line;html=1;strokeWidth=1;align=left;verticalAlign=middle;spacingTop=-1;spacingLeft=3;spacingRight=3;rotatable=0;labelPosition=right;points=[];portConstraint=eastwest;" parent="w2-1c_2cRc1IGMD6rBRM-66" vertex="1">
          <mxGeometry y="134" width="280" height="8" as="geometry" />
        </mxCell>
        <mxCell id="w2-1c_2cRc1IGMD6rBRM-69" value="+ ServicioPrestamo(dbManager: BaseDatos,&#xa;servicioMaterial: ServicioMaterial, &#xa;servicioRecurso: ServicioRecurso,&#xa;servicioSancion: ServicioSancion)" style="text;align=left;verticalAlign=top;spacingLeft=4;spacingRight=4;overflow=hidden;rotatable=0;points=[[0,0.5],[1,0.5]];portConstraint=eastwest;" parent="w2-1c_2cRc1IGMD6rBRM-66" vertex="1">
          <mxGeometry y="142" width="280" height="68" as="geometry" />
        </mxCell>
        <mxCell id="w2-1c_2cRc1IGMD6rBRM-70" value="+ prestarMaterial(usuario: Usuario, &#xa;material: Material): void" style="text;align=left;verticalAlign=top;spacingLeft=4;spacingRight=4;overflow=hidden;rotatable=0;points=[[0,0.5],[1,0.5]];portConstraint=eastwest;rounded=0;shadow=0;html=0;" parent="w2-1c_2cRc1IGMD6rBRM-66" vertex="1">
          <mxGeometry y="210" width="280" height="40" as="geometry" />
        </mxCell>
        <mxCell id="w2-1c_2cRc1IGMD6rBRM-71" value="+ devolverMaterial(&#xa;prestamo: PrestamoMaterial): void" style="text;align=left;verticalAlign=top;spacingLeft=4;spacingRight=4;overflow=hidden;rotatable=0;points=[[0,0.5],[1,0.5]];portConstraint=eastwest;rounded=0;shadow=0;html=0;" parent="w2-1c_2cRc1IGMD6rBRM-66" vertex="1">
          <mxGeometry y="250" width="280" height="40" as="geometry" />
        </mxCell>
        <mxCell id="w2-1c_2cRc1IGMD6rBRM-80" value="+ reservarRecurso(usuario: Usuario, &#xa;recurso: Recurso, fechaHoraInicio: LocalDateTime,&#xa;fechaHoraFin: LocalDateTime, &#xa;participantes: int): void" style="text;align=left;verticalAlign=top;spacingLeft=4;spacingRight=4;overflow=hidden;rotatable=0;points=[[0,0.5],[1,0.5]];portConstraint=eastwest;rounded=0;shadow=0;html=0;" parent="w2-1c_2cRc1IGMD6rBRM-66" vertex="1">
          <mxGeometry y="290" width="280" height="60" as="geometry" />
        </mxCell>
        <mxCell id="w2-1c_2cRc1IGMD6rBRM-81" value="+ liberarRecurso(&#xa;reserva: ReservaRecurso): void" style="text;align=left;verticalAlign=top;spacingLeft=4;spacingRight=4;overflow=hidden;rotatable=0;points=[[0,0.5],[1,0.5]];portConstraint=eastwest;rounded=0;shadow=0;html=0;" parent="w2-1c_2cRc1IGMD6rBRM-66" vertex="1">
          <mxGeometry y="350" width="280" height="40" as="geometry" />
        </mxCell>
        <mxCell id="w2-1c_2cRc1IGMD6rBRM-82" value="+ getPrestamosPorUsuario(&#xa;usuario: Usuario): List&lt;PrestamoMaterial&gt;" style="text;align=left;verticalAlign=top;spacingLeft=4;spacingRight=4;overflow=hidden;rotatable=0;points=[[0,0.5],[1,0.5]];portConstraint=eastwest;rounded=0;shadow=0;html=0;" parent="w2-1c_2cRc1IGMD6rBRM-66" vertex="1">
          <mxGeometry y="390" width="280" height="40" as="geometry" />
        </mxCell>
        <mxCell id="w2-1c_2cRc1IGMD6rBRM-83" value="+ getReservasPorUsuario(&#xa;usuario: Usuario): List&lt;ReservaRecurso&gt;" style="text;align=left;verticalAlign=top;spacingLeft=4;spacingRight=4;overflow=hidden;rotatable=0;points=[[0,0.5],[1,0.5]];portConstraint=eastwest;rounded=0;shadow=0;html=0;" parent="w2-1c_2cRc1IGMD6rBRM-66" vertex="1">
          <mxGeometry y="430" width="280" height="40" as="geometry" />
        </mxCell>
        <mxCell id="w2-1c_2cRc1IGMD6rBRM-84" value="+ getPrestamoMaterialPorId(&#xa;id: int): PrestamoMaterial" style="text;align=left;verticalAlign=top;spacingLeft=4;spacingRight=4;overflow=hidden;rotatable=0;points=[[0,0.5],[1,0.5]];portConstraint=eastwest;rounded=0;shadow=0;html=0;" parent="w2-1c_2cRc1IGMD6rBRM-66" vertex="1">
          <mxGeometry y="470" width="280" height="40" as="geometry" />
        </mxCell>
        <mxCell id="w2-1c_2cRc1IGMD6rBRM-85" value="+ getReservaRecursoById(&#xa;id: int): ReservaRecurso" style="text;align=left;verticalAlign=top;spacingLeft=4;spacingRight=4;overflow=hidden;rotatable=0;points=[[0,0.5],[1,0.5]];portConstraint=eastwest;rounded=0;shadow=0;html=0;" parent="w2-1c_2cRc1IGMD6rBRM-66" vertex="1">
          <mxGeometry y="510" width="280" height="40" as="geometry" />
        </mxCell>
        <mxCell id="w2-1c_2cRc1IGMD6rBRM-72" value="+ getMateriales(id: int): List&lt;Material&gt;" style="text;align=left;verticalAlign=top;spacingLeft=4;spacingRight=4;overflow=hidden;rotatable=0;points=[[0,0.5],[1,0.5]];portConstraint=eastwest;rounded=0;shadow=0;html=0;" parent="w2-1c_2cRc1IGMD6rBRM-66" vertex="1">
          <mxGeometry y="550" width="280" height="26" as="geometry" />
        </mxCell>
        <mxCell id="w2-1c_2cRc1IGMD6rBRM-95" style="edgeStyle=orthogonalEdgeStyle;shape=connector;curved=0;rounded=1;orthogonalLoop=1;jettySize=auto;html=1;strokeColor=#FF9933;strokeWidth=2;align=center;verticalAlign=middle;fontFamily=Helvetica;fontSize=11;fontColor=default;labelBackgroundColor=default;endArrow=block;endFill=0;endSize=16;" parent="ecw_OJBiE6QCDlSSsBEE-1" source="w2-1c_2cRc1IGMD6rBRM-0" target="ecw_OJBiE6QCDlSSsBEE-209" edge="1">
          <mxGeometry relative="1" as="geometry">
            <Array as="points">
              <mxPoint x="-13820" y="-6540" />
              <mxPoint x="-13480" y="-6540" />
            </Array>
          </mxGeometry>
        </mxCell>
      </root>
    </mxGraphModel>
  </diagram>
</mxfile>
